<?xml version="1.0" encoding="UTF-8" standalone="no"?>
<!-- Created with Inkscape (http://www.inkscape.org/) -->

<svg
   xmlns:dc="http://purl.org/dc/elements/1.1/"
   xmlns:cc="http://creativecommons.org/ns#"
   xmlns:rdf="http://www.w3.org/1999/02/22-rdf-syntax-ns#"
   xmlns:svg="http://www.w3.org/2000/svg"
   xmlns="http://www.w3.org/2000/svg"
   xmlns:sodipodi="http://sodipodi.sourceforge.net/DTD/sodipodi-0.dtd"
   xmlns:inkscape="http://www.inkscape.org/namespaces/inkscape"
   width="512"
   height="512"
   viewBox="0 0 512 512.00002"
   version="1.1"
   id="svg8"
   inkscape:version="0.92.1 r15371"
   sodipodi:docname="TopHat.svg">
  <defs
     id="defs2" />
  <sodipodi:namedview
     id="base"
     pagecolor="#ffffff"
     bordercolor="#666666"
     borderopacity="1.0"
     inkscape:pageopacity="0.0"
     inkscape:pageshadow="2"
     inkscape:zoom="0.6510133"
     inkscape:cx="438.84933"
     inkscape:cy="163.9174"
     inkscape:document-units="px"
     inkscape:current-layer="layer1"
     showgrid="false"
     units="px"
     inkscape:window-width="1920"
     inkscape:window-height="1001"
     inkscape:window-x="-9"
     inkscape:window-y="-9"
     inkscape:window-maximized="1" />
  <metadata
     id="metadata5">
    <rdf:RDF>
      <cc:Work
         rdf:about="">
        <dc:format>image/svg+xml</dc:format>
        <dc:type
           rdf:resource="http://purl.org/dc/dcmitype/StillImage" />
        <dc:title></dc:title>
      </cc:Work>
    </rdf:RDF>
  </metadata>
  <g
     inkscape:label="Layer 1"
     inkscape:groupmode="layer"
     id="layer1"
     transform="translate(0,-610.51965)">
    <path
       inkscape:connector-curvature="0"
       id="path4536"
       d="m 244.22797,1041.9046 -19.22598,-1.9013 -19.05041,-5.3287 -19.0504,-5.3287 -17.29205,-8.0024 -17.29206,-8.0024 -14.51055,-9.955 -14.51056,-9.95506 -11.23628,-11.40947 -11.23627,-11.40947 -7.358636,-12.31022 -7.35863,-12.31022 -3.51439,-13.71254 -3.51439,-13.71254 1.07522,-12.92218 1.07522,-12.92219 4.54237,-12.0089 4.54236,-12.0089 7.41381,-11.09804 7.413806,-11.09805 9.30691,-9.49932 9.3069,-9.49933 11.11553,-8.33392 c 10.54398,-7.90539 11.5186,-8.54722 18.95398,-12.4821 4.31113,-2.2815 7.89866,-4.25779 7.97226,-4.39175 0.0736,-0.13397 -0.86835,-9.60983 -2.09324,-21.05747 -1.92807,-18.01946 -2.22917,-21.7422 -2.24266,-27.72833 l -0.0156,-6.91445 2.11044,-6.23201 c 1.16074,-3.42761 2.3625,-6.71944 2.67057,-7.31518 0.30807,-0.59574 2.20064,-3.49046 4.20572,-6.43271 3.21905,-4.72364 4.24054,-5.90676 8.73062,-10.11204 7.08445,-6.6351 14.34124,-11.28004 24.75382,-15.84449 24.10905,-10.56841 52.17778,-13.90183 81.88304,-9.72434 11.5997,1.63129 21.422,4.21079 32.1027,8.43077 6.4512,2.54888 8.9818,3.77543 14.9931,7.2672 5.8935,3.42333 8.289,5.06823 12.9434,8.8879 4.8471,3.97774 6.269,5.38499 9.395,9.29808 2.0259,2.53602 3.9402,5.10746 4.2541,5.7143 0.3138,0.60685 1.4439,3.55885 2.5112,6.56 l 1.9407,5.45662 -0.018,6.46796 c -0.016,5.98915 -0.2598,8.40043 -3.2897,32.5735 -1.7996,14.35806 -3.1643,26.23318 -3.0325,26.38915 0.1317,0.15598 2.2558,1.21841 4.7202,2.36095 2.6805,1.24275 9.1856,4.99072 16.1912,9.32873 l 11.7103,7.25137 10.1456,8.55574 10.1456,8.55573 7.7413,9.68287 7.7413,9.68288 4.4142,10.82332 4.4142,10.82332 1.0501,11.88969 1.0502,11.88969 -2.5945,13.36415 -2.5945,13.36415 -6.0748,13.17678 -6.0748,13.17679 -9.4007,12.39083 -9.4007,12.39084 -12.722,11.22234 -12.722,11.22237 -15.6662,9.1945 -15.6661,9.1946 -17.9091,6.1008 c -13.5895,4.6293 -18.567,6.1758 -20.6375,6.4119 -7.061,0.8053 -36.93099,3.8421 -37.43585,3.806 -0.31372,-0.023 -9.22207,-0.8964 -19.79636,-1.9421 z"
       style="fill:#a0a0a0;stroke-width:0.35277778" />
    <path
       inkscape:connector-curvature="0"
       id="path4534"
       d="m 244.93312,1041.5127 -19.57916,-1.9026 -19.05,-5.3036 -19.05,-5.3036 -15.69861,-7.2423 c -8.63424,-3.9832 -16.59749,-7.6938 -17.69612,-8.2457 -1.09863,-0.5519 -8.24238,-5.2901 -15.875,-10.5293 l -13.87749,-9.52578 -11.21786,-11.21047 -11.21786,-11.21047 -7.590286,-12.61752 -7.59027,-12.61752 -3.48781,-13.62724 -3.48782,-13.62724 1.04963,-12.73718 1.04963,-12.73719 4.48629,-11.99444 4.48629,-11.99445 7.34384,-11.059 7.343846,-11.05901 9.54214,-9.74999 9.54214,-9.74999 10.98655,-8.16032 c 10.16154,-7.54754 11.56935,-8.47101 18.74766,-12.29775 4.26861,-2.2756 7.88797,-4.25702 8.04303,-4.40316 0.15505,-0.14615 -0.69531,-9.45749 -1.8897,-20.69186 -1.89527,-17.82695 -2.17804,-21.39128 -2.22219,-28.01086 l -0.0506,-7.58473 1.72703,-5.11527 c 2.41965,-7.1668 2.88048,-8.10742 6.8751,-14.03322 3.11183,-4.61623 4.16669,-5.84844 8.60278,-10.04915 4.2028,-3.97978 6.08498,-5.45138 11.15292,-8.72002 15.77394,-10.17363 38.55176,-17.10935 60.36578,-18.38105 37.67764,-2.19652 71.94504,7.1312 94.84564,25.81733 4.7674,3.89008 6.0925,5.2059 9.2841,9.21928 2.0476,2.57485 3.9952,5.21323 4.3279,5.86305 0.3327,0.64983 1.4831,3.66608 2.5563,6.70278 l 1.9513,5.52127 -0.2112,6.74691 c -0.1715,5.4791 -0.8124,11.5706 -3.4105,32.41693 -1.7597,14.1185 -3.0709,25.79851 -2.9138,25.95557 0.157,0.15706 2.3493,1.22833 4.8717,2.38059 2.917,1.33255 8.7588,4.67683 16.0513,9.1889 11.3783,7.04 11.5428,7.15886 21.6648,15.64971 l 10.1995,8.55584 7.6534,9.54182 c 4.2093,5.248 7.8229,9.85858 8.0301,10.24575 0.2072,0.38715 2.2788,5.38021 4.6036,11.09568 l 4.2268,10.39175 0.9174,10.58333 c 0.5045,5.82084 0.9163,11.3615 0.915,12.3126 0,1.70153 -4.2528,24.61249 -5.0134,27.02212 -0.2143,0.6791 -3.0314,6.94973 -6.2601,13.93473 l -5.8706,12.7 -4.5757,5.99722 c -2.5167,3.29847 -6.679,8.78818 -9.2496,12.19934 l -4.6738,6.20212 -12.5401,11.08399 -12.5401,11.08397 -15.7651,9.3059 -15.7651,9.3058 -17.9846,6.1364 -17.9846,6.1363 -18.7043,1.9278 c -10.2873,1.0603 -19.18055,1.9822 -19.76263,2.0488 -0.58208,0.067 -9.86896,-0.7352 -20.6375,-1.7816 z"
       style="fill:#5d5d5d;stroke-width:0.35277778" />
    <path
       inkscape:connector-curvature="0"
       id="path4532"
       d="m 243.34562,1041.024 -17.63889,-1.7236 -19.22638,-5.3474 -19.22639,-5.3473 -17.28611,-7.9867 -17.28611,-7.9868 -14.53718,-9.9655 -14.53718,-9.96549 -11.09478,-11.30155 -11.09478,-11.30155 -7.317346,-12.2007 -7.31734,-12.20071 -3.47126,-13.61085 -3.47126,-13.61086 1.07086,-12.74027 1.07085,-12.74027 4.51806,-11.96911 4.51807,-11.96911 7.14902,-10.74478 c 6.839036,-10.27889 7.373126,-10.97424 12.317356,-16.03646 2.84259,-2.91042 7.22914,-7.43479 9.7479,-10.05417 4.06866,-4.23118 5.80183,-5.6677 15.53545,-12.87639 10.25645,-7.59588 11.46667,-8.38415 18.95653,-12.34722 7.357,-3.89276 8.00107,-4.30887 8.00592,-5.17233 0.003,-0.51644 -0.94645,-9.9554 -2.10966,-20.97546 -1.8061,-17.11062 -2.1234,-21.12044 -2.17288,-27.45961 l -0.058,-7.42315 1.9667,-5.46806 c 2.70281,-7.51468 2.58995,-7.29054 6.67475,-13.25609 3.16987,-4.62936 4.2958,-5.93455 8.68837,-10.07164 7.034,-6.62491 13.9796,-11.06803 24.51111,-15.67985 23.6816,-10.37034 51.18609,-13.73603 80.28792,-9.82475 23.856,3.20626 44.6808,11.52501 60.1919,24.04448 5.0422,4.06972 6.3044,5.30875 9.8326,9.65195 l 4.0479,4.98285 2.2326,5.87028 2.2327,5.87027 -0.081,6.74415 c -0.073,6.08888 -0.3922,9.2382 -3.2821,32.41368 -1.7605,14.11825 -3.1527,26.0482 -3.0937,26.51099 0.091,0.71154 0.8695,1.1863 5.046,3.07542 3.4269,1.55004 8.449,4.40853 16.4042,9.3368 11.3546,7.03423 11.5615,7.18378 21.4349,15.48728 l 9.9697,8.38446 7.9446,9.94521 7.9446,9.94521 4.3599,10.69229 4.3598,10.69229 0.9336,10.58333 c 0.5134,5.82084 0.9454,11.29771 0.9599,12.17084 0.014,0.87312 -1.0975,7.38879 -2.4712,14.47926 l -2.4977,12.89176 -6.0165,13.0399 -6.0164,13.0399 -9.4283,12.3775 -9.4283,12.3775 -12.565,11.07973 -12.5651,11.0797 -15.128,8.871 c -8.3204,4.879 -15.4833,9.0507 -15.9175,9.2705 -0.4342,0.2198 -8.7274,3.0975 -18.4293,6.395 l -17.6399,5.9954 -18.4359,1.9289 c -10.1398,1.0609 -19.78535,1.912 -21.43459,1.8913 -1.64923,-0.021 -10.93611,-0.8133 -20.6375,-1.7614 z"
       style="fill:#252525;stroke-width:0.35277778" />
    <path
       inkscape:connector-curvature="0"
       id="path4530"
       d="m 244.05118,1040.6565 -17.99167,-1.7445 -13.40555,-3.719 c -7.37306,-2.0455 -16.10431,-4.472 -19.40278,-5.3922 -5.06961,-1.4144 -7.41593,-2.3312 -15.16944,-5.9274 -5.04473,-2.3399 -12.78528,-5.9274 -17.20123,-7.9724 -6.46109,-2.9921 -9.01004,-4.3912 -13.05277,-7.1649 -2.76308,-1.8957 -9.15128,-6.2707 -14.196,-9.72225 l -9.17222,-6.27548 -11.3612,-11.36509 -11.3612,-11.36509 -6.806856,-11.28259 c -3.74378,-6.20542 -7.0679,-11.76789 -7.38694,-12.36104 -0.31904,-0.59315 -2.11281,-7.08754 -3.98616,-14.43197 l -3.40608,-13.35351 1.07139,-12.71414 1.07138,-12.71415 4.4841,-11.85595 4.4841,-11.85596 7.410922,-10.89987 c 8.430604,-12.39961 8.138514,-12.12503 13.184444,-12.39377 4.48416,-0.23882 6.39345,-0.56615 7.25495,-1.24381 0.4492,-0.35333 1.28044,-0.75546 1.84721,-0.89361 1.45074,-0.35361 5.32931,-2.14992 5.60489,-2.59583 0.12636,-0.20445 0.53283,-0.37172 0.90327,-0.37172 0.37044,0 1.97296,-0.635 3.56115,-1.41111 1.5882,-0.77611 3.10136,-1.41111 3.3626,-1.41111 0.26123,0 0.47497,-0.23813 0.47497,-0.52917 0,-0.39241 0.41255,-0.52917 1.59632,-0.52917 1.49147,0 1.61022,-0.0695 1.80798,-1.05833 0.20319,-1.01593 0.28647,-1.05833 2.07846,-1.05833 1.17967,0 1.921,-0.16231 2.01409,-0.44098 0.10528,-0.31512 1.19596,-0.44097 3.82176,-0.44097 3.19781,0 3.84011,-0.10302 4.95157,-0.79422 0.70242,-0.43683 2.05179,-0.89654 2.99861,-1.0216 0.94682,-0.12506 2.1351,-0.5162 2.64064,-0.8692 0.50554,-0.35299 1.69616,-0.82483 2.64584,-1.04854 0.94967,-0.2237 2.00233,-0.54673 2.33925,-0.71783 0.7805,-0.39639 2.28779,-0.40271 2.53012,-0.0106 0.29859,0.48313 1.97258,11.24529 1.97258,12.68182 0,0.72041 0.16483,1.86441 0.36629,2.54223 0.20147,0.67781 0.68068,3.61364 1.06492,6.52406 0.80965,6.13265 0.82212,6.18125 2.12385,8.27266 l 0.98725,1.58616 0.0169,-6.16413 c 0.0117,-4.2811 0.1778,-6.78022 0.54354,-8.18088 0.43193,-1.65418 0.46445,-2.83344 0.1809,-6.55946 -0.2979,-3.91445 -0.26826,-4.69794 0.21427,-5.66521 0.47829,-0.95875 0.50046,-1.47542 0.15195,-3.54163 -0.30798,-1.82589 -0.30877,-3.27306 -0.003,-5.90129 0.32883,-2.82846 0.31267,-3.88107 -0.0861,-5.60713 -0.29475,-1.27585 -0.38207,-2.53196 -0.21853,-3.14347 0.14981,-0.56018 0.16696,-1.18909 0.0381,-1.39759 -0.12886,-0.2085 -0.27107,-2.92085 -0.31601,-6.02745 -0.045,-3.1066 -0.17315,-6.60086 -0.28488,-7.76503 -0.11173,-1.16416 -0.37163,-3.94229 -0.57755,-6.17361 -0.53574,-5.80506 -1.34709,-13.28066 -1.67087,-15.39493 -0.20403,-1.3323 -0.8887,-2.78204 -2.5824,-5.46805 -3.12021,-4.94827 -2.87476,-4.38582 -5.08527,-11.65287 l -1.96692,-6.46611 0.22012,-4.05694 c 0.38632,-7.12014 0.64788,-8.32247 3.16079,-14.52917 2.0302,-5.01443 2.69612,-6.25579 4.8082,-8.96306 1.3484,-1.72837 2.92506,-3.87323 3.5037,-4.76636 0.57864,-0.89312 2.50618,-2.8775 4.28341,-4.40972 1.77724,-1.53222 4.47455,-3.86998 5.99401,-5.19502 2.42767,-2.11703 14.99764,-10.11445 15.89741,-10.11445 0.1774,0 2.33715,-0.86401 4.79944,-1.92003 7.30871,-3.13453 20.25757,-6.65517 31.64078,-8.60275 15.57964,-2.66557 41.82946,-2.28443 55.91526,0.81186 12.6689,2.78482 14.2601,3.22628 21.8355,6.0579 4.3453,1.62429 9.2666,3.72522 10.9361,4.66875 1.6694,0.94352 4.4641,2.47976 6.2104,3.41386 3.5039,1.87433 13.7611,9.6854 15.6894,11.94781 0.674,0.79083 2.6977,2.9698 4.497,4.84216 3.0611,3.18532 3.434,3.74125 5.7973,8.64306 2.3809,4.93834 2.5419,5.42712 2.8073,8.52314 0.1548,1.8064 0.444,4.45272 0.6426,5.8807 0.3479,2.50118 0.3023,2.82688 -1.2444,8.88647 -1.2159,4.76431 -1.9581,6.93193 -3.0595,8.93596 -1.5828,2.88007 -5.7936,11.00825 -7.3102,14.11111 -1.8674,3.8205 -3.2387,12.38413 -2.2646,14.14218 0.6598,1.19083 0.6077,2.06498 -0.2148,3.59958 -1.0084,1.88131 -1.4614,4.38089 -1.1324,6.24713 0.1825,1.03472 0.097,2.6618 -0.245,4.67271 -0.4324,2.54152 -0.45,3.52243 -0.1,5.56619 0.3544,2.06661 0.3407,2.6838 -0.082,3.69535 -0.4093,0.97959 -0.5061,3.6207 -0.5005,13.6602 0,6.8452 -0.063,13.83884 -0.1496,15.54141 -0.1297,2.56813 -0.042,3.30844 0.5131,4.34482 0.5785,1.07927 0.6211,1.52206 0.3134,3.25442 -0.4793,2.69786 -0.6554,6.76768 -0.2929,6.76768 0.161,0 0.4166,0.33498 0.5681,0.74441 0.271,0.73262 0.2847,0.73019 0.8638,-0.15372 1.3563,-2.06985 3.4712,-8.57563 3.9766,-12.23236 0.7009,-5.07188 1.5951,-9.50241 1.9637,-9.73022 0.1683,-0.10406 0.3061,-0.77514 0.3062,-1.4913 0,-0.71615 0.2381,-2.54637 0.5291,-4.06715 0.291,-1.52079 0.5291,-2.84876 0.5291,-2.95107 0,-0.46742 4.1205,0.36918 4.7673,0.96792 0.3908,0.36167 1.2765,0.89412 1.9684,1.18321 0.6919,0.28909 1.4735,0.7853 1.7369,1.10269 0.9915,1.1947 3.7775,2.28592 5.8362,2.28592 1.662,0 2.0139,0.11042 2.1625,0.67855 0.1224,0.46816 0.7083,0.8059 1.8898,1.08932 0.9418,0.22593 1.8984,0.63496 2.1258,0.90896 0.2274,0.27399 0.6321,0.49817 0.8994,0.49817 0.2673,0 0.4859,0.15875 0.4859,0.35278 0,0.19403 0.1954,0.35278 0.4342,0.35278 0.8949,0 4.3548,1.60689 5.0339,2.33786 0.8163,0.87866 3.6127,1.72098 6.8311,2.05757 1.2347,0.12913 2.5047,0.37166 2.8222,0.53894 0.3175,0.16729 1.2301,0.54423 2.0281,0.83766 0.798,0.29342 2.0336,0.92892 2.7458,1.41222 0.7122,0.4833 1.7658,0.98217 2.3415,1.1086 0.5756,0.12643 1.0466,0.34944 1.0466,0.49557 0,0.14613 1.2303,0.56003 2.734,0.91976 1.5037,0.35974 2.9058,0.85642 3.1157,1.10373 0.2099,0.24733 1.0831,0.5593 1.9403,0.69327 0.8572,0.13398 1.638,0.34683 1.735,0.473 0.2352,0.3059 2.4245,1.28962 3.5278,1.58511 5.3977,1.44574 5.5087,1.51473 8.8078,5.47361 l 3.0977,3.71726 4.4401,10.75972 4.4401,10.75973 1.0172,11.59983 1.0172,11.59984 -2.5477,13.27099 -2.5476,13.271 -5.9464,12.87639 c -5.7898,12.5375 -6.038,12.99709 -9.4299,17.4625 -1.916,2.52236 -6.0842,8.0125 -9.2627,12.2003 l -5.7791,7.61419 -12.5556,11.08303 -12.5557,11.08308 -14.5234,8.5773 c -7.9879,4.7175 -15.2797,8.9679 -16.204,9.4452 -0.9243,0.4774 -5.4487,2.1423 -10.0542,3.6999 -4.6054,1.5576 -12.5011,4.243 -17.5458,5.9676 l -9.1722,3.1356 -8.8194,0.9153 c -4.8507,0.5034 -13.2597,1.3861 -18.6865,1.9615 -5.4269,0.5754 -10.82437,1.0293 -11.99446,1.0085 -1.17008,-0.021 -10.22368,-0.8227 -20.11909,-1.7822 z M 404.03594,844.34941 c -0.6791,-0.48928 -2.4254,-1.52009 -3.8806,-2.29069 -1.4552,-0.77061 -3.9158,-2.16124 -5.4681,-3.0903 -1.5522,-0.92906 -5.2034,-3.01205 -8.1138,-4.62886 -2.9105,-1.61682 -6.18,-3.46592 -7.2657,-4.10913 -1.0856,-0.6432 -3.705,-1.95023 -5.8208,-2.9045 -2.1158,-0.95427 -7.7362,-3.55394 -12.4899,-5.77704 -9.8636,-4.61279 -9.0759,-3.79078 -8.6426,-9.01942 0.164,-1.97859 0.4006,-2.99479 0.7263,-3.11978 1.1577,-0.44424 9.2389,3.82503 20.8174,10.99767 11.9019,7.37307 12.1065,7.51985 20.9902,15.05917 8.7824,7.45337 11.3772,9.82453 10.7129,9.78977 -0.1819,-0.01 -0.8862,-0.41761 -1.5653,-0.90689 z M 120.94668,832.18273 c 1.23045,-2.04893 4.26337,-4.62058 14.27256,-12.10183 10.78164,-8.05862 11.9129,-8.80609 18.97246,-12.53599 4.12896,-2.18151 7.7207,-3.88446 7.98165,-3.78432 0.51582,0.19794 1.14767,6.36452 0.77204,7.53483 -0.13834,0.43104 -1.4472,1.09433 -3.99992,2.02703 -5.68097,2.07571 -23.36158,10.96064 -36.47807,18.33111 -0.99859,0.56113 -1.68291,0.79926 -1.52072,0.52917 z"
       style="fill:#330a05;stroke-width:0.35277778" />
    <path
       inkscape:connector-curvature="0"
       id="path4528"
       d="m 244.05118,1040.6565 -17.99167,-1.7445 -13.40555,-3.719 c -7.37306,-2.0455 -16.10431,-4.472 -19.40278,-5.3922 -5.06961,-1.4144 -7.41593,-2.3312 -15.16944,-5.9274 -5.04473,-2.3399 -12.78528,-5.9274 -17.20123,-7.9724 -6.46109,-2.9921 -9.01004,-4.3912 -13.05277,-7.1649 -2.76308,-1.8957 -9.15128,-6.2707 -14.196,-9.72225 l -9.17222,-6.27548 -11.3612,-11.36509 -11.3612,-11.36509 -6.806856,-11.28259 c -3.74378,-6.20542 -7.0679,-11.76789 -7.38694,-12.36104 -0.31904,-0.59315 -2.11281,-7.08754 -3.98616,-14.43197 l -3.40608,-13.35351 1.07139,-12.71414 1.07138,-12.71415 4.4841,-11.85595 4.4841,-11.85596 7.410922,-10.89987 c 8.430604,-12.39961 8.138514,-12.12503 13.184444,-12.39377 4.48416,-0.23882 6.39345,-0.56615 7.25495,-1.24381 0.4492,-0.35333 1.28044,-0.75546 1.84721,-0.89361 1.45074,-0.35361 5.32931,-2.14992 5.60489,-2.59583 0.12636,-0.20445 0.53283,-0.37172 0.90327,-0.37172 0.37044,0 1.97296,-0.635 3.56115,-1.41111 1.5882,-0.77611 3.10136,-1.41111 3.3626,-1.41111 0.26123,0 0.47497,-0.23813 0.47497,-0.52917 0,-0.39241 0.41255,-0.52917 1.59632,-0.52917 1.49147,0 1.61022,-0.0695 1.80798,-1.05833 0.20319,-1.01593 0.28647,-1.05833 2.07846,-1.05833 1.17967,0 1.921,-0.16231 2.01409,-0.44098 0.10528,-0.31512 1.19596,-0.44097 3.82176,-0.44097 3.19781,0 3.84011,-0.10302 4.95157,-0.79422 0.70242,-0.43683 2.05179,-0.89654 2.99861,-1.0216 0.94682,-0.12506 2.1351,-0.5162 2.64064,-0.8692 0.50554,-0.35299 1.69616,-0.82483 2.64584,-1.04854 0.94967,-0.2237 2.00233,-0.54673 2.33925,-0.71783 0.7805,-0.39639 2.28779,-0.40271 2.53012,-0.0106 0.30223,0.48902 1.97303,11.25676 1.96745,12.67949 -0.003,0.71913 -0.22541,1.94251 -0.49463,2.71862 -0.64143,1.84915 -0.17753,14.9003 0.80879,22.75416 0.65699,5.23148 0.79139,5.72795 3.10637,11.47491 2.50356,6.2151 2.70171,6.54053 8.30428,13.63875 2.13377,2.7034 7.15466,7.35524 13.33101,12.35114 1.4116,1.14181 6.03718,3.97575 14.0505,8.60828 1.42378,0.82309 6.23622,2.95648 10.69432,4.74088 7.09162,2.83847 9.26126,3.52605 17.34325,5.49622 8.57512,2.09038 9.9081,2.31728 18.58624,3.16374 l 9.34861,0.91185 9.17225,-0.60228 c 8.8979,-0.58426 9.3462,-0.64998 14.993,-2.19802 11.6897,-3.20465 12.4315,-3.47101 20.121,-7.22485 7.0327,-3.43324 8.0887,-4.07791 14.211,-8.6755 5.779,-4.33987 7.2602,-5.66972 11.7369,-10.53769 3.9506,-4.29599 5.7133,-6.53992 7.7017,-9.80437 4.043,-6.6378 4.6824,-7.89012 5.8543,-11.46528 2.2093,-6.74033 2.8235,-9.34165 3.7319,-15.80619 0.7824,-5.56767 0.9424,-8.10667 1.027,-16.29659 0.055,-5.33576 0.2758,-10.55649 0.4902,-11.60162 0.2144,-1.04513 0.3899,-1.97623 0.3899,-2.06912 0,-0.45502 4.1345,0.39927 4.7673,0.98504 0.3908,0.36167 1.2765,0.89411 1.9684,1.18321 0.6919,0.28909 1.4735,0.7853 1.7369,1.10269 0.9915,1.19469 3.7775,2.28591 5.8362,2.28591 1.662,0 2.0139,0.11042 2.1625,0.67855 0.1224,0.46817 0.7083,0.8059 1.8898,1.08933 0.9418,0.22593 1.8983,0.63496 2.1257,0.90895 0.2274,0.274 0.6322,0.49817 0.8995,0.49817 0.2673,0 0.4859,0.15875 0.4859,0.35278 0,0.19403 0.1954,0.35278 0.4342,0.35278 0.8949,0 4.3548,1.6069 5.0339,2.33787 0.8163,0.87866 3.6127,1.72097 6.8311,2.05756 1.2347,0.12914 2.5047,0.37166 2.8222,0.53895 0.3175,0.16728 1.2301,0.54423 2.0281,0.83765 0.798,0.29343 2.0336,0.92892 2.7458,1.41222 0.7121,0.4833 1.7658,0.98217 2.3414,1.1086 0.5757,0.12643 1.0467,0.34944 1.0467,0.49557 0,0.14614 1.2303,0.56003 2.734,0.91977 1.5037,0.35973 2.9058,0.85641 3.1157,1.10373 0.2099,0.24732 1.0831,0.55929 1.9403,0.69327 0.8572,0.13398 1.638,0.34683 1.735,0.473 0.2352,0.3059 2.4245,1.28961 3.5277,1.58511 5.3978,1.44573 5.5088,1.51473 8.8079,5.4736 l 3.0977,3.71727 4.4401,10.75972 4.4401,10.75972 1.0172,11.59984 1.0172,11.59983 -2.5477,13.271 -2.5476,13.271 -5.9464,12.87639 c -5.7898,12.5375 -6.038,12.99708 -9.4299,17.4625 -1.916,2.52236 -6.0842,8.01249 -9.2627,12.20029 l -5.7791,7.61419 -12.5557,11.08304 -12.5556,11.08306 -14.5234,8.5773 c -7.9879,4.7176 -15.2797,8.9679 -16.204,9.4452 -0.9243,0.4774 -5.4487,2.1423 -10.0542,3.6999 -4.6054,1.5576 -12.5011,4.243 -17.5458,5.9676 l -9.1722,3.1356 -8.8195,0.9153 c -4.8507,0.5034 -13.2596,1.3861 -18.6864,1.9615 -5.4269,0.5754 -10.82438,1.0293 -11.99447,1.0085 -1.17008,-0.021 -10.22368,-0.8227 -20.11909,-1.7822 z m 8.46666,-129.29807 c -8.38272,-0.77288 -9.96172,-1.03076 -18.34444,-2.99601 -8.04445,-1.88595 -10.25662,-2.56716 -17.99167,-5.54036 -7.79995,-2.99814 -9.71695,-3.90259 -16.58358,-7.82423 -6.77769,-3.87084 -8.5154,-5.05555 -13.67696,-9.32449 -5.07434,-4.19681 -6.4302,-5.54452 -9.5615,-9.50403 -5.06662,-6.40672 -5.16494,-6.57143 -7.58513,-12.70764 l -2.1581,-5.4717 v -6.24059 c 0,-3.43233 0.0827,-6.15788 0.18381,-6.05678 0.1011,0.1011 0.50093,2.62787 0.88853,5.61505 0.8144,6.27667 0.82378,6.31368 2.12994,8.41223 l 0.98725,1.58616 0.0169,-6.16414 c 0.0117,-4.2811 0.1778,-6.78021 0.54354,-8.18088 0.43193,-1.65417 0.46445,-2.83344 0.1809,-6.55945 -0.2979,-3.91446 -0.26826,-4.69794 0.21427,-5.66521 0.47829,-0.95875 0.50046,-1.47542 0.15195,-3.54164 -0.30798,-1.82588 -0.30877,-3.27305 -0.003,-5.90128 0.32883,-2.82846 0.31267,-3.88108 -0.0861,-5.60713 -0.29475,-1.27585 -0.38207,-2.53196 -0.21853,-3.14348 0.14981,-0.56017 0.16696,-1.18909 0.0381,-1.39759 -0.12886,-0.2085 -0.27107,-2.92085 -0.31601,-6.02745 -0.045,-3.10659 -0.17315,-6.60086 -0.28488,-7.76502 -0.11173,-1.16417 -0.37163,-3.94229 -0.57755,-6.17361 -0.53574,-5.80507 -1.34709,-13.28066 -1.67087,-15.39493 -0.20403,-1.3323 -0.8887,-2.78204 -2.5824,-5.46805 -3.12021,-4.94827 -2.87476,-4.38582 -5.08527,-11.65287 l -1.96692,-6.4661 0.22012,-4.05694 c 0.38632,-7.12014 0.64788,-8.32247 3.16079,-14.52917 2.0302,-5.01443 2.69612,-6.25579 4.8082,-8.96306 1.3484,-1.72837 2.92506,-3.87323 3.5037,-4.76636 0.57864,-0.89312 2.50618,-2.8775 4.28341,-4.40972 1.77724,-1.53222 4.47455,-3.86998 5.99401,-5.19502 2.42767,-2.11703 14.99764,-10.11445 15.89741,-10.11445 0.1774,0 2.33715,-0.86401 4.79944,-1.92003 7.30871,-3.13453 20.25757,-6.65517 31.64078,-8.60275 15.57964,-2.66557 41.82946,-2.28443 55.91526,0.81186 12.6689,2.78482 14.2601,3.22628 21.8355,6.0579 4.3453,1.62429 9.2666,3.72522 10.9361,4.66875 1.6694,0.94352 4.4641,2.47976 6.2104,3.41386 3.5039,1.87433 13.7611,9.6854 15.6894,11.94781 0.674,0.79083 2.6977,2.9698 4.497,4.84216 3.0611,3.18532 3.434,3.74125 5.7973,8.64306 2.3809,4.93834 2.5419,5.42712 2.8073,8.52314 0.1548,1.8064 0.444,4.45272 0.6426,5.8807 0.3479,2.50118 0.3023,2.82688 -1.2444,8.88647 -1.2159,4.76431 -1.9581,6.93193 -3.0595,8.93596 -1.5828,2.88007 -5.7936,11.00825 -7.3102,14.11111 -1.8674,3.8205 -3.2387,12.38413 -2.2646,14.14218 0.6598,1.19083 0.6077,2.06498 -0.2148,3.59958 -1.0084,1.88131 -1.4614,4.38089 -1.1324,6.24713 0.1825,1.03472 0.097,2.6618 -0.245,4.67271 -0.4324,2.54152 -0.45,3.52243 -0.1,5.56619 0.3544,2.06661 0.3407,2.6838 -0.082,3.69535 -0.4093,0.97959 -0.5061,3.6207 -0.5005,13.6602 0,6.8452 -0.063,13.83884 -0.1496,15.54141 -0.1297,2.56813 -0.042,3.30844 0.5131,4.34482 0.5785,1.07927 0.6211,1.52206 0.3134,3.25442 -0.4793,2.69786 -0.6554,6.76768 -0.2929,6.76768 0.161,0 0.4166,0.33498 0.5681,0.74441 0.271,0.73262 0.2847,0.73019 0.8638,-0.15372 1.3994,-2.13577 3.4746,-8.57378 3.9997,-12.40875 0.2923,-2.1343 0.7438,-4.83305 1.0034,-5.99722 0.4397,-1.97188 0.4602,-1.69437 0.3005,4.05694 l -0.1713,6.17361 -1.9073,6.0062 c -1.8064,5.6886 -2.1005,6.31952 -5.5625,11.93153 -3.2575,5.2806 -4.2252,6.52715 -8.894,11.4563 -4.5951,4.85135 -6.0426,6.113 -11.7803,10.26764 -5.9688,4.32198 -7.2367,5.06803 -14.4826,8.52171 -7.6505,3.64652 -8.2575,3.86939 -16.5842,6.08946 l -8.6431,2.3044 -8.1138,0.54751 c -4.4627,0.30112 -8.74894,0.60655 -9.52505,0.67871 -0.77611,0.0722 -5.53861,-0.24934 -10.58334,-0.71446 z m 151.5181,-67.00902 c -0.6791,-0.48928 -2.4254,-1.52009 -3.8806,-2.29069 -1.4552,-0.77061 -3.9158,-2.16124 -5.4681,-3.0903 -1.5522,-0.92906 -5.2034,-3.01205 -8.1138,-4.62886 -2.9105,-1.61682 -6.18,-3.46592 -7.2657,-4.10913 -1.0856,-0.6432 -3.705,-1.95023 -5.8208,-2.9045 -2.1158,-0.95427 -7.7362,-3.55394 -12.4899,-5.77704 -9.8636,-4.61279 -9.0759,-3.79078 -8.6426,-9.01942 0.164,-1.97859 0.4006,-2.99479 0.7263,-3.11978 1.1577,-0.44424 9.2389,3.82503 20.8174,10.99767 11.9019,7.37307 12.1065,7.51985 20.9902,15.05917 8.7824,7.45337 11.3772,9.82453 10.7129,9.78977 -0.1819,-0.01 -0.8862,-0.41761 -1.5653,-0.90689 z M 120.94668,832.18273 c 1.23045,-2.04893 4.26337,-4.62058 14.27256,-12.10183 10.78164,-8.05862 11.9129,-8.80609 18.97246,-12.53599 4.12896,-2.18151 7.7207,-3.88446 7.98165,-3.78432 0.51582,0.19794 1.14767,6.36452 0.77204,7.53483 -0.13834,0.43104 -1.4472,1.09433 -3.99992,2.02703 -5.68097,2.07571 -23.36158,10.96064 -36.47807,18.33111 -0.99859,0.56113 -1.68291,0.79926 -1.52072,0.52917 z"
       style="fill:#141414;stroke-width:0.35277778" />
    <path
       inkscape:connector-curvature="0"
       id="path4526"
       d="m 244.75673,1040.1253 -19.40277,-1.9202 -12.7,-3.5471 c -6.985,-1.9508 -15.5575,-4.3372 -19.05,-5.3029 -6.06554,-1.6772 -7.14018,-2.1233 -23.98889,-9.9583 l -17.63889,-8.2025 -8.64305,-5.982 c -4.75368,-3.2901 -11.10368,-7.67424 -14.11111,-9.74255 -5.19514,-3.57289 -6.02475,-4.32044 -16.6217,-14.97767 l -11.15363,-11.21709 -5.463106,-9.17222 c -3.0047,-5.04472 -6.20918,-10.37866 -7.12105,-11.85319 -1.58091,-2.55638 -1.81283,-3.29323 -4.9909,-15.85699 -1.83313,-7.24681 -3.33295,-13.87905 -3.33295,-14.73831 0,-2.76069 1.40747,-17.46604 1.83863,-19.21014 0.33724,-1.36415 0.58902,-1.72432 1.31761,-1.88487 1.9752,-0.43524 2.03842,-0.48129 1.86997,-1.36249 -0.1441,-0.75381 0.0723,-0.96963 1.73427,-1.72985 1.0444,-0.47772 2.96597,-1.11604 4.27015,-1.41851 1.30418,-0.30245 2.94708,-0.79052 3.65088,-1.08459 0.70381,-0.29407 1.92376,-0.53467 2.711,-0.53467 1.374902,0 4.847836,-0.95865 7.178856,-1.98161 0.61141,-0.26831 1.36547,-0.48784 1.6757,-0.48784 0.31022,0 0.56404,-0.15875 0.56404,-0.35278 0,-0.19402 0.23031,-0.35277 0.51181,-0.35277 1.46898,0 4.04682,-0.83587 4.9371,-1.60086 0.56145,-0.48244 1.45694,-0.86859 2.0143,-0.86859 0.57404,0 1.00346,-0.19101 1.00346,-0.44636 0,-0.2455 0.77522,-0.7217 1.72271,-1.05822 1.136,-0.40347 1.78736,-0.85906 1.91253,-1.33769 0.10439,-0.39921 0.67855,-0.91032 1.2759,-1.13579 0.59734,-0.22548 1.08608,-0.60532 1.08608,-0.8441 0,-0.23877 0.47924,-1.14423 1.06497,-2.01212 0.58574,-0.86789 1.29501,-2.12853 1.57616,-2.80143 0.28115,-0.67289 1.00475,-1.717 1.608,-2.32025 0.9176,-0.9176 1.36906,-1.09682 2.76301,-1.09682 0.91641,0 1.81701,-0.13708 2.00133,-0.30463 0.56297,-0.51171 2.68526,-1.12295 5.09764,-1.46817 4.45307,-0.63725 6.44777,-1.19517 8.90285,-2.49019 0.33692,-0.17771 0.85286,-0.32312 1.14653,-0.32312 0.29368,0 0.53396,-0.15875 0.53396,-0.35277 0,-0.19403 0.39204,-0.35278 0.87121,-0.35278 0.87307,0 3.05103,-1.05088 4.09545,-1.97608 0.30632,-0.27135 0.73986,-0.49337 0.96342,-0.49337 0.22356,0 0.50068,-0.37536 0.61583,-0.83414 0.14533,-0.57904 0.63536,-0.97473 1.60235,-1.29387 1.02297,-0.33761 1.45026,-0.70171 1.60863,-1.37072 0.38549,-1.62849 1.19103,-2.234 2.65961,-1.99916 0.94553,0.15119 1.653,0.0194 2.525,-0.47038 0.66629,-0.37423 1.66484,-0.73227 2.21899,-0.79565 l 1.00756,-0.11524 1.12752,7.76111 c 1.09927,7.56667 1.18102,7.8923 3.26319,12.99767 1.84155,4.51536 2.13568,5.54633 2.13568,7.48584 0,1.23711 0.24339,3.96066 0.54087,6.05234 0.46509,3.27025 0.7928,4.31443 2.33917,7.4534 1.16295,2.36067 1.89567,3.49282 2.0739,3.20445 0.15158,-0.24525 0.14096,-0.80004 -0.0236,-1.23284 -0.16456,-0.43281 -0.20167,-0.88445 -0.0825,-1.00365 0.1192,-0.1192 0.18132,-0.99278 0.13804,-1.9413 -0.0643,-1.4103 0.0802,-1.89601 0.79325,-2.6654 l 0.87193,-0.94083 -0.74604,-1.29929 c -0.41032,-0.7146 -1.27182,-1.89505 -1.91444,-2.62321 -0.64261,-0.72817 -1.16839,-1.47005 -1.16839,-1.64863 0,-0.17858 -0.41663,-0.81983 -0.92584,-1.425 -0.50921,-0.60516 -0.84896,-1.17717 -0.755,-1.27114 0.094,-0.094 0.85462,0.74618 1.69035,1.86699 4.48542,6.01543 6.67514,8.43126 11.02869,12.16751 7.74824,6.6496 7.6342,6.57155 20.30188,13.89477 1.42378,0.8231 6.23622,2.95649 10.69432,4.74088 7.09162,2.83848 9.26126,3.52606 17.34325,5.49623 8.57512,2.09038 9.9081,2.31728 18.58624,3.16373 l 9.34861,0.91185 9.17218,-0.60227 c 8.898,-0.58427 9.3463,-0.64999 14.9931,-2.19803 11.6896,-3.20465 12.4314,-3.471 20.1209,-7.22484 7.0317,-3.43268 8.0894,-4.07839 14.2061,-8.67178 5.6902,-4.27313 7.3017,-5.71325 11.5944,-10.3613 2.7422,-2.96911 5.6178,-6.39592 6.3902,-7.61516 0.7724,-1.21922 1.4797,-2.14146 1.5717,-2.0494 0.2006,0.20057 -1.6408,3.54971 -3.3516,6.09606 -1.1888,1.76933 -1.2193,1.89758 -0.9216,3.87633 0.345,2.29232 1.0403,2.78347 2.3288,1.64486 2.2509,-1.98918 7.0676,-16.19479 5.9484,-17.54334 -0.2566,-0.30925 -0.074,-1.04549 0.6273,-2.53027 0.5441,-1.15177 1.5902,-3.99912 2.3246,-6.32745 0.7345,-2.32834 1.4585,-4.39209 1.6089,-4.58612 0.1504,-0.19402 0.4738,-1.02746 0.7185,-1.85208 0.2448,-0.82462 0.5439,-1.4993 0.6647,-1.4993 0.1207,0 0.3993,0.47625 0.619,1.05833 0.3238,0.85758 0.6038,1.05833 1.4765,1.05833 1.2395,0 3.3204,0.87721 4.6945,1.97904 0.534,0.42819 1.92,0.93071 3.175,1.15121 1.7044,0.29944 2.3792,0.59911 2.8741,1.27637 0.3557,0.48677 0.951,0.88505 1.3229,0.88505 0.3719,0 0.6761,0.23812 0.6761,0.52917 0,0.29104 0.2382,0.52916 0.5292,0.52916 0.2911,0 0.5292,0.30272 0.5292,0.67271 0,0.67818 3.1096,3.56063 3.8413,3.56063 0.2156,0 0.392,0.30624 0.392,0.68054 0,0.68785 0.6743,0.90475 5.1153,1.64552 0.7761,0.12946 1.5698,0.35176 1.7639,0.494 0.194,0.14224 1.063,0.36722 1.931,0.49996 0.8681,0.13274 1.8206,0.44371 2.1167,0.69103 0.2961,0.24733 1.2528,0.66471 2.1259,0.92751 0.8731,0.2628 1.905,0.81055 2.293,1.21722 0.9257,0.97007 2.5558,1.68375 2.8305,1.23925 0.3533,-0.5716 2.0585,-0.36284 2.9904,0.36608 0.485,0.37942 1.0725,0.69339 1.3054,0.69771 0.2329,0.004 0.5504,0.22109 0.7055,0.48173 0.1552,0.26064 1.3537,0.85453 2.6634,1.31976 1.3097,0.46523 2.3812,1.04573 2.3812,1.29 0,0.24427 0.299,0.44413 0.6645,0.44413 0.3654,0 0.7417,0.29599 0.8364,0.65775 0.1112,0.42529 0.631,0.74387 1.4708,0.90141 0.7143,0.13401 1.3868,0.47324 1.4945,0.75385 0.1077,0.2806 1.0122,0.91457 2.0099,1.40882 0.9978,0.49425 2.3698,1.50628 3.0489,2.24897 0.9121,0.99747 1.6265,1.41592 2.7341,1.60133 0.8246,0.13805 1.4993,0.39579 1.4993,0.57277 0,0.17697 0.1861,0.32177 0.4136,0.32177 0.7991,0 3.096,1.23958 3.105,1.67569 0,0.24254 0.3953,0.44097 0.8673,0.44097 0.5484,0 0.939,0.25473 1.0821,0.70556 0.1232,0.38805 0.5308,0.70555 0.9057,0.70555 0.375,0 0.6818,0.13162 0.6818,0.29248 0,0.16086 0.8335,0.65521 1.8521,1.09854 1.0186,0.44334 2.1277,0.94673 2.4646,1.11864 0.8176,0.41718 1.6805,0.39653 1.6805,-0.0402 0,-0.19403 0.4025,-0.35278 0.8944,-0.35278 0.9994,0 2.6334,0.93827 2.6334,1.5121 0,0.87466 1.1406,1.62881 2.1562,1.42569 0.9283,-0.18565 1.0188,-0.11637 1.0188,0.77932 0,1.03026 -3.5568,20.67112 -4.4057,24.32872 -0.2702,1.16417 -2.9757,7.51417 -6.0122,14.11112 -3.0366,6.59694 -5.6068,12.20288 -5.7117,12.45764 -0.1049,0.25476 -4.3114,5.89038 -9.3479,12.52361 -10.1415,13.35695 -7.7084,10.82547 -25.5986,26.63406 -5.9633,5.26943 -9.6676,8.26453 -11.7183,9.47463 -1.6493,0.9733 -8.6917,5.137 -15.65,9.2527 l -12.6513,7.4831 -12.9251,4.4102 c -7.1087,2.4256 -15.2078,5.1976 -17.9978,6.1599 l -5.0729,1.7498 -18.5632,1.9317 c -10.2098,1.0624 -19.19834,1.9949 -19.97445,2.0721 -0.77611,0.077 -10.14236,-0.7236 -20.81389,-1.7797 z m 7.76111,-128.76687 c -8.38272,-0.77288 -9.96172,-1.03076 -18.34444,-2.99601 -8.04445,-1.88595 -10.25662,-2.56716 -17.99167,-5.54036 -7.79995,-2.99814 -9.71695,-3.90259 -16.58358,-7.82423 -6.77769,-3.87084 -8.5154,-5.05555 -13.67696,-9.32449 -5.07434,-4.19681 -6.4302,-5.54452 -9.5615,-9.50403 -5.06662,-6.40672 -5.16494,-6.57143 -7.58513,-12.70764 l -2.1581,-5.4717 v -4.12392 c 0,-2.26816 0.0754,-4.04858 0.16745,-3.95648 0.0921,0.0921 0.40566,1.86434 0.69679,3.9383 0.43936,3.12987 0.90477,4.67264 2.73804,9.07611 1.33647,3.21019 2.62859,5.75309 3.27196,6.43926 0.58479,0.62368 1.42671,1.61022 1.87093,2.19231 2.84407,3.72671 8.03087,7.98513 7.78323,6.39012 -0.0335,-0.2161 0.12673,-0.84905 0.35618,-1.40657 0.37032,-0.89982 0.30932,-2.38607 -0.17042,-4.15263 -0.0867,-0.3191 0.0609,-0.79863 0.32787,-1.06561 1.05713,-1.05713 1.38394,-2.31383 1.67003,-6.42169 0.29323,-4.21037 0.5854,-5.76321 1.35484,-7.20093 0.45328,-0.84696 0.72494,-5.49946 0.91086,-15.59964 0.0823,-4.47319 0.29407,-7.63566 0.55503,-8.29028 0.23205,-0.58208 0.37822,-2.0902 0.32482,-3.35139 -0.0534,-1.26118 -0.11163,-5.54743 -0.12943,-9.525 -0.023,-5.13778 -0.17368,-7.65763 -0.52041,-8.70202 -0.43051,-1.29675 -0.41503,-1.73984 0.13123,-3.7579 0.57458,-2.12268 0.57798,-2.37061 0.0471,-3.43481 -0.70409,-1.41139 -0.71579,-2.75936 -0.0318,-3.66366 0.71483,-0.94509 0.64585,-2.27612 -0.18892,-3.64527 -0.38732,-0.63528 -0.70423,-1.63379 -0.70423,-2.21892 0,-2.53043 -2.64743,-6.14843 -9.49826,-12.98043 -3.6767,-3.66658 -5.92011,-6.25192 -7.64265,-8.80748 -4.31384,-6.40002 -5.06955,-7.82903 -5.07718,-9.6008 -0.004,-0.88087 -0.24504,-2.5158 -0.53608,-3.63319 -0.63603,-2.44188 -0.65707,-3.17029 -0.12155,-4.20683 0.22418,-0.43393 0.51639,-1.02249 0.64936,-1.30791 0.14822,-0.31817 1.30123,-0.70856 2.9801,-1.009 l 2.73834,-0.49005 1.02201,1.11897 c 0.56211,0.61543 1.02202,1.23567 1.02202,1.37832 0,0.14265 0.46953,0.64879 1.04339,1.12476 0.57387,0.47596 1.05012,1.06383 1.05834,1.30636 0.008,0.24254 0.23627,0.44098 0.50679,0.44098 0.27053,0 1.01428,0.48801 1.6528,1.08447 0.63851,0.59646 1.80623,1.4114 2.59494,1.81097 0.78871,0.39958 1.67214,1.04339 1.96318,1.43068 1.72777,2.29916 3.99509,3.97412 8.29028,6.12436 2.52236,1.26273 4.82424,2.43358 5.11528,2.60189 0.50974,0.29477 3.99679,1.91167 7.50596,3.48042 0.92683,0.41432 1.84404,0.75332 2.03826,0.75332 0.19422,0 1.47726,0.55556 2.85121,1.23458 3.04328,1.50403 10.57682,4.08155 16.53235,5.65636 2.42534,0.64133 5.60034,1.4824 7.05555,1.86904 2.6111,0.69375 4.55638,1.09387 12.17083,2.50344 9.49513,1.7577 16.81497,2.85141 19.57917,2.92546 3.99263,0.10696 18.66729,-0.5016 19.93199,-0.82657 1.8807,-0.4833 10.5953,-3.34633 14.0468,-4.61483 1.5169,-0.55749 3.66,-1.62197 4.7625,-2.36551 1.1025,-0.74354 2.9138,-1.68635 4.0252,-2.09514 2.5818,-0.9497 7.5549,-3.44511 7.8647,-3.94634 0.1305,-0.21121 0.5791,-0.53259 0.9968,-0.71419 0.79,-0.34344 2.0416,-1.0848 2.347,-1.39019 0.2086,-0.20859 0.9933,-0.65322 4.1663,-2.36088 1.2981,-0.69858 2.757,-1.57289 3.242,-1.94289 1.5146,-1.1553 3.2899,-2.2062 4.9389,-2.92362 0.8732,-0.37985 1.6876,-0.83238 1.8099,-1.00561 1.1113,-1.57438 2.5873,-2.99904 3.7133,-3.58421 0.7458,-0.38758 1.5658,-0.90352 1.8222,-1.14653 0.2564,-0.243 0.6916,-0.44182 0.9671,-0.44182 0.2756,0 0.6993,-0.3175 0.9416,-0.70555 0.2424,-0.38806 0.6678,-0.70556 0.9454,-0.70556 0.2776,0 0.7713,-0.24123 1.097,-0.53607 0.5745,-0.51989 1.3542,-0.66898 5.8133,-1.11154 1.1641,-0.11555 2.3133,-0.36572 2.5537,-0.55594 0.6832,-0.54057 2.8546,0.0217 3.3004,0.85463 0.4613,0.86205 0.1811,3.08606 -0.5726,4.54343 -0.2855,0.55208 -0.519,1.41119 -0.519,1.90913 0,0.49793 -0.8666,2.63317 -1.9257,4.74496 -1.6012,3.19273 -2.8309,4.92405 -7.2991,10.27634 -2.9554,3.5402 -7.3681,8.43753 -9.8062,10.88297 -6.2076,6.22651 -7.7446,8.7243 -7.8153,12.70098 -0.019,1.08671 -0.1442,2.367 -0.2775,2.84509 -0.1333,0.47809 -0.1173,2.03607 0.036,3.46217 0.1667,1.55561 0.1423,2.84609 -0.061,3.22574 -0.4421,0.82603 -0.4992,2.50814 -0.1773,5.21828 0.2014,1.69583 0.1401,2.37565 -0.2708,3.00278 -0.4239,0.64698 -0.507,1.77934 -0.4117,5.60829 0.066,2.6387 0.1943,5.73245 0.2856,6.875 0.091,1.14256 0.045,3.07388 -0.1028,4.29183 -0.2026,1.66876 -0.1541,2.30968 0.1967,2.60084 0.5886,0.4885 0.6065,2.4873 0.028,3.06634 -0.3489,0.34884 -0.3424,0.49712 0.032,0.72829 0.3842,0.23748 0.4048,1.40556 0.1131,6.4235 -0.1961,3.37328 -0.4538,6.45074 -0.5728,6.83879 -0.1642,0.53568 0.042,0.85026 0.8541,1.30651 0.9628,0.54063 1.0703,0.77324 1.0703,2.31722 0,0.94395 0.2502,2.55902 0.5561,3.58904 0.3059,1.03002 0.4632,2.24311 0.3496,2.69575 -0.1556,0.62014 -0.01,0.92518 0.5904,1.23766 0.4383,0.22807 0.8697,0.47918 0.9587,0.55802 0.3987,0.35346 0.9357,9.87081 0.6157,10.91355 -0.2868,0.93453 -0.2199,1.22318 0.4357,1.87877 l 0.7746,0.7746 1.1228,-0.86771 c 0.6175,-0.47724 2.0332,-1.74872 3.146,-2.82551 1.1127,-1.07678 2.2291,-2.08606 2.4807,-2.24284 0.2517,-0.15678 2.0487,-2.66631 3.9933,-5.57672 3.2002,-4.78954 3.7308,-5.82728 5.5917,-10.93611 1.574,-4.32106 2.2111,-6.67203 2.7172,-10.02724 0.3637,-2.41053 0.717,-4.4385 0.7851,-4.5066 0.068,-0.0681 0.053,1.82478 -0.035,4.2064 -0.1481,4.04436 -0.2845,4.72728 -2.0668,10.34504 -1.8082,5.69954 -2.0995,6.32497 -5.5581,11.93153 -3.2515,5.27089 -4.2218,6.5204 -8.8888,11.44767 -4.595,4.85135 -6.0425,6.113 -11.7802,10.26764 -5.9688,4.32198 -7.2367,5.06803 -14.4826,8.52171 -7.6505,3.64652 -8.2575,3.86939 -16.5842,6.08946 l -8.6431,2.3044 -8.1139,0.54751 c -4.4626,0.30112 -8.74888,0.60655 -9.52499,0.67871 -0.77611,0.0722 -5.53861,-0.24934 -10.58333,-0.71446 z m 86.9597,-22.47358 c 0,-0.0733 0.2778,-0.35107 0.6174,-0.61736 0.5595,-0.43881 0.572,-0.42633 0.1332,0.13319 -0.4609,0.58764 -0.7506,0.77452 -0.7506,0.48417 z m 58.9122,-48.59597 c -2.0364,-1.18937 -5.6075,-3.22595 -7.9358,-4.52573 -2.3283,-1.29979 -6.245,-3.49517 -8.7038,-4.87863 -2.4587,-1.38347 -6.1893,-3.29832 -8.2902,-4.25523 -3.4414,-1.56748 -18.0993,-8.34727 -20.1837,-9.3357 -0.8288,-0.39301 -0.8381,-0.45295 -0.6105,-3.92583 0.1271,-1.9397 0.3566,-3.65221 0.5099,-3.80558 0.6518,-0.65177 9.4367,4.00801 20.6741,10.96615 11.4034,7.06094 12.0208,7.50135 20.2683,14.45886 4.6787,3.94685 8.5067,7.24092 8.5067,7.32014 0,0.36969 -0.7951,-0.009 -4.235,-2.01845 z m -275.8705,-9.76975 c 0,-0.63533 3.13223,-3.16041 13.58194,-10.94921 9.81881,-7.31856 11.13098,-8.17764 18.16446,-11.89221 4.16962,-2.20209 7.68731,-3.89106 7.81709,-3.75326 0.12979,0.1378 0.34625,1.7653 0.48102,3.61668 0.28426,3.90484 0.45822,3.64079 -3.35562,5.09324 -1.45521,0.55419 -3.67771,1.44735 -4.93889,1.98479 -2.95234,1.25811 -20.88587,10.18655 -24.34167,12.11882 -6.30074,3.52297 -7.40833,4.08827 -7.40833,3.78115 z m 140.93471,-42.95212 c -8.45487,-0.93901 -13.6535,-1.93342 -23.98888,-4.58864 -10.69547,-2.74773 -24.53608,-7.79247 -25.88417,-9.43448 -0.26629,-0.32436 -0.79688,-0.58973 -1.17908,-0.58973 -0.3822,0 -1.09855,-0.3175 -1.59188,-0.70556 -0.49333,-0.38805 -1.23723,-0.70555 -1.65309,-0.70555 -1.22616,0 -5.75926,-2.34347 -6.22826,-3.21981 -0.3179,-0.594 -0.32484,-0.83846 -0.0266,-0.93787 0.22185,-0.0739 0.40337,-0.35935 0.40337,-0.63422 0,-0.2979 0.35623,-0.49977 0.88194,-0.49977 0.48507,0 0.88195,0.16812 0.88195,0.3736 0,0.20548 0.16905,0.26911 0.37566,0.14142 0.20662,-0.1277 0.92099,-0.12987 1.5875,-0.005 0.85541,0.16047 1.21184,0.41689 1.21184,0.87182 0,0.48016 0.38228,0.71417 1.4993,0.91779 0.82462,0.15033 1.65228,0.23869 1.83926,0.19636 0.18697,-0.0423 0.86166,0.0209 1.4993,0.14054 0.82084,0.15399 1.15936,0.41054 1.15936,0.87863 0,0.58939 0.13844,0.62291 1.27581,0.30886 0.70171,-0.19375 1.61452,-0.27541 2.02848,-0.18147 0.41396,0.0939 1.06599,0.0523 1.44896,-0.0926 0.56539,-0.21386 0.6765,-0.53763 0.59097,-1.72215 -0.1784,-2.47079 0.10979,-2.88633 2.00176,-2.88633 1.46218,0 1.70518,0.1125 2.09536,0.97013 0.24275,0.53358 1.01435,1.25411 1.71467,1.60118 1.16446,0.57709 1.34519,0.58393 2.1142,0.0801 1.09259,-0.71589 1.07055,-1.24026 -0.0521,-1.24026 -0.49116,0 -0.98439,-0.23813 -1.09607,-0.52917 -0.11169,-0.29104 -0.4866,-0.52917 -0.83313,-0.52917 -0.76926,0 -1.05834,-0.68239 -1.05834,-2.49829 v -1.38226 h 1.56997 c 1.11116,0 1.68418,0.18042 1.96076,0.61736 0.27984,0.4421 0.44338,0.49218 0.57609,0.17639 0.10192,-0.24254 0.64833,-0.44097 1.21425,-0.44097 0.83025,0 1.02998,0.15326 1.03433,0.79375 0.003,0.45626 0.1156,0.62874 0.26459,0.40567 0.14255,-0.21344 0.4973,-0.48057 0.78834,-0.59362 0.40113,-0.15581 0.33711,-0.26392 -0.26458,-0.44682 -0.53363,-0.16221 -0.79375,-0.51681 -0.79375,-1.08207 0,-0.68895 0.18135,-0.8408 1.00413,-0.8408 1.4679,0 3.12479,-0.94705 3.37064,-1.92659 0.17132,-0.68261 0.51405,-0.8978 1.71731,-1.07824 0.8268,-0.12398 1.65963,-0.18779 1.85073,-0.14179 0.74359,0.17897 1.58219,-0.49522 1.58219,-1.272 0,-0.44844 0.0964,-1.06645 0.21413,-1.37336 0.25397,-0.66182 1.76652,-0.74939 2.02168,-0.11705 0.14235,0.35278 0.1835,0.35278 0.20578,0 0.0157,-0.2486 0.48956,-0.44097 1.08619,-0.44097 0.88416,0 1.05833,0.1404 1.05833,0.85309 0,1.21782 -0.3509,1.96913 -0.91969,1.96913 -0.52421,0 -0.61792,0.72644 -0.2641,2.04745 0.16759,0.62574 0.42841,0.78808 1.13353,0.70556 0.50372,-0.0589 1.07828,-0.42468 1.27681,-0.81273 0.70771,-1.38338 2.0886,-2.64584 2.89402,-2.64584 0.63769,0 0.81832,-0.19467 0.81832,-0.88194 0,-0.82315 0.11759,-0.88195 1.76389,-0.88195 1.17305,0 1.7657,0.14772 1.76929,0.44098 0.004,0.31885 0.0908,0.30614 0.31377,-0.0459 0.22902,-0.36158 0.72696,-0.4241 1.93488,-0.24297 0.89458,0.13416 1.6265,0.39294 1.6265,0.57507 0,0.18214 0.87313,0.33117 1.94028,0.33117 1.83445,0 1.94028,0.0481 1.94028,0.88194 0,0.79375 -0.14111,0.88195 -1.41111,0.88195 -1.17593,0 -1.41111,0.11759 -1.41111,0.70555 0,0.38806 0.15875,0.70556 0.35278,0.70556 0.19402,0 0.35277,-0.15875 0.35277,-0.35278 0,-0.19403 0.51646,-0.35278 1.14768,-0.35278 1.57011,0 3.2626,-1.76413 3.14707,-3.28028 -0.18264,-2.39693 2.7921,-2.12017 4.13253,0.38447 0.2294,0.42853 0.6326,0.77915 0.896,0.77915 0.2635,0 0.5704,0.23812 0.6821,0.52916 0.1117,0.29104 0.5046,0.52917 0.8732,0.52917 0.5144,0 0.7139,-0.32581 0.8582,-1.40145 0.1034,-0.77079 0.4304,-1.64391 0.7268,-1.94027 0.6023,-0.60227 2.0003,-0.73231 2.0003,-0.18606 0,0.19403 0.2858,0.35278 0.635,0.35278 0.8922,0 1.4808,0.69118 1.4871,1.74625 0,0.49477 0.122,1.07361 0.2646,1.2863 0.3391,0.50598 3.6007,0.93754 4.1032,0.54292 0.2141,-0.16816 1.4608,-0.41085 2.7705,-0.53932 2.1286,-0.2088 2.3842,-0.16703 2.4091,0.39361 0.022,0.49402 0.071,0.51483 0.2293,0.098 0.2957,-0.77679 0.8389,-1.04687 2.1174,-1.05294 0.9244,-0.004 1.1817,0.16164 1.3617,0.87858 0.1752,0.69811 0.512,0.93037 1.602,1.10467 0.7591,0.12138 1.4654,0.3586 1.5696,0.52714 0.1041,0.16854 0.815,0.30644 1.5797,0.30644 0.7646,0 1.3903,0.15875 1.3903,0.35277 0,0.19403 0.3175,0.35278 0.7055,0.35278 0.3881,0 0.7056,-0.15875 0.7056,-0.35278 0,-0.19402 0.2381,-0.35277 0.5291,-0.35277 0.3293,0 0.5292,-0.33318 0.5292,-0.88195 0,-0.70555 0.1764,-0.88194 0.8819,-0.88194 0.8431,0 0.882,0.0936 0.882,2.12338 v 2.12339 l 0.9701,-0.21257 c 0.5336,-0.11692 1.1813,-0.27859 1.4394,-0.35926 0.2581,-0.0807 1.3296,-0.0456 2.3812,0.078 1.8165,0.2135 1.9121,0.27517 1.9121,1.23449 0,0.55537 0.1587,1.00976 0.3527,1.00976 0.1941,0 0.3528,0.22141 0.3528,0.49201 0,0.5466 1.0443,0.36766 3.8345,-0.65701 1.8542,-0.68097 5.6905,-0.42009 5.6905,0.38696 0,0.26597 0.1403,0.48359 0.3117,0.48359 0.1713,0 0.3946,0.3175 0.4961,0.70556 0.1104,0.42213 0.4812,0.70556 0.9231,0.70556 1.2809,0 0.8145,0.90121 -1.6884,3.26234 -3.0757,2.90142 -8.1137,6.5009 -13.9772,9.98611 -7.6365,4.53908 -12.5535,6.6406 -19.6775,8.41014 -4.7255,1.17378 -5.498,1.26862 -10.0078,1.22875 -2.6878,-0.0238 -6.79192,-0.25479 -9.12026,-0.51338 z m -69.14444,-24.49063 c -0.11991,-0.19403 0.0295,-0.35278 0.33196,-0.35278 0.30249,0 0.54999,0.15875 0.54999,0.35278 0,0.19403 -0.14938,0.35278 -0.33196,0.35278 -0.18258,0 -0.43007,-0.15875 -0.54999,-0.35278 z m -14.75787,-16.11019 c -0.12935,-0.12935 -0.23518,-0.84372 -0.23518,-1.5875 0,-1.25993 -0.0705,-1.35231 -1.03273,-1.35231 -0.71511,0 -1.25642,-0.29837 -1.76005,-0.97014 -0.40003,-0.53358 -0.8878,-1.16188 -1.08394,-1.39622 -0.80158,-0.95773 -0.30566,-2.15222 1.79295,-4.31852 0.56998,-0.58836 0.99027,-1.50669 1.11493,-2.43609 0.34899,-2.60188 4.82754,-9.18587 6.63961,-9.761 0.36675,-0.1164 0.9094,-0.71776 1.20589,-1.33636 0.29648,-0.6186 1.60213,-1.99785 2.90145,-3.065 1.2993,-1.06716 3.16654,-2.66013 4.14942,-3.53995 0.98287,-0.87982 2.29411,-1.8097 2.91386,-2.06641 0.61975,-0.25671 1.21674,-0.7501 1.32666,-1.09642 0.10992,-0.34632 0.66556,-0.82258 1.23476,-1.05835 0.5692,-0.23577 1.21836,-0.64972 1.44258,-0.91989 0.50696,-0.61084 1.62296,-0.64162 1.82201,-0.0502 0.18866,0.56056 1.32149,-0.28751 1.32149,-0.98932 0,-0.60341 1.86146,-1.9211 2.71389,-1.9211 0.67129,0 2.36799,-0.78045 3.98888,-1.83481 0.48507,-0.31553 1.55852,-0.77184 2.38544,-1.01403 0.82693,-0.2422 1.6798,-0.65278 1.89528,-0.91242 0.21548,-0.25964 0.5828,-0.47207 0.81626,-0.47207 0.23346,0 0.77836,-0.3767 1.21089,-0.8371 0.43253,-0.46041 1.45239,-1.11404 2.26636,-1.45252 0.81397,-0.33848 2.04721,-0.90868 2.74053,-1.26711 2.55757,-1.3222 10.61991,-3.88838 15.36862,-4.89171 10.03916,-2.12113 23.45484,-1.72383 40.93124,1.21218 14.389,2.41734 25.4792,5.91317 38.2187,12.04722 7.1221,3.42928 7.0302,3.37672 10.9361,6.25039 1.8433,1.35612 4.0246,2.95428 4.8473,3.55146 0.8484,0.61586 2.3574,2.38362 3.4865,4.08441 1.0948,1.64923 2.287,3.42874 2.6493,3.95446 0.3622,0.52572 0.6586,1.36704 0.6586,1.86961 0,1.03317 -0.9126,2.99537 -1.3931,2.99537 -0.1741,0 -1.0415,-1.09036 -1.9274,-2.42302 -1.9249,-2.89538 -3.5685,-4.62403 -6.3946,-6.72542 -1.1566,-0.86005 -2.9761,-2.22096 -4.0432,-3.02426 -3.7638,-2.83316 -9.8322,-6.34195 -16.0192,-9.2625 -3.7826,-1.78555 -12.6641,-5.3206 -14.7419,-5.86767 -1.029,-0.27091 -3.379,-0.91185 -5.2223,-1.42429 -1.8432,-0.51245 -4.4626,-1.23977 -5.8208,-1.61627 -3.4661,-0.96081 -11.3411,-2.36175 -17.23363,-3.06579 -7.03189,-0.84018 -21.68258,-0.83241 -26.33443,0.014 -7.63336,1.38885 -14.41119,3.47087 -20.37386,6.25847 -1.21319,0.56717 -2.29695,1.03123 -2.40835,1.03123 -0.62853,0 -7.70442,4.25681 -11.87037,7.14114 -5.32327,3.68562 -12.5137,10.19775 -14.70736,13.31997 -0.74978,1.06715 -1.68713,2.23284 -2.083,2.59041 -0.39587,0.35758 -0.92435,1.44837 -1.17439,2.424 -0.28399,1.10805 -0.75419,1.97013 -1.25272,2.29678 -1.20653,0.79055 -2.35527,2.88829 -2.43482,4.44627 -0.0676,1.32311 -0.31258,2.0444 -1.41727,4.17197 -0.26741,0.515 -0.48619,1.74532 -0.48619,2.73403 0,1.50799 -0.10422,1.79765 -0.64676,1.79765 -0.35572,0 -0.7526,-0.10583 -0.88195,-0.23519 z"
       style="fill:#0b0b0b;stroke-width:0.35277778" />
    <path
       inkscape:connector-curvature="0"
       id="path4524"
       d="m 260.10257,1041.199 c -4.42756,-0.449 -7.75426,-0.7723 -25.04723,-2.4344 -10.52322,-1.0114 -8.86256,-0.6413 -31.57361,-7.0354 -18.56633,-5.2272 -14.10685,-3.4887 -40.65453,-15.849 -11.30943,-5.2656 -8.87032,-3.7564 -32.78472,-20.28564 l -6.76427,-4.67535 -10.93957,-11.20298 c -11.96367,-12.25173 -10.94727,-10.93756 -17.897586,-23.14124 -1.21554,-2.13431 -2.7374,-4.7257 -3.38192,-5.75865 -3.28853,-5.27046 -3.31336,-5.35385 -1.59412,-5.35385 1.17964,0 4.12644,-1.80938 4.12644,-2.5337 0,-0.80878 1.49293,-2.3671 2.47426,-2.58264 0.57944,-0.12726 1.05352,-0.35985 1.05352,-0.51687 0,-0.15702 0.55563,-0.38973 1.234722,-0.51712 0.96519,-0.18108 1.2359,-0.40143 1.24013,-1.0094 0.003,-0.42778 0.12203,-0.95752 0.26458,-1.17722 0.301954,-0.46537 3.318424,-1.54083 4.321734,-1.54083 0.42839,0 0.76556,-0.31496 0.89675,-0.83768 0.11564,-0.46072 0.59491,-1.01295 1.06506,-1.22716 0.47014,-0.21421 0.85481,-0.55163 0.85481,-0.74982 0,-0.19818 0.21352,-0.36034 0.47449,-0.36034 0.26097,0 0.76182,-0.3175 1.11301,-0.70555 0.35118,-0.38806 0.91443,-0.70556 1.25165,-0.70556 0.33723,0 0.70451,-0.23812 0.8162,-0.52917 0.11168,-0.29104 0.44616,-0.52916 0.7433,-0.52916 0.29713,0 0.54023,-0.14581 0.54023,-0.32401 0,-0.1782 0.55563,-0.6674 1.23473,-1.0871 0.71686,-0.44305 1.23472,-1.04696 1.23472,-1.43989 0,-0.55527 0.25534,-0.67678 1.42218,-0.67678 0.91189,0 1.49208,-0.18214 1.61697,-0.50761 0.10714,-0.27918 0.65584,-0.60887 1.21935,-0.73264 0.56351,-0.12377 1.3061,-0.58295 1.6502,-1.0204 0.41234,-0.5242 1.16551,-0.86936 2.2092,-1.01241 2.38607,-0.32705 4.83165,-1.51057 6.17582,-2.98875 0.39699,-0.43656 0.86051,-0.79375 1.03005,-0.79375 0.16953,0 0.82857,-0.39687 1.46453,-0.88194 0.72892,-0.55597 1.61676,-0.88194 2.40214,-0.88194 0.93152,0 1.35252,-0.20026 1.66866,-0.79375 0.50168,-0.94182 1.35801,-1.64889 2.01581,-1.66448 0.26044,-0.006 0.87716,-0.32872 1.37049,-0.71677 0.49333,-0.38806 1.19306,-0.70556 1.55495,-0.70556 0.36189,0 0.65798,-0.14024 0.65798,-0.31163 0,-0.1714 0.3175,-0.39466 0.70556,-0.49614 0.42213,-0.11039 0.70555,-0.4812 0.70555,-0.92309 0,-0.40622 0.15875,-0.73858 0.35278,-0.73858 0.19403,0 0.35278,-0.53865 0.35278,-1.19698 0,-1.23276 0.44226,-1.62525 1.83133,-1.62525 0.60976,0 0.69403,0.18219 0.57116,1.23473 -0.14745,1.263 0.4934,1.76535 0.90008,0.70555 0.11169,-0.29104 0.52554,-0.52917 0.91969,-0.52917 0.48144,0 0.71663,-0.23155 0.71663,-0.70555 0,-0.39198 -0.23519,-0.70556 -0.52917,-0.70556 -0.67745,0 -0.75517,-3.34832 -0.0876,-3.77483 0.52703,-0.33673 1.18887,-1.68262 1.47263,-2.99473 0.17499,-0.8091 0.43926,-0.98382 1.79567,-1.18723 0.87478,-0.13118 1.67296,-0.37194 1.77376,-0.53503 0.10079,-0.16309 1.1704,-0.49041 2.37691,-0.72739 1.76038,-0.34575 2.45099,-0.6905 3.49658,-1.74548 0.71662,-0.72304 1.86755,-1.50096 2.55764,-1.72871 0.9785,-0.32294 1.25471,-0.60222 1.25471,-1.26868 0,-0.53061 0.20391,-0.85458 0.5379,-0.85458 0.29584,0 0.68055,-0.37523 0.85492,-0.83384 0.17436,-0.4586 0.54743,-0.92225 0.82906,-1.03031 0.28162,-0.10807 0.59629,-0.64566 0.69925,-1.19464 0.3483,-1.85692 1.23867,-3.80565 2.15957,-4.72654 0.50408,-0.50409 0.91652,-1.07713 0.91652,-1.27342 0,-0.1963 0.3197,-0.64623 0.71045,-0.99985 0.54873,-0.4966 0.66772,-0.93063 0.52273,-1.90676 -0.17346,-1.16782 -0.15718,-1.19682 0.21437,-0.38187 0.22115,0.48507 0.44516,1.27882 0.49779,1.76389 1.07328,9.8908 1.6028,12.21746 4.37576,19.22639 l 2.51226,6.35 4.04998,5.11137 c 2.2275,2.81125 4.04999,5.23252 4.04999,5.38059 0,0.40479 4.23679,3.44276 4.80131,3.44276 0.58934,0 0.67119,-1.79472 0.10756,-2.35835 -0.27521,-0.27521 -0.22564,-0.68671 0.17639,-1.46415 0.30755,-0.59474 0.55919,-1.64486 0.55919,-2.33359 0,-0.87792 0.15817,-1.25224 0.52916,-1.25224 0.29104,0 0.52917,-0.18594 0.52917,-0.41319 0,-0.22726 0.21932,-0.66382 0.48738,-0.97014 0.47689,-0.54495 1.00546,-4.61172 0.59998,-4.61612 -0.11298,-10e-4 -0.48012,-0.48493 -0.81587,-1.07488 -0.33582,-0.59009 -0.41796,-0.95369 -0.18259,-0.80822 0.23532,0.14543 0.69279,0.28395 1.01659,0.3078 0.3238,0.0239 1.75534,0.72831 3.1812,1.56545 10.87207,6.38316 11.71315,6.84378 14.41053,7.89198 1.26118,0.49009 4.94073,1.92356 8.17677,3.1855 4.3928,1.71302 8.1473,2.84428 14.81667,4.46437 7.85464,1.90802 9.93368,2.27142 17.22323,3.01053 10.00356,1.0143 13.04567,1.03678 23.10695,0.17076 6.5688,-0.56541 8.4386,-0.86111 12.1708,-1.92475 2.4254,-0.6912 6.2354,-1.75374 8.4667,-2.36121 2.655,-0.72282 5.5808,-1.86688 8.4667,-3.31069 2.4253,-1.21341 5.6797,-2.72294 7.2319,-3.3545 1.5522,-0.63156 3.4082,-1.60403 4.1245,-2.16105 0.7162,-0.55701 1.4758,-1.01275 1.688,-1.01275 0.2123,0 0.8169,-0.27507 1.3437,-0.61127 0.771,-0.49212 0.8734,-0.50423 0.5251,-0.0622 -0.3367,0.42738 -0.3386,0.64305 -0.01,0.97285 0.3298,0.32981 0.3267,0.57913 -0.014,1.12469 -0.2408,0.38552 -0.6871,1.43528 -0.9918,2.3328 -0.5917,1.74285 -0.3756,2.22282 1.0062,2.23491 0.3396,0.003 0.6174,0.20534 0.6174,0.44971 0,0.24437 0.3175,0.64259 0.7056,0.88493 0.388,0.24235 0.7055,0.66043 0.7055,0.92907 0,1.79767 2.6721,0.0784 7.204,-4.63521 4.5693,-4.75252 5.5812,-6.05029 9.0673,-11.62871 3.6213,-5.7946 3.7502,-6.04124 5.406,-10.33605 1.5893,-4.1223 1.9588,-4.56188 1.9588,-2.32985 0,0.9305 0.2608,2.19256 0.5796,2.80458 0.3187,0.61202 0.7156,1.38842 0.8819,1.72534 0.1664,0.33692 0.3024,1.25366 0.3024,2.0372 0,1.20093 0.1407,1.47812 0.8959,1.76526 0.4928,0.18734 1.4696,0.89778 2.1708,1.57876 0.7012,0.68098 1.5011,1.23815 1.7775,1.23815 0.3655,0 0.471,0.357 0.3869,1.3078 -0.094,1.06589 0.031,1.38163 0.6755,1.70701 0.4352,0.21957 1.0702,0.63315 1.4111,0.91907 0.3409,0.28592 1.3291,0.82745 2.1961,1.2034 0.8669,0.37596 1.9616,1.04074 2.4327,1.4773 0.4711,0.43657 1.0485,0.79375 1.2831,0.79375 0.6385,0 4.7621,4.10514 4.7621,4.74085 0,0.30295 0.1984,0.55226 0.441,0.55402 0.2425,0.002 0.8134,0.47477 1.2686,1.05113 0.8898,1.12644 2.599,1.76277 4.7435,1.76592 1.4285,0.002 1.8326,0.2346 3.5295,2.03044 0.5958,0.63059 1.2922,1.14653 1.5476,1.14653 0.2553,0 0.4642,0.15875 0.4642,0.35278 0,0.19403 0.2382,0.35278 0.5292,0.35278 0.291,0 0.5292,0.15875 0.5292,0.35278 0,0.19402 0.2381,0.35277 0.5291,0.35277 0.3293,0 0.5292,0.33318 0.5292,0.88195 0,0.48507 0.1569,0.88194 0.3487,0.88194 0.1919,0 0.6814,0.27781 1.088,0.61736 0.4066,0.33955 1.1625,0.97436 1.6797,1.41068 0.5173,0.43633 1.0596,0.79352 1.2051,0.79375 0.1455,2.4e-4 0.2646,0.23856 0.2646,0.5296 0,0.29104 0.1968,0.52917 0.4373,0.52917 0.2405,0 1.099,0.2737 1.9078,0.60823 1.2637,0.52268 1.4997,0.79009 1.6773,1.90114 0.1771,1.10765 0.4109,1.3746 1.6318,1.86307 0.7837,0.31359 1.516,0.80745 1.6273,1.09747 0.1113,0.29002 0.4482,0.52731 0.7486,0.52731 0.3005,0 1.0667,0.39688 1.7027,0.88194 0.6359,0.48507 1.405,0.88195 1.709,0.88195 0.3543,0 0.5526,0.31649 0.5526,0.88194 0,0.74476 0.1647,0.88195 1.0584,0.88195 0.5821,0 1.0583,0.15238 1.0583,0.33862 0,0.18623 0.6747,0.5307 1.4993,0.76548 0.8246,0.23478 1.8271,0.71741 2.2276,1.0725 0.4006,0.35509 1.0774,0.64562 1.5041,0.64562 0.8458,0 1.9235,0.53509 3.0196,1.49931 0.3861,0.33954 0.8307,0.61736 0.9882,0.61736 0.1574,0 0.2862,0.23812 0.2862,0.52916 0,0.29105 0.1636,0.52917 0.3636,0.52917 0.1999,0 0.8215,0.52162 1.3813,1.15916 0.5597,0.63754 1.4677,1.38854 2.0177,1.66888 1.3846,0.70582 2.9397,2.33247 2.9424,3.07778 0,0.34131 0.4775,0.891 1.0583,1.22152 0.8104,0.46111 1.0562,0.85106 1.0562,1.6757 0,0.95897 0.114,1.07474 1.0583,1.07474 1.2399,0 1.267,0.15607 0.4118,2.37746 -0.7325,1.9027 -1.6157,3.15349 -11.8178,16.73559 -8.1392,10.83584 -6.4161,9.08622 -26.051,26.45132 l -6.5889,5.8273 -14.9305,8.8272 c -8.2118,4.8549 -15.4134,9.0744 -16.0036,9.3766 -0.5901,0.3022 -9.0039,3.259 -18.6972,6.5707 l -17.6242,6.0212 -18.6972,1.9409 c -10.2835,1.0675 -19.17349,1.9942 -19.75557,2.0593 -0.58209,0.065 -3.04271,-0.083 -5.46806,-0.3288 z M 148.86578,907.64912 c -0.11262,-0.28142 -0.19621,-0.19783 -0.21314,0.21314 -0.0153,0.37188 0.0681,0.58025 0.18529,0.46302 0.11722,-0.11722 0.12976,-0.4215 0.0278,-0.67616 z m 102.94651,3.37719 c -7.86179,-0.74621 -9.71964,-1.05318 -17.10972,-2.82703 -4.55966,-1.09446 -8.77832,-2.10433 -9.37482,-2.24417 -0.5965,-0.13983 -4.88275,-1.73412 -9.525,-3.54286 -7.21979,-2.81302 -9.53737,-3.91538 -16.02518,-7.62244 -6.681,-3.81745 -8.30686,-4.9344 -13.64541,-9.37432 -5.449,-4.53178 -6.49532,-5.59003 -10.36705,-10.48532 -3.96678,-5.01547 -4.41595,-5.73873 -5.69627,-9.17222 -0.76446,-2.05007 -1.71635,-4.41647 -2.11531,-5.25866 -0.39896,-0.84218 -0.79137,-2.27093 -0.87202,-3.175 -0.13506,-1.51395 -0.0636,-1.40697 0.90517,1.35487 1.90336,5.42635 4.21435,10.23165 5.99967,12.47529 5.44699,6.84534 7.25396,8.64029 13.09122,13.00416 6.17686,4.61776 7.72601,5.53818 13.05278,7.75522 1.84326,0.76718 3.54982,1.47833 3.79236,1.58034 0.24802,0.10432 0.44097,-0.0655 0.44097,-0.38816 0,-0.42414 0.21367,-0.52 0.81993,-0.36784 1.21262,0.30435 1.8542,-0.59986 1.18354,-1.66804 -0.82895,-1.32032 -1.04769,-3.29169 -0.42279,-3.81031 0.29479,-0.24466 0.53599,-0.98102 0.53599,-1.63636 0,-1.0954 0.97239,-2.60264 1.6791,-2.60264 0.1474,0 0.27408,-0.43656 0.28151,-0.97014 0.0825,-5.91689 0.17065,-6.79097 0.68522,-6.79097 0.32286,0 0.52917,-0.32893 0.52917,-0.8437 0,-0.60573 0.24875,-0.90613 0.88194,-1.06505 0.52245,-0.13113 0.88194,-0.47421 0.88194,-0.8417 0,-0.34118 0.22544,-0.94219 0.50097,-1.33556 0.30664,-0.4378 0.59899,-2.1787 0.7537,-4.48822 0.139,-2.07514 0.38982,-3.77299 0.55737,-3.77299 0.16755,0 0.30463,-0.2095 0.30463,-0.46555 0,-0.25605 0.37331,-0.79014 0.82958,-1.18686 0.76103,-0.6617 0.83245,-1.00951 0.86417,-4.20876 0.019,-1.91809 0.28622,-4.99557 0.59375,-6.83883 0.30754,-1.84326 0.73625,-4.49919 0.95269,-5.90207 0.30775,-1.99473 0.54041,-2.59729 1.06744,-2.76457 0.55014,-0.1746 0.63011,-0.41884 0.43546,-1.32987 -0.13115,-0.6138 -0.40228,-1.31921 -0.60251,-1.56759 -0.24485,-0.30373 -0.26292,-2.09431 -0.0552,-5.46806 0.3699,-6.00763 0.2871,-10.57795 -0.24594,-13.5745 -0.26068,-1.46552 -0.27513,-2.35527 -0.0429,-2.64584 0.1924,-0.24078 0.5319,-2.21149 0.75444,-4.37936 0.40306,-3.92639 0.40138,-3.94508 -0.43792,-4.85069 -0.4634,-0.50001 -1.01345,-0.90912 -1.22234,-0.90912 -0.20889,0 -1.06172,-0.87312 -1.89518,-1.94027 -0.83345,-1.06716 -1.71468,-1.94028 -1.95827,-1.94028 -0.24359,0 -0.87853,-0.48893 -1.41098,-1.08651 -0.53244,-0.59758 -2.6371,-1.94309 -4.67702,-2.99003 -2.03992,-1.04694 -4.89958,-2.7945 -6.35478,-3.88347 -1.45521,-1.08898 -3.12209,-2.22585 -3.70417,-2.52638 -0.58208,-0.30053 -2.40771,-1.45092 -4.05694,-2.55642 -1.64924,-1.10549 -3.80559,-2.51206 -4.7919,-3.12569 -2.05385,-1.27782 -6.49699,-5.73 -6.49699,-6.51022 0,-1.31386 3.92194,-1.2735 6.99642,0.072 1.2937,0.56617 3.85422,1.4603 5.69004,1.98696 1.83582,0.52666 4.93145,1.63268 6.87917,2.45782 10.03405,4.25086 27.38756,8.55729 42.52325,10.55254 3.98676,0.52555 11.75105,1.10978 19.75556,1.48653 5.23161,0.24623 17.31921,-0.63672 24.34171,-1.77808 3.0074,-0.4888 6.52,-1.05029 7.8056,-1.24778 2.6609,-0.40871 7.5947,-1.92491 13.0082,-3.99754 2.0373,-0.77999 4.8863,-1.7158 6.331,-2.07957 1.4447,-0.36376 4.3665,-1.54317 6.4928,-2.6209 2.1263,-1.07773 4.9924,-2.40898 6.3691,-2.95833 1.3766,-0.54935 3.5605,-1.49045 4.8531,-2.09132 1.2926,-0.60088 2.5026,-1.0925 2.6889,-1.0925 0.1864,0 0.4431,0.65212 0.5706,1.44916 0.1728,1.0805 0.069,1.72815 -0.4088,2.54583 -0.3522,0.60317 -3.1225,3.16573 -6.156,5.69459 -8.4089,7.00988 -9.0962,7.54103 -12.5139,9.67107 -4.9155,3.06348 -9.6626,6.36277 -11.3057,7.85755 -0.8203,0.74624 -1.7356,1.3568 -2.0341,1.3568 -0.2986,0 -0.8019,0.54326 -1.1185,1.20724 -0.3166,0.66397 -0.8689,1.2839 -1.2272,1.37761 -0.3584,0.0937 -0.7593,0.45114 -0.891,0.79429 -0.1317,0.34315 -0.5481,0.93258 -0.9253,1.30985 -0.4795,0.47948 -0.5637,0.76156 -0.2796,0.93714 0.2941,0.18174 0.3279,1.21865 0.1221,3.75072 -0.2767,3.40701 -0.2675,4.2633 0.1243,11.58714 0.1537,2.87234 0.076,3.74942 -0.4348,4.88129 -0.5533,1.22698 -0.5761,1.69637 -0.2056,4.23849 0.2292,1.57228 0.577,3.01902 0.7729,3.21496 0.196,0.19595 0.3563,0.862 0.3563,1.48011 0,0.61811 0.2432,1.57855 0.5406,2.13431 0.422,0.78904 0.4905,1.64488 0.3123,3.90562 -0.1895,2.40355 -0.1315,2.99189 0.3414,3.46478 0.7257,0.7257 0.7362,2.89898 0.021,4.3326 -0.4097,0.82128 -0.4544,1.27552 -0.1764,1.79489 0.2047,0.38245 0.3721,1.64796 0.3721,2.81225 0,1.16429 0.174,2.56379 0.3866,3.10999 0.703,1.80568 1.3773,4.7131 1.3773,5.93835 0,0.66365 0.3429,1.86452 0.762,2.66858 0.6966,1.33642 0.7239,1.61085 0.3175,3.19626 -0.3928,1.53293 -0.3698,1.88673 0.1982,3.04684 0.3535,0.72189 0.7555,2.42377 0.8934,3.78197 0.3074,3.02683 0.6683,4.88149 0.9955,5.11527 0.3253,0.23244 1.0667,3.25342 1.0667,4.34636 0,0.47241 -0.2381,1.05655 -0.5291,1.29809 -0.7752,0.64335 -0.6557,1.20107 0.5291,2.46944 0.5821,0.62313 1.0584,1.28561 1.0584,1.47219 0,0.18659 0.2778,0.25671 0.6173,0.15584 0.3396,-0.10088 1.0937,-0.29138 1.6757,-0.42334 1.9888,-0.45087 4.2345,-1.64823 10.0542,-5.36066 5.1183,-3.26497 6.4322,-4.31338 10.8864,-8.68622 4.404,-4.32363 5.5574,-5.71022 8.8322,-10.61753 2.696,-4.03995 4.0485,-6.44669 4.7579,-8.46667 1.1347,-3.23098 1.824,-4.2969 1.1176,-1.72816 -0.8974,3.26337 -1.536,4.56296 -5.074,10.32645 -3.1852,5.18883 -4.0849,6.34145 -8.8492,11.33739 -4.5986,4.82228 -6.1367,6.16147 -11.574,10.07738 -5.5815,4.01986 -7.1426,4.93465 -14.208,8.32574 -7.6572,3.67513 -8.2408,3.89098 -16.5237,6.11148 l -8.5863,2.30179 -9.5234,0.70105 c -5.23794,0.38558 -9.78791,0.68188 -10.11104,0.65846 -0.32313,-0.0234 -4.55627,-0.4193 -9.40696,-0.8797 z m 95.07365,-54.0694 c 0,-0.19403 0.1587,-0.45089 0.3527,-0.57081 0.1941,-0.11992 0.3528,-0.0593 0.3528,0.13475 0,0.19403 -0.1587,0.45089 -0.3528,0.57081 -0.194,0.11991 -0.3527,0.0593 -0.3527,-0.13475 z m 50.0944,-17.8932 c -7.5092,-4.41165 -20.7433,-11.62298 -23.9356,-13.04261 -1.8726,-0.83276 -7.1353,-3.25009 -11.695,-5.37185 l -8.2902,-3.85774 0.044,-3.4129 c 0.024,-1.87709 0.1431,-3.5116 0.2638,-3.63225 0.5822,-0.58219 8.9,3.85958 19.8978,10.62551 11.6121,7.14382 12.3965,7.69614 19.7556,13.90894 8.8327,7.45699 8.0457,6.7605 7.6339,6.75564 -0.1778,-0.002 -1.8315,-0.88983 -3.6747,-1.97274 z M 124.28313,828.89268 c 0.48507,-0.52963 5.72382,-4.58091 11.64166,-9.00283 9.99987,-7.47208 11.29,-8.32038 18.26852,-12.01208 4.12984,-2.18472 7.5772,-3.90382 7.66081,-3.82021 0.0836,0.0836 0.25799,1.65966 0.38752,3.50233 l 0.23551,3.35031 -1.54632,0.63912 c -0.85047,0.35152 -2.89601,1.15499 -4.54564,1.7855 -2.5385,0.97024 -25.22763,12.07679 -26.28123,12.86491 -0.19403,0.14514 -1.78153,1.02709 -3.52778,1.9599 -2.78636,1.48841 -3.06704,1.57814 -2.29305,0.73305 z"
       style="fill:#020202;stroke-width:0.35277778" />
  </g>
</svg>
