<?xml version="1.0" encoding="UTF-8" standalone="no"?>
<!-- Created with Inkscape (http://www.inkscape.org/) -->

<svg
   xmlns:dc="http://purl.org/dc/elements/1.1/"
   xmlns:cc="http://creativecommons.org/ns#"
   xmlns:rdf="http://www.w3.org/1999/02/22-rdf-syntax-ns#"
   xmlns:svg="http://www.w3.org/2000/svg"
   xmlns="http://www.w3.org/2000/svg"
   xmlns:sodipodi="http://sodipodi.sourceforge.net/DTD/sodipodi-0.dtd"
   xmlns:inkscape="http://www.inkscape.org/namespaces/inkscape"
   width="512"
   height="512"
   viewBox="0 0 512 512.00002"
   version="1.1"
   id="svg8"
   inkscape:version="0.92.1 r15371"
   sodipodi:docname="MajHatWithBuckle.svg"
   inkscape:export-filename="C:\Users\velcr\Desktop\MajHatWithBuckle.png"
   inkscape:export-xdpi="96"
   inkscape:export-ydpi="96">
  <defs
     id="defs2" />
  <sodipodi:namedview
     id="base"
     pagecolor="#ffffff"
     bordercolor="#666666"
     borderopacity="1.0"
     inkscape:pageopacity="0.0"
     inkscape:pageshadow="2"
     inkscape:zoom="0.98994949"
     inkscape:cx="399.66816"
     inkscape:cy="168.2248"
     inkscape:document-units="px"
     inkscape:current-layer="layer1"
     showgrid="false"
     units="px"
     inkscape:window-width="1920"
     inkscape:window-height="1001"
     inkscape:window-x="-9"
     inkscape:window-y="-9"
     inkscape:window-maximized="1" />
  <metadata
     id="metadata5">
    <rdf:RDF>
      <cc:Work
         rdf:about="">
        <dc:format>image/svg+xml</dc:format>
        <dc:type
           rdf:resource="http://purl.org/dc/dcmitype/StillImage" />
        <dc:title />
      </cc:Work>
    </rdf:RDF>
  </metadata>
  <g
     inkscape:label="Layer 1"
     inkscape:groupmode="layer"
     id="layer1"
     transform="translate(0,-610.51965)">
    <path
       inkscape:connector-curvature="0"
       id="path4512"
       d="m 264.4831,1044.1488 c -4.16161,-0.2865 -14.41715,-2.5198 -28.22222,-6.1459 -15.44451,-4.0567 -35.6886,-7.7776 -47.97777,-8.8185 -3.58952,-0.304 -10.01889,-0.9724 -14.2875,-1.4852 -7.76074,-0.9325 -7.7614,-0.9327 -13.75834,-3.1941 -8.79528,-3.3166 -16.47977,-7.4199 -22.93055,-12.2443 -10.43049,-7.8008 -16.8621,-14.33262 -23.27528,-23.63792 -3.64674,-5.29137 -6.66463,-11.77237 -8.7825,-18.86071 -1.36234,-4.55962 -1.59087,-5.839 -1.99366,-11.16093 -0.27469,-3.62945 -0.37123,-8.24183 -0.24366,-11.64167 0.19066,-5.08131 0.3362,-6.05876 1.49157,-10.01811 0.70836,-2.42749 2.26796,-6.4561 3.49126,-9.01828 1.97375,-4.134 2.60966,-5.08323 5.92679,-8.84705 3.44337,-3.90705 6.09959,-6.22984 13.02561,-11.39052 2.24288,-1.6712 8.37749,-3.89265 18.12098,-6.56195 3.10444,-0.85048 9.37507,-2.84469 13.93472,-4.43158 17.55826,-6.11076 27.03295,-9.1982 34.62812,-11.284 4.33488,-1.19044 8.27848,-2.28115 8.76355,-2.42378 0.62791,-0.18465 1.92518,-1.82819 4.50381,-5.70599 7.76622,-11.67902 10.51313,-16.82944 10.96133,-20.55232 0.15507,-1.28811 0.14695,-8.81442 -0.0181,-16.72512 -0.32692,-15.67429 -0.31776,-15.87709 1.0081,-22.3206 0.83738,-4.06949 0.89218,-4.88605 0.71036,-10.58334 -0.33639,-10.54087 -2.56635,-24.93422 -5.54761,-35.80717 -1.68815,-6.15695 -3.89409,-12.31318 -8.78537,-24.51783 -6.36559,-15.88334 -8.30774,-19.27062 -17.79423,-31.03479 -8.84681,-10.9709 -13.26687,-18.05144 -14.43487,-23.12336 -0.52312,-2.27162 -0.30386,-3.55843 0.67003,-3.93215 1.1375,-0.4365 5.65845,0.71833 14.74495,3.76644 21.15894,7.09788 34.44429,13.38008 42.55657,20.1236 2.48699,2.06737 15.56264,14.50911 22.41032,21.32388 10.24063,10.1914 17.01753,19.46284 20.8324,28.50074 2.88029,6.82383 3.8874,11.38805 4.72581,21.41731 0.62442,7.46945 1.55533,11.93212 4.57902,21.95103 4.76208,15.779 7.92755,22.12703 16.5119,33.11312 1.73027,2.21437 3.89894,5.12662 4.81923,6.47167 5.15673,7.53676 8.48893,17.85781 9.17642,28.42251 0.11994,1.84327 0.30875,4.41462 0.41959,5.71411 l 0.20151,2.36271 4.1112,2.00266 c 2.26117,1.10147 9.01605,4.29555 15.01095,7.09796 19.5477,9.13799 24.643,11.87872 34.8209,18.73024 12.2804,8.26689 24.4001,20.3413 31.8864,31.76701 3.0031,4.58348 5.8843,11.01251 7.4569,16.6392 1.1922,4.26539 1.2252,4.54829 1.0094,8.64306 -0.3385,6.42073 -1.5478,11.10644 -4.1429,16.05139 -7.8292,14.91881 -21.597,27.50143 -42.9485,39.25093 -10.3506,5.6959 -27.9019,12.5762 -40.74584,15.9727 -12.5302,3.3136 -21.76137,5.0443 -31.04444,5.8203 -8.25161,0.6899 -18.39965,0.8186 -25.57639,0.3246 z"
       style="fill:#a0a0a0;stroke-width:0.35277778" />
    <path
       inkscape:connector-curvature="0"
       id="path4510"
       d="m 266.59977,1043.7943 c -4.79242,-0.212 -6.43957,-0.4636 -13.33066,-2.0364 -4.32443,-0.9869 -11.83974,-2.8403 -16.70068,-4.1187 -16.1266,-4.2408 -35.4597,-7.7639 -49.37732,-8.998 -4.34711,-0.3855 -10.92009,-1.089 -14.60661,-1.5632 -6.5978,-0.8489 -6.80224,-0.901 -13.05278,-3.326 -3.4925,-1.355 -8.70973,-3.7064 -11.59385,-5.2253 -9.14701,-4.8173 -20.84647,-14.2575 -27.46893,-22.16452 -7.34285,-8.7671 -11.35037,-15.94011 -14.5356,-26.01703 -1.39267,-4.4059 -1.6568,-5.76829 -2.13661,-11.02091 -0.37682,-4.12514 -0.48121,-7.75424 -0.33489,-11.64166 0.18629,-4.94891 0.36488,-6.20986 1.44258,-10.18549 0.79109,-2.91835 2.01711,-6.1939 3.43597,-9.17993 1.94589,-4.09515 2.62754,-5.12528 5.78098,-8.73632 3.36305,-3.85107 6.16797,-6.32685 12.42563,-10.96754 2.2137,-1.64169 3.50229,-2.25662 7.88977,-3.76514 2.88417,-0.99164 7.72605,-2.45289 10.75973,-3.24722 3.03368,-0.79433 11.7864,-3.62879 19.4505,-6.29879 18.42965,-6.4205 20.25322,-7.00788 30.16249,-9.71544 5.09718,-1.39272 8.68801,-2.55438 9.02284,-2.91894 1.06667,-1.16141 9.08913,-13.68984 11.22132,-17.52402 1.18169,-2.12494 2.42829,-4.66446 2.77024,-5.64337 0.69383,-1.98628 0.70534,-2.54195 0.49368,-23.82845 l -0.12804,-12.87638 0.97626,-4.23334 c 1.54462,-6.69787 1.38696,-12.84483 -0.71493,-27.87405 -2.11936,-15.15421 -5.09074,-25.26964 -13.4653,-45.83986 -5.86323,-14.40172 -7.78619,-17.689 -17.24117,-29.47359 -9.06459,-11.29803 -13.4533,-18.39908 -14.34943,-23.21776 -0.35096,-1.88718 -0.33185,-2.28287 0.13266,-2.74739 0.84842,-0.84842 3.8419,-0.15353 14.04993,3.26147 22.08033,7.38677 36.10011,14.11457 44.13816,21.18098 4.94535,4.34755 22.91837,21.82893 26.32405,25.60394 8.29342,9.19286 13.06862,16.36808 16.25557,24.42571 2.55327,6.45536 3.19854,9.56245 4.13407,19.90614 0.56903,6.29124 1.20607,10.35056 2.16326,13.78413 1.75186,6.28433 5.28373,17.56396 6.35152,20.28473 2.67483,6.81555 6.96158,14.0166 12.71796,21.36411 4.37321,5.58203 6.20564,8.36728 8.22554,12.50255 3.38885,6.93798 4.99854,13.40001 5.63855,22.63599 0.60675,8.75597 -0.2027,7.44354 6.6251,10.74217 3.24031,1.56545 8.66961,4.11785 12.06511,5.672 26.878,12.30231 38.6414,19.64157 52.7991,32.94156 4.6981,4.41354 11.4322,12.46999 15.0376,17.99055 2.8852,4.41768 5.906,11.0627 7.3422,16.15103 0.9665,3.42375 1.1037,4.43615 1.0595,7.81393 -0.058,4.42778 -0.1407,5.04064 -1.334,9.87777 -2.9534,11.97176 -16.6078,27.92458 -33.1297,38.70618 -15.1552,9.8898 -33.8879,18.1799 -52.18165,23.0929 -21.09533,5.6654 -35.32279,7.3268 -55.20972,6.4469 z"
       style="fill:#5b5b5b;stroke-width:0.35277778" />
    <path
       inkscape:connector-curvature="0"
       id="path4508"
       d="m 265.71783,1043.4434 c -5.14594,-0.2766 -13.99007,-2.126 -28.575,-5.9754 -16.39237,-4.3264 -36.05787,-7.9208 -50.11829,-9.1606 -4.44953,-0.3923 -11.02692,-1.1017 -14.61643,-1.5764 -6.17631,-0.8168 -6.82917,-0.9791 -12.17084,-3.0247 -8.62575,-3.3032 -16.26498,-7.4152 -22.57777,-12.1529 -10.43324,-7.8301 -16.97111,-14.52922 -23.2332,-23.80602 -3.24171,-4.80231 -6.25346,-11.34357 -8.29681,-18.01989 -1.88588,-6.16185 -2.55952,-13.21411 -2.15665,-22.57778 0.2334,-5.4247 0.40222,-6.64435 1.39165,-10.05416 0.63272,-2.18049 2.1789,-6.04428 3.52931,-8.81945 2.19449,-4.50982 2.72327,-5.29134 6.08658,-8.99583 3.38889,-3.73267 8.13105,-7.79435 12.8442,-11.00111 2.2894,-1.55767 9.38564,-4.07033 17.77242,-6.29291 3.58951,-0.95126 7.47889,-2.06533 8.64305,-2.47571 18.32143,-6.45857 23.10748,-8.11237 28.04583,-9.69117 3.20146,-1.02351 8.51959,-2.60107 11.81806,-3.5057 3.29847,-0.90463 6.83146,-1.87876 7.85108,-2.16474 l 1.85386,-0.51996 3.84144,-5.74688 c 4.52791,-6.77386 9.23121,-14.71952 10.35136,-17.48737 0.79522,-1.96495 0.79652,-2.00145 0.69807,-19.60751 -0.0985,-17.60868 -0.0971,-17.64614 0.77912,-21.87222 1.21369,-5.85359 1.417,-9.10065 0.92849,-14.82914 -1.31662,-15.4394 -3.87553,-28.83901 -7.64405,-40.0278 -2.35916,-7.00439 -9.36845,-24.4767 -12.10574,-30.1764 -3.22078,-6.70648 -5.03159,-9.35563 -14.31009,-20.9353 -4.46677,-5.57457 -7.23059,-9.51474 -9.67955,-13.79942 -2.69585,-4.71662 -3.96032,-9.25595 -2.71179,-9.73506 0.65953,-0.25308 5.52264,0.93927 10.27002,2.51804 23.53087,7.82531 38.95247,15.0717 46.91944,22.04677 4.18595,3.66478 21.60298,20.58064 25.52552,24.79104 9.79481,10.51353 15.37995,19.22624 18.5728,28.97317 1.40356,4.28466 2.07352,8.09009 2.64336,15.01438 0.43099,5.23668 1.48294,12.24498 2.25055,14.99305 1.43115,5.12386 5.35128,17.63067 6.28519,20.05242 2.63532,6.83356 7.13141,14.4271 12.90789,21.8004 9.66993,12.34299 12.83748,20.51583 13.85482,35.74786 0.20772,3.11018 0.44694,5.99938 0.5316,6.42044 0.18708,0.93026 4.08651,2.96448 18.40811,9.60293 19.299,8.94563 25.881,12.47899 36.2507,19.46001 8.9744,6.04165 18.4556,14.63842 24.7756,22.46453 7.9929,9.89751 11.8349,16.98569 14.2276,26.24872 0.6519,2.52381 0.7352,3.58688 0.5767,7.35964 -0.374,8.90169 -2.5771,14.5821 -9.4409,24.34171 -5.3233,7.5692 -15.3292,16.72712 -25.2001,23.06442 -19.7317,12.6682 -41.4858,21.1933 -67.73333,26.5436 -12.25864,2.4987 -25.51602,3.3596 -39.86388,2.5884 z"
       style="fill:#282828;stroke-width:0.35277778" />
    <path
       inkscape:connector-curvature="0"
       id="path4506"
       d="m 263.07199,1043.0992 c -3.10194,-0.3499 -16.226,-3.3414 -26.9875,-6.1516 -15.39738,-4.0207 -35.7735,-7.753 -48.15416,-8.8204 -3.58952,-0.3094 -9.86014,-0.9743 -13.93472,-1.4775 -7.19661,-0.8887 -7.56965,-0.975 -13.05278,-3.0219 -8.35869,-3.1202 -16.81806,-7.6215 -22.80551,-12.1348 -15.73479,-11.86102 -25.76086,-24.71832 -30.09264,-38.59051 -0.33323,-1.06715 -0.76985,-2.41653 -0.97026,-2.99861 -0.20041,-0.58208 -0.48456,-1.77271 -0.63145,-2.64583 -0.14689,-0.87313 -0.43872,-2.06375 -0.6485,-2.64584 -0.62218,-1.72635 -1.04075,-7.72365 -0.96023,-13.75833 0.0684,-5.12895 0.16124,-5.87995 1.01626,-8.22311 0.51752,-1.41827 0.94094,-2.94491 0.94094,-3.39254 0,-1.84557 2.91089,-7.56891 5.27626,-10.3741 0.78459,-0.93047 1.42652,-1.93306 1.42652,-2.22798 0,-0.73583 3.23568,-3.74135 4.32116,-4.01379 0.48509,-0.12175 1.05961,-0.61123 1.27672,-1.08772 0.22797,-0.50034 1.05105,-1.14769 1.94822,-1.53226 0.85441,-0.36624 2.00638,-1.06741 2.55994,-1.55816 0.55355,-0.49074 1.55778,-1.37651 2.23161,-1.96838 0.67383,-0.59187 1.58664,-1.07613 2.02847,-1.07613 0.44183,0 0.80332,-0.15316 0.80332,-0.34036 0,-0.56126 1.41171,-1.14133 2.77676,-1.14096 0.7041,1.9e-4 1.38891,-0.17502 1.5218,-0.38935 0.13289,-0.21433 1.04409,-0.40418 2.02489,-0.4219 1.32537,-0.024 1.91027,-0.2059 2.27785,-0.70859 0.4074,-0.55715 0.58904,-0.59797 1.03051,-0.23158 0.36182,0.30028 0.61021,0.3246 0.76455,0.0749 0.12574,-0.20345 0.51731,-0.36991 0.87016,-0.36991 0.35284,0 0.84456,-0.24463 1.0927,-0.54362 0.28749,-0.3464 1.03906,-0.5424 2.07167,-0.54027 0.89128,0.002 2.17613,-0.0124 2.85522,-0.0316 0.6791,-0.0192 1.98879,0.0628 2.91042,0.1824 1.07175,0.13903 1.6757,0.0841 1.6757,-0.15249 0,-0.20342 0.27781,-0.3416 0.61736,-0.30706 0.33954,0.0345 1.13329,0.0445 1.76389,0.0222 0.98587,-0.0349 1.14652,-0.16778 1.14652,-0.94817 v -0.90755 l 0.92952,0.73116 c 0.51124,0.40214 1.28555,0.73116 1.72069,0.73116 0.43515,0 0.98142,0.22923 1.21394,0.5094 0.44123,0.53165 0.54442,0.50907 3.47253,-0.75976 0.68891,-0.29852 1.58454,-0.41142 2.19693,-0.27691 1.28946,0.28321 2.46084,-0.0649 2.46084,-0.73122 0,-0.32976 0.37926,-0.5054 1.09136,-0.5054 0.80467,0 1.14119,0.19058 1.28108,0.72551 0.13294,0.50837 0.36062,0.65181 0.76072,0.47928 1.2452,-0.53697 2.51878,-0.54716 3.55851,-0.0285 0.92356,0.46074 1.259,0.47382 2.18331,0.0852 0.60588,-0.25476 1.756,-0.38436 2.58329,-0.29112 0.82016,0.0925 1.83194,-0.0143 2.2484,-0.23717 0.9919,-0.53084 0.95647,-0.17909 -0.12473,1.23844 -1.06754,1.39962 -1.09552,1.7698 -0.17115,2.2645 0.55931,0.29934 0.7553,0.26439 0.91969,-0.16398 0.11489,-0.2994 0.54909,-0.54195 0.9649,-0.53898 0.56499,0.004 0.63372,0.0829 0.27204,0.31198 -0.26619,0.16862 -0.42148,0.49405 -0.34511,0.72318 0.0916,0.27492 0.42542,0.16807 0.9815,-0.31422 1.02808,-0.89165 1.3637,-0.68254 0.65672,0.40918 -0.28663,0.44262 -0.61883,1.28101 -0.73822,1.86309 -0.25204,1.22886 2.26023,-3.77356 4.34064,-8.64305 1.78636,-4.18122 4.82361,-8.04883 8.43863,-10.7457 2.57726,-1.92269 3.20119,-2.24569 3.20119,-1.65719 0,0.16341 -0.9525,3.19163 -2.11666,6.72936 -2.0503,6.23054 -2.51611,8.49571 -1.74705,8.49571 0.70934,0 1.93096,-1.70545 2.94183,-4.10698 1.16947,-2.77828 1.68436,-3.89421 2.25572,-4.88885 0.22292,-0.38806 0.73234,-1.45962 1.13205,-2.38125 0.39971,-0.92163 0.88153,-1.6757 1.07071,-1.6757 0.18918,0 0.34396,-0.5441 0.34396,-1.20911 0,-0.87221 0.24779,-1.40403 0.8893,-1.90864 0.48962,-0.38514 1.11357,-1.44475 1.38832,-2.35768 0.27447,-0.912 0.82679,-1.88773 1.22737,-2.16831 0.40059,-0.28059 0.72834,-0.85841 0.72834,-1.28406 0,-0.42564 0.66061,-1.4882 1.46803,-2.36124 1.99086,-2.15267 3.11808,-3.83996 3.11808,-4.6673 0,-0.37864 0.52486,-1.30161 1.16634,-2.05104 0.64148,-0.74943 1.33386,-1.72717 1.5386,-2.17275 1.07254,-2.33413 1.5545,-3.3301 1.84306,-3.80875 0.17546,-0.29105 0.59743,-1.20386 0.9377,-2.02848 0.34028,-0.82461 0.8327,-1.4993 1.09427,-1.4993 0.26157,0 0.47559,-0.24371 0.47559,-0.54158 0,-0.29787 0.25638,-0.93287 0.56974,-1.41111 0.31336,-0.47824 0.46313,-0.86953 0.33283,-0.86953 -0.1303,0 -0.002,-0.43657 0.28412,-0.97014 1.16878,-2.17625 1.73904,-4.56446 1.74791,-7.32014 0.008,-2.5781 -0.10735,-6.80709 -0.64021,-23.4113 -0.10188,-3.17482 -0.29514,-5.95022 -0.42946,-6.16756 -0.38164,-0.6175 -0.12485,-5.40706 0.45685,-8.52114 1.6703,-8.94174 1.23075,-21.19703 -1.27236,-35.47541 -0.18913,-1.07883 -0.34265,-2.34883 -0.34117,-2.82222 0.001,-0.47339 -0.38538,-2.44821 -0.85971,-4.38848 -0.47432,-1.94028 -1.11511,-4.78343 -1.42398,-6.31812 -0.30886,-1.53469 -0.77813,-3.28094 -1.0428,-3.88056 -0.26468,-0.59961 -0.92358,-2.51896 -1.46423,-4.26521 -0.54065,-1.74625 -1.43077,-4.17117 -1.97804,-5.3887 -0.54728,-1.21753 -0.99505,-2.35185 -0.99505,-2.5207 0,-0.3635 -1.77596,-4.68738 -3.0544,-7.43644 -0.49627,-1.06715 -1.25424,-2.73402 -1.68439,-3.70416 -0.43014,-0.97014 -1.19724,-2.63702 -1.70466,-3.70417 -0.50743,-1.06715 -1.28359,-2.97215 -1.72481,-4.23333 -0.44122,-1.26118 -1.16511,-2.83115 -1.60864,-3.48882 -0.44354,-0.65766 -0.80643,-1.47976 -0.80643,-1.82688 0,-0.34712 -0.21754,-0.84867 -0.48342,-1.11455 -0.66714,-0.66713 -1.63325,-2.59174 -1.63325,-3.25362 0,-0.30068 -0.14805,-0.54669 -0.329,-0.54669 -0.18095,0 -0.42532,-0.30347 -0.54305,-0.67437 -0.28351,-0.89327 -2.96906,-4.94789 -4.00286,-6.04349 -0.44988,-0.47677 -0.90628,-1.30342 -1.01423,-1.837 -0.10795,-0.53358 -0.33911,-0.97014 -0.51368,-0.97014 -0.17458,0 -0.45692,-0.35719 -0.62743,-0.79375 -0.1705,-0.43656 -1.35757,-1.98437 -2.63793,-3.43958 -2.99628,-3.40546 -3.43197,-3.94725 -5.39017,-6.70278 -0.89625,-1.26118 -1.84352,-2.42001 -2.10504,-2.57517 -0.26152,-0.15516 -0.47549,-0.42272 -0.47549,-0.59458 0,-0.17186 -1.11275,-1.47366 -2.47277,-2.89289 -2.75866,-2.87876 -3.75932,-4.62028 -4.10535,-7.14482 l -0.23414,-1.70827 1.36922,0.25687 c 2.19431,0.41166 6.8534,1.94492 9.1472,3.01027 1.16417,0.54069 2.70977,1.1719 3.43467,1.40268 0.7249,0.23078 1.40896,0.56678 1.52013,0.74665 0.11116,0.17987 0.47056,0.3306 0.79866,0.33494 0.3281,0.004 1.54904,0.47704 2.71321,1.05043 1.16416,0.57339 2.25955,1.04608 2.4342,1.05043 0.17464,0.004 1.12714,0.38905 2.11666,0.8549 0.98953,0.46584 3.86289,1.71665 6.38525,2.77957 9.84542,4.14886 11.74986,4.99918 14.81667,6.61552 8.22259,4.33368 12.38459,7.3951 18.55175,13.646 6.52612,6.61474 10.36386,10.44774 15.60787,15.58857 4.01509,3.93608 5.46085,5.55577 10.10735,11.32335 1.17235,1.4552 2.94146,3.64827 3.93136,4.87348 1.68529,2.08589 2.34177,3.14615 4.40898,7.12096 1.32013,2.53829 2.95518,6.73166 2.95518,7.57904 0,0.42857 0.22423,1.24018 0.49823,1.80356 0.49347,1.01449 1.55554,8.91838 2.34192,17.42851 0.54701,5.91974 1.35279,9.68019 3.515,16.40417 0.99826,3.10444 1.96536,6.27944 2.14906,7.05555 1.00545,4.24752 4.50447,13.67484 6.48133,17.4625 4.41957,8.46775 6.34387,11.57517 9.06611,14.64028 5.13722,5.7842 9.62762,14.06894 10.89896,20.10833 0.24508,1.16417 0.55976,2.27542 0.69928,2.46945 0.31475,0.4377 0.86949,3.33925 0.77565,4.05694 -0.0381,0.29104 0.0905,0.93242 0.28561,1.42529 0.19512,0.49286 0.41797,2.08036 0.49516,3.52777 0.17646,3.3087 0.44002,6.38918 0.72803,8.50993 0.13289,0.97849 0.0637,1.94326 -0.17064,2.38125 -0.27422,0.51236 -0.28399,0.94201 -0.0321,1.41259 0.19903,0.37194 0.44203,2.31663 0.53996,4.32152 0.27912,5.71472 0.43448,7.20977 0.825,7.93948 0.19992,0.37358 0.47505,1.70333 0.6114,2.95501 0.13635,1.25167 0.35931,2.43452 0.49551,2.62855 0.13618,0.19403 0.46278,1.30528 0.72577,2.46945 0.263,1.16416 0.8453,2.70882 1.29392,3.43257 0.44867,0.72375 0.81577,1.52238 0.81577,1.77474 0,0.25236 0.48521,0.64199 1.07826,0.86584 0.90795,0.3427 1.11234,0.31827 1.29381,-0.15468 0.28762,-0.74948 -0.39285,-3.97833 -1.87441,-8.89439 -1.41693,-4.70159 -1.83596,-6.88204 -1.28453,-6.68421 0.20715,0.0743 1.65248,1.36385 3.21183,2.86562 3.93465,3.78931 5.88445,7.21033 8.57785,15.05017 1.173,3.41453 2.371,7.47823 2.6622,9.03045 0.2912,1.55222 0.7225,2.98097 0.9585,3.175 0.606,0.49829 0.9282,2.02733 0.5545,2.63192 -0.4512,0.73018 -0.043,1.18752 0.5902,0.66172 0.4393,-0.36461 0.6163,-0.3348 0.9821,0.16539 0.2486,0.33999 0.6845,0.5187 0.9845,0.4036 0.296,-0.11361 0.6431,-0.037 0.7712,0.17026 0.1281,0.20726 0.6117,0.37683 1.0747,0.37683 0.5703,0 0.9922,0.31298 1.3078,0.97014 0.3739,0.77847 0.7089,0.97273 1.6954,0.98328 0.6762,0.007 1.4288,0.13634 1.6725,0.28694 0.2695,0.16659 0.5262,0.057 0.6555,-0.27988 0.1778,-0.46348 0.4466,-0.38151 1.6495,0.50313 1.2866,0.94621 1.4978,1.00181 2.0176,0.53132 0.758,-0.68596 2.1127,-0.6836 2.1127,0.004 0,0.29104 0.2381,0.52916 0.5291,0.52916 0.6408,0 0.7025,-0.57684 0.088,-0.82469 -0.2425,-0.0979 -0.093,-0.19047 0.332,-0.20579 0.4251,-0.0153 0.8625,0.11709 0.972,0.29423 0.3219,0.52088 2.9037,0.82201 3.6452,0.42517 0.5599,-0.29965 0.7627,-0.2106 1.1444,0.50262 0.4947,0.92441 1.251,1.1461 1.4877,0.43607 0.1085,-0.32527 0.5037,-0.28928 1.6143,0.14697 0.9817,0.38563 1.5464,0.45513 1.6985,0.20904 0.1424,-0.23032 0.3454,-0.15859 0.5411,0.19115 0.1724,0.3079 0.5312,0.47622 0.7975,0.37403 0.2663,-0.10218 0.589,-0.0162 0.7171,0.19104 0.3419,0.55326 0.8968,0.459 0.8968,-0.15234 0,-0.73971 0.6011,-0.65918 1.3165,0.17639 0.3323,0.38806 0.8864,0.70556 1.2313,0.70556 0.3449,0 0.6272,0.23812 0.6272,0.52916 0,0.59545 0.9326,0.72999 1.1219,0.16185 0.1299,-0.38966 2.2244,0.49399 2.596,1.09521 0.1123,0.18175 0.6517,0.33044 1.1986,0.33044 0.5468,0 1.1919,0.23813 1.4334,0.52917 0.2416,0.29104 0.6801,0.52917 0.9745,0.52917 0.2944,0 0.7352,0.27333 0.9794,0.6074 0.293,0.4006 0.9668,0.62011 1.9792,0.64469 0.8528,0.0207 2.4528,0.46163 3.6003,0.99217 1.136,0.52519 2.3266,0.87517 2.6459,0.77773 0.3454,-0.10539 1.134,0.32014 1.9471,1.05052 0.7517,0.67522 1.7832,1.3322 2.2922,1.45996 0.509,0.12776 1.4815,0.75946 2.1611,1.40379 0.6796,0.64433 1.3839,1.17289 1.5652,1.17457 0.5811,0.005 3.3027,1.43166 3.742,1.96098 0.2335,0.28134 0.6186,0.51152 0.8558,0.51152 0.6754,0 1.6577,1.27325 1.5342,1.98866 -0.085,0.49305 0.1181,0.65179 0.8553,0.66827 1.0086,0.0225 2.0013,0.99062 2.0205,1.9705 0.01,0.31376 0.6615,1.00082 1.4563,1.52678 1.0768,0.71261 1.3994,1.1311 1.2657,1.64226 -0.2255,0.86239 0.6106,2.5733 1.6616,3.40001 0.6615,0.52032 0.7847,0.91792 0.7047,2.27472 -0.082,1.39752 0.028,1.72622 0.7376,2.19091 0.6917,0.45322 0.8413,0.86509 0.875,2.40828 0.022,1.02386 0.057,2.33781 0.078,2.91989 0.073,2.08949 -0.3547,4.49603 -1.1286,6.35 -2.2129,5.30084 -3.5325,7.7991 -6.2424,11.8181 -2.5292,3.7509 -4.1737,5.7066 -7.742,9.2072 -8.9486,8.77892 -16.0111,13.97222 -28.442,20.91472 -19.7459,11.0277 -50.93565,20.5615 -72.78304,22.2477 -7.24866,0.5594 -22.01922,0.6653 -26.24874,0.1882 z M 177.50476,916.42791 c -0.11358,-0.18378 -0.35689,-0.24122 -0.54067,-0.12763 -0.18379,0.11358 -0.24123,0.35689 -0.12764,0.54067 0.11359,0.18379 0.35689,0.24123 0.54068,0.12764 0.18378,-0.11358 0.24122,-0.35689 0.12763,-0.54068 z m 0.46207,-2.64263 c -0.3472,-0.34719 -0.97261,0.18581 -0.97261,0.8289 0,0.53851 0.0464,0.53754 0.59636,-0.0124 0.328,-0.328 0.49731,-0.69541 0.37625,-0.81648 z m -6.26428,-2.42169 c 0,-0.0856 -0.15875,-0.25368 -0.35278,-0.3736 -0.19402,-0.11992 -0.35277,-0.0499 -0.35277,0.15557 0,0.20548 0.15875,0.3736 0.35277,0.3736 0.19403,0 0.35278,-0.07 0.35278,-0.15557 z"
       style="fill:#362612;stroke-width:0.35277778" />
    <path
       inkscape:connector-curvature="0"
       id="path4504"
       d="m 263.07199,1043.0992 c -3.10194,-0.3499 -16.226,-3.3414 -26.9875,-6.1516 -15.39738,-4.0207 -35.7735,-7.753 -48.15416,-8.8204 -3.58952,-0.3094 -9.86014,-0.9743 -13.93472,-1.4775 -7.19661,-0.8887 -7.56965,-0.975 -13.05278,-3.0219 -8.35869,-3.1202 -16.81806,-7.6215 -22.80551,-12.1348 -15.73479,-11.86102 -25.76086,-24.71832 -30.09264,-38.59051 -0.33323,-1.06715 -0.76985,-2.41653 -0.97026,-2.99861 -0.20041,-0.58208 -0.48456,-1.77271 -0.63145,-2.64583 -0.14689,-0.87313 -0.43872,-2.06375 -0.6485,-2.64584 -0.62218,-1.72635 -1.04075,-7.72365 -0.96023,-13.75833 0.0684,-5.12895 0.16124,-5.87995 1.01626,-8.22311 0.51752,-1.41827 0.94094,-2.94491 0.94094,-3.39254 0,-1.84557 2.91089,-7.56891 5.27626,-10.3741 0.78459,-0.93047 1.42652,-1.93306 1.42652,-2.22798 0,-0.73583 3.23568,-3.74135 4.32116,-4.01379 0.48509,-0.12175 1.05961,-0.61123 1.27672,-1.08772 0.22797,-0.50034 1.05105,-1.14769 1.94822,-1.53226 0.85441,-0.36624 2.00638,-1.06741 2.55994,-1.55816 0.55355,-0.49074 1.55778,-1.37651 2.23161,-1.96838 0.67383,-0.59187 1.58664,-1.07613 2.02847,-1.07613 0.44183,0 0.80332,-0.15316 0.80332,-0.34036 0,-0.56126 1.41171,-1.14133 2.77676,-1.14096 0.7041,1.9e-4 1.38891,-0.17502 1.5218,-0.38935 0.13289,-0.21433 1.04409,-0.40418 2.02489,-0.4219 1.32537,-0.024 1.91027,-0.2059 2.27785,-0.70859 0.4074,-0.55715 0.58904,-0.59797 1.03051,-0.23158 0.36182,0.30028 0.61021,0.3246 0.76455,0.0749 0.12574,-0.20345 0.51731,-0.36991 0.87016,-0.36991 0.35284,0 0.84456,-0.24463 1.0927,-0.54362 0.28749,-0.3464 1.03906,-0.5424 2.07167,-0.54027 0.89128,0.002 2.17613,-0.0124 2.85522,-0.0316 0.6791,-0.0192 1.98879,0.0628 2.91042,0.1824 1.07175,0.13903 1.6757,0.0841 1.6757,-0.15249 0,-0.20342 0.27781,-0.3416 0.61736,-0.30706 0.33954,0.0345 1.13329,0.0445 1.76389,0.0222 0.98587,-0.0349 1.14652,-0.16778 1.14652,-0.94817 v -0.90755 l 0.92952,0.73116 c 0.51124,0.40214 1.28555,0.73116 1.72069,0.73116 0.43515,0 0.98142,0.22923 1.21394,0.5094 0.44123,0.53165 0.54442,0.50907 3.47253,-0.75976 0.68891,-0.29852 1.58454,-0.41142 2.19693,-0.27691 1.28946,0.28321 2.46084,-0.0649 2.46084,-0.73122 0,-0.32976 0.37926,-0.5054 1.09136,-0.5054 0.80467,0 1.14119,0.19058 1.28108,0.72551 0.13294,0.50837 0.36062,0.65181 0.76072,0.47928 1.2452,-0.53697 2.51878,-0.54716 3.55851,-0.0285 0.92356,0.46074 1.259,0.47382 2.18331,0.0852 0.60588,-0.25476 1.756,-0.38436 2.58329,-0.29112 0.82016,0.0925 1.83194,-0.0143 2.2484,-0.23717 0.9919,-0.53084 0.95647,-0.17909 -0.12473,1.23844 -1.06754,1.39962 -1.09552,1.7698 -0.17115,2.2645 0.55931,0.29934 0.7553,0.26439 0.91969,-0.16398 0.11489,-0.2994 0.54909,-0.54195 0.9649,-0.53898 0.56499,0.004 0.63372,0.0829 0.27204,0.31198 -0.26619,0.16862 -0.42148,0.49405 -0.34511,0.72318 0.0916,0.27492 0.42542,0.16807 0.9815,-0.31422 1.06486,-0.92355 1.35756,-0.66982 0.58589,0.5079 -0.32559,0.49691 -0.62491,1.37467 -0.66515,1.95058 -0.0402,0.57591 -0.16035,1.04743 -0.26691,1.04781 -0.10656,3.6e-4 -0.12891,0.55608 -0.0497,1.23486 0.0792,0.67879 -0.12214,1.89952 -0.44752,2.71272 -0.42827,1.07035 -0.52768,1.97143 -0.36006,3.26376 0.31425,2.42281 1.13386,4.80195 1.86144,5.40329 0.56354,0.46577 0.5625,0.48446 -0.0167,0.30234 -0.66253,-0.20832 -0.80948,0.34543 -0.30356,1.14386 0.24924,0.39334 0.4705,0.36843 1.24704,-0.14037 0.54033,-0.35404 0.86103,-0.82254 0.74993,-1.09555 -0.70512,-1.7327 -0.72197,-1.6663 0.25964,-1.02313 0.52816,0.34607 0.96184,0.99917 1.02473,1.54321 0.12001,1.03825 0.59699,1.16626 1.13972,0.30586 0.25258,-0.40043 0.1891,-0.73469 -0.22684,-1.1943 -0.41983,-0.46391 -0.48326,-0.80679 -0.23222,-1.25537 0.27536,-0.49204 0.20988,-0.61714 -0.32304,-0.61714 -0.742,0 -2.08154,-1.28326 -1.7185,-1.6463 0.12697,-0.12697 0.54342,0.052 0.92543,0.39773 0.85929,0.77764 1.76746,0.4811 1.81436,-0.59244 0.0339,-0.77681 0.0437,-0.77412 0.28049,0.0771 0.13493,0.48507 0.47629,0.88195 0.75858,0.88195 0.53467,0 0.59468,-0.62106 0.16194,-1.6757 -0.19264,-0.46946 -0.0802,-0.61736 0.46915,-0.61736 0.39737,0 0.82059,0.15875 0.94051,0.35278 0.29375,0.4753 1.23472,0.45013 1.23472,-0.033 0,-0.21219 -0.30652,-0.46596 -0.68115,-0.56393 -0.73369,-0.19187 -1.20986,-1.02862 -0.88472,-1.5547 0.44416,-0.71868 -0.25015,-1.72893 -1.19193,-1.7343 -0.56911,-0.003 -0.778,-0.11244 -0.52402,-0.2739 0.27855,-0.17707 0.31042,-0.44549 0.0936,-0.78834 -0.18081,-0.28593 -0.33118,-1.13979 -0.33415,-1.89747 l -0.005,-1.37766 1.49931,2.23307 c 3.31811,4.942 3.27424,4.89058 7.4429,8.72424 3.48732,3.20707 3.66929,2.7014 0.2525,-0.70166 -1.60504,-1.59858 -3.31736,-3.69412 -3.80516,-4.65673 -0.48779,-0.96262 -1.25925,-2.31375 -1.71434,-3.00251 -0.4551,-0.68876 -1.07285,-2.42086 -1.37277,-3.84911 -0.29993,-1.42824 -0.63451,-2.74111 -0.74352,-2.91749 -0.10901,-0.17637 -0.0229,-1.78594 0.19126,-3.5768 0.32475,-2.7152 0.58235,-3.54914 1.55063,-5.02001 0.63865,-0.97014 1.56376,-2.40158 2.05579,-3.18098 0.89962,-1.42504 3.50804,-3.52297 4.09384,-3.29265 0.17294,0.068 -0.44306,2.42551 -1.3689,5.23891 -1.65469,5.02826 -2.09224,7.40833 -1.36192,7.40833 0.70934,0 1.93096,-1.70545 2.94183,-4.10698 1.16947,-2.77828 1.68436,-3.89421 2.25572,-4.88885 0.22292,-0.38806 0.73234,-1.45962 1.13205,-2.38125 0.39971,-0.92163 0.88153,-1.6757 1.07071,-1.6757 0.18918,0 0.34396,-0.5441 0.34396,-1.20911 0,-0.87221 0.24779,-1.40403 0.8893,-1.90864 0.48962,-0.38514 1.11357,-1.44475 1.38832,-2.35768 0.27447,-0.912 0.82679,-1.88773 1.22737,-2.16831 0.40059,-0.28059 0.72834,-0.85841 0.72834,-1.28406 0,-0.42564 0.66061,-1.4882 1.46803,-2.36124 1.99086,-2.15267 3.11808,-3.83996 3.11808,-4.6673 0,-0.37864 0.52486,-1.30161 1.16634,-2.05104 0.64148,-0.74943 1.33386,-1.72717 1.5386,-2.17275 1.07254,-2.33413 1.5545,-3.3301 1.84306,-3.80875 0.17546,-0.29105 0.59743,-1.20386 0.9377,-2.02848 0.34028,-0.82461 0.8327,-1.4993 1.09427,-1.4993 0.26157,0 0.47559,-0.24371 0.47559,-0.54158 0,-0.29787 0.25638,-0.93287 0.56974,-1.41111 0.31336,-0.47824 0.46313,-0.86953 0.33283,-0.86953 -0.1303,0 -0.002,-0.43657 0.28412,-0.97014 1.16878,-2.17625 1.73904,-4.56446 1.74791,-7.32014 0.008,-2.5781 -0.10735,-6.80709 -0.64021,-23.4113 -0.10188,-3.17482 -0.29514,-5.95022 -0.42946,-6.16756 -0.38164,-0.6175 -0.12485,-5.40706 0.45685,-8.52114 1.6703,-8.94174 1.23075,-21.19703 -1.27236,-35.47541 -0.18913,-1.07883 -0.34265,-2.34883 -0.34117,-2.82222 0.001,-0.47339 -0.38538,-2.44821 -0.85971,-4.38848 -0.47432,-1.94028 -1.11511,-4.78343 -1.42398,-6.31812 -0.30886,-1.53469 -0.77813,-3.28094 -1.0428,-3.88056 -0.26468,-0.59961 -0.92358,-2.51896 -1.46423,-4.26521 -0.54065,-1.74625 -1.43077,-4.17117 -1.97804,-5.3887 -0.54728,-1.21753 -0.99505,-2.35185 -0.99505,-2.5207 0,-0.3635 -1.77596,-4.68738 -3.0544,-7.43644 -0.49627,-1.06715 -1.25424,-2.73402 -1.68439,-3.70416 -0.43014,-0.97014 -1.19724,-2.63702 -1.70466,-3.70417 -0.50743,-1.06715 -1.28359,-2.97215 -1.72481,-4.23333 -0.44122,-1.26118 -1.16511,-2.83115 -1.60864,-3.48882 -0.44354,-0.65766 -0.80643,-1.47976 -0.80643,-1.82688 0,-0.34712 -0.21754,-0.84867 -0.48342,-1.11455 -0.66714,-0.66713 -1.63325,-2.59174 -1.63325,-3.25362 0,-0.30068 -0.14805,-0.54669 -0.329,-0.54669 -0.18095,0 -0.42532,-0.30347 -0.54305,-0.67437 -0.28351,-0.89327 -2.96906,-4.94789 -4.00286,-6.04349 -0.44988,-0.47677 -0.90628,-1.30342 -1.01423,-1.837 -0.10795,-0.53358 -0.33911,-0.97014 -0.51368,-0.97014 -0.17458,0 -0.45692,-0.35719 -0.62743,-0.79375 -0.1705,-0.43656 -1.35757,-1.98437 -2.63793,-3.43958 -2.99628,-3.40546 -3.43197,-3.94725 -5.39017,-6.70278 -0.89625,-1.26118 -1.84352,-2.42001 -2.10504,-2.57517 -0.26152,-0.15516 -0.47549,-0.42272 -0.47549,-0.59458 0,-0.17186 -1.11275,-1.47366 -2.47277,-2.89289 -2.75866,-2.87876 -3.75932,-4.62028 -4.10535,-7.14482 l -0.23414,-1.70827 1.36922,0.25687 c 2.19431,0.41166 6.8534,1.94492 9.1472,3.01027 1.16417,0.54069 2.70977,1.1719 3.43467,1.40268 0.7249,0.23078 1.40896,0.56678 1.52013,0.74665 0.11116,0.17987 0.47056,0.3306 0.79866,0.33494 0.3281,0.004 1.54904,0.47704 2.71321,1.05043 1.16416,0.57339 2.25955,1.04608 2.4342,1.05043 0.17464,0.004 1.12714,0.38905 2.11666,0.8549 0.98953,0.46584 3.86289,1.71665 6.38525,2.77957 9.84542,4.14886 11.74986,4.99918 14.81667,6.61552 8.22259,4.33368 12.38459,7.3951 18.55175,13.646 6.52612,6.61474 10.36386,10.44774 15.60787,15.58857 4.01509,3.93608 5.46085,5.55577 10.10735,11.32335 1.17235,1.4552 2.94146,3.64827 3.93136,4.87348 1.68529,2.08589 2.34177,3.14615 4.40898,7.12096 1.32013,2.53829 2.95518,6.73166 2.95518,7.57904 0,0.42857 0.22423,1.24018 0.49823,1.80356 0.49347,1.01449 1.55554,8.91838 2.34192,17.42851 0.54701,5.91974 1.35279,9.68019 3.515,16.40417 0.99826,3.10444 1.96536,6.27944 2.14906,7.05555 1.00545,4.24752 4.50447,13.67484 6.48133,17.4625 4.41957,8.46775 6.34387,11.57517 9.06611,14.64028 5.13722,5.7842 9.62762,14.06894 10.89896,20.10833 0.24508,1.16417 0.55976,2.27542 0.69928,2.46945 0.31475,0.4377 0.86949,3.33925 0.77565,4.05694 -0.0381,0.29104 0.0905,0.93242 0.28561,1.42529 0.19512,0.49286 0.41797,2.08036 0.49516,3.52777 0.17646,3.3087 0.44002,6.38918 0.72803,8.50993 0.13289,0.97849 0.0637,1.94326 -0.17064,2.38125 -0.27422,0.51236 -0.28399,0.94201 -0.0321,1.41259 0.19903,0.37194 0.44203,2.31663 0.53996,4.32152 0.27912,5.71472 0.43448,7.20977 0.825,7.93948 0.19992,0.37358 0.47505,1.70333 0.6114,2.95501 0.13635,1.25167 0.35931,2.43452 0.49551,2.62855 0.13618,0.19403 0.46278,1.30528 0.72577,2.46945 0.263,1.16416 0.8453,2.70882 1.29392,3.43257 0.44867,0.72375 0.81577,1.52238 0.81577,1.77474 0,0.25236 0.48521,0.64199 1.07826,0.86584 0.90795,0.3427 1.11234,0.31827 1.29381,-0.15468 0.27207,-0.70892 -0.36773,-3.86065 -1.69407,-8.3456 -1.62743,-5.50302 -1.39975,-5.94545 1.42889,-2.77635 2.35208,2.63521 4.44835,6.29601 5.14515,8.98543 0.4638,1.78963 0.4878,2.54323 0.1454,4.57298 -0.5341,3.16658 -2.60065,7.30179 -4.99221,9.98951 -1.03586,1.16417 -2.11987,2.42047 -2.4089,2.79179 -1.19969,1.54127 0.97059,-0.19206 4.48543,-3.58236 l 3.59978,-3.47225 -0.1149,1.35484 c -0.065,0.76678 -0.4407,1.70177 -0.8657,2.15414 -0.413,0.43963 -0.7509,1.14069 -0.7509,1.55792 0,0.83628 1.0807,1.5936 1.8518,1.29769 0.298,-0.11432 0.6558,0.17093 0.9076,0.72342 0.5255,1.15353 0.5209,1.23176 -0.072,1.23176 -0.2684,0 -0.5749,0.33192 -0.6809,0.73761 -0.1661,0.63502 -0.074,0.70769 0.6644,0.52244 0.7609,-0.19096 0.8573,-0.0996 0.8573,0.81215 0,0.56502 0.2266,1.11429 0.5037,1.22061 0.277,0.10631 0.5548,0.63923 0.6174,1.18427 0.1489,1.2987 0.7194,1.26446 1.1224,-0.0674 0.1761,-0.58209 0.6958,-1.98161 1.155,-3.11006 0.4591,-1.12845 0.8348,-2.35378 0.8348,-2.72296 0,-1.00461 0.9504,-0.47491 1.1653,0.64949 0.099,0.51848 0.042,1.20132 -0.1273,1.51742 -0.4056,0.75792 0,1.12643 0.6434,0.58956 0.4079,-0.33851 0.6021,-0.30089 0.9578,0.18558 0.2486,0.33999 0.6845,0.5187 0.9845,0.4036 0.296,-0.11361 0.6431,-0.037 0.7712,0.17026 0.1281,0.20726 0.6117,0.37683 1.0747,0.37683 0.5703,0 0.9922,0.31298 1.3078,0.97014 0.3739,0.77847 0.7089,0.97273 1.6954,0.98328 0.6762,0.007 1.4288,0.13634 1.6725,0.28694 0.2695,0.16659 0.5262,0.057 0.6555,-0.27988 0.1778,-0.46348 0.4466,-0.38151 1.6495,0.50313 1.2866,0.94621 1.4978,1.00181 2.0176,0.53132 0.758,-0.68596 2.1127,-0.6836 2.1127,0.004 0,0.29104 0.2381,0.52916 0.5291,0.52916 0.6408,0 0.7025,-0.57684 0.088,-0.82469 -0.2425,-0.0979 -0.093,-0.19047 0.332,-0.20579 0.4251,-0.0153 0.8625,0.11709 0.972,0.29423 0.3219,0.52088 2.9037,0.82201 3.6452,0.42517 0.5599,-0.29965 0.7627,-0.2106 1.1444,0.50262 0.4947,0.92441 1.251,1.1461 1.4877,0.43607 0.1085,-0.32527 0.5037,-0.28928 1.6143,0.14697 0.9817,0.38563 1.5464,0.45513 1.6985,0.20904 0.1424,-0.23032 0.3454,-0.15859 0.5411,0.19115 0.1724,0.3079 0.5312,0.47622 0.7975,0.37403 0.2663,-0.10218 0.589,-0.0162 0.717,0.19104 0.342,0.55326 0.8968,0.459 0.8968,-0.15234 0,-0.73971 0.6012,-0.65918 1.3166,0.17639 0.3323,0.38806 0.8864,0.70556 1.2313,0.70556 0.3449,0 0.6272,0.23812 0.6272,0.52916 0,0.59545 0.9326,0.72999 1.1219,0.16185 0.1299,-0.38966 2.2244,0.49399 2.596,1.09521 0.1123,0.18175 0.6517,0.33044 1.1986,0.33044 0.5469,0 1.1919,0.23813 1.4335,0.52917 0.2415,0.29104 0.68,0.52917 0.9744,0.52917 0.2944,0 0.7351,0.27333 0.9794,0.6074 0.293,0.4006 0.9668,0.62011 1.9792,0.64469 0.8528,0.0207 2.4528,0.46163 3.6003,0.99217 1.136,0.52519 2.3266,0.87517 2.6459,0.77773 0.3454,-0.10539 1.1341,0.32014 1.9471,1.05052 0.7517,0.67522 1.7832,1.3322 2.2922,1.45996 0.509,0.12776 1.4815,0.75946 2.1611,1.40379 0.6796,0.64433 1.3839,1.17289 1.5652,1.17457 0.5811,0.005 3.3027,1.43166 3.742,1.96098 0.2335,0.28134 0.6186,0.51152 0.8559,0.51152 0.6753,0 1.6576,1.27325 1.5341,1.98866 -0.085,0.49305 0.1181,0.65179 0.8553,0.66827 1.0086,0.0225 2.0013,0.99062 2.0205,1.9705 0.01,0.31376 0.6615,1.00082 1.4563,1.52678 1.0768,0.71261 1.3994,1.1311 1.2657,1.64226 -0.2255,0.86239 0.6106,2.5733 1.6616,3.40001 0.6615,0.52032 0.7847,0.91792 0.7047,2.27472 -0.082,1.39752 0.028,1.72622 0.7376,2.19091 0.6917,0.45322 0.8413,0.86509 0.875,2.40828 0.022,1.02386 0.057,2.33781 0.078,2.91989 0.073,2.08949 -0.3547,4.49603 -1.1286,6.35 -2.2129,5.30084 -3.5325,7.79904 -6.2424,11.81804 -2.5292,3.7509 -4.1737,5.7066 -7.742,9.2072 -8.9486,8.77892 -16.0111,13.97222 -28.442,20.91472 -19.7459,11.0277 -50.93565,20.5615 -72.78304,22.2477 -7.24866,0.5594 -22.01922,0.6653 -26.24874,0.1882 z m 4.03832,-68.46295 c -0.11359,-0.18379 -0.35687,-0.24122 -0.54067,-0.12764 -0.18379,0.11359 -0.24123,0.35689 -0.12763,0.54068 0.11359,0.18378 0.35687,0.24122 0.54067,0.12763 0.18379,-0.11358 0.24122,-0.35689 0.12763,-0.54067 z m 4.16151,-12.13718 c 2.37807,-0.30224 5.19691,-0.71294 6.26406,-0.91268 3.6582,-0.68471 12.87625,-2.89532 13.40556,-3.21483 0.4017,-0.24248 0.35919,-0.27451 -0.17639,-0.13296 -6.03494,1.5949 -14.57837,2.94759 -16.09062,2.54763 -0.46348,-0.12258 -1.47772,-0.77898 -2.25383,-1.45866 l -1.41111,-1.23579 0.94068,-0.84267 c 0.51739,-0.46347 1.70801,-1.01583 2.64584,-1.22747 14.81645,-3.34358 21.49118,-5.15517 22.88914,-6.21235 0.99077,-0.74927 0.43091,-0.67157 -3.72223,0.51658 -8.91918,2.55164 -17.98454,4.0971 -19.46501,3.31839 -1.77567,-0.934 -3.57897,-4.62413 -2.63155,-5.38507 0.22081,-0.17734 0.95709,-0.42693 1.63619,-0.55463 0.67909,-0.1277 2.58409,-0.53446 4.23333,-0.9039 1.64924,-0.36945 4.90361,-1.09701 7.23195,-1.61678 9.0201,-2.01366 19.94242,-5.96256 27.90609,-10.08929 2.05931,-1.06711 2.35434,-0.69251 1.43747,1.825 -0.62583,1.71829 -0.68884,2.23324 -0.34132,2.78966 0.23439,0.37532 0.70775,2.0504 1.05192,3.7224 0.78531,3.81519 0.53611,4.37066 -2.82766,6.30302 -1.31657,0.75631 -2.31831,1.45054 -2.22613,1.54272 0.25488,0.2549 6.16729,-2.90972 8.11823,-4.34529 l 1.72137,-1.26665 -0.187,-2.06242 c -0.30117,-3.32125 -2.148,-12.6811 -2.50219,-12.6811 -0.1785,0 -1.2942,0.60623 -2.47932,1.34717 -7.01837,4.38787 -14.61893,7.64093 -24,10.27203 -4.40288,1.23487 -4.78952,1.2794 -4.78952,0.55164 0,-0.29104 -0.23813,-0.52917 -0.52917,-0.52917 -0.29104,0 -0.52916,0.3068 -0.52916,0.68178 0,0.37498 -0.27782,0.76456 -0.61736,0.86573 -1.5965,0.47566 -8.94701,1.687 -14.19931,2.34 -6.92086,0.86045 -7.01033,0.88363 -7.21025,1.86864 -0.27125,1.33621 -0.49205,13.52528 -0.25146,13.88044 0.26155,0.3861 3.53078,1.13615 4.19626,0.96273 0.2413,-0.0629 2.38442,-0.36161 4.7625,-0.66385 z m 29.3685,-7.23143 c 0.12361,-0.19998 -0.018,-0.25911 -0.33196,-0.13864 -0.61116,0.23452 -0.72295,0.48738 -0.21552,0.48738 0.18257,0 0.42895,-0.15693 0.54748,-0.34874 z m -1.585,-12.35126 c 0,-0.19403 -0.23812,-0.35278 -0.52916,-0.35278 -0.29104,0 -0.52917,0.15875 -0.52917,0.35278 0,0.19403 0.23813,0.35278 0.52917,0.35278 0.29104,0 0.52916,-0.15875 0.52916,-0.35278 z M 186.10029,932.35509 c 0.0882,-0.26458 -0.0441,-0.39687 -0.30868,-0.30868 -0.25466,0.0849 -0.53247,0.36271 -0.61736,0.61736 -0.0882,0.26459 0.0441,0.39688 0.30868,0.30869 0.25466,-0.0849 0.53247,-0.36271 0.61736,-0.61737 z m 1.65365,-0.70303 c 0,-0.27222 -0.15875,-0.54528 -0.35278,-0.6068 -0.57878,-0.18352 -1.34491,0.47131 -1.07064,0.9151 0.34024,0.55051 1.42342,0.31591 1.42342,-0.3083 z m 6.87917,-1.78846 c 0,-0.19403 -0.16812,-0.35278 -0.3736,-0.35278 -0.20548,0 -0.27549,0.15875 -0.15557,0.35278 0.11992,0.19403 0.28804,0.35278 0.3736,0.35278 0.0856,0 0.15557,-0.15875 0.15557,-0.35278 z m 128.94023,-0.70555 c -0.1199,-0.19403 -0.3767,-0.35278 -0.5708,-0.35278 -0.194,0 -0.2546,0.15875 -0.1347,0.35278 0.1199,0.19402 0.3767,0.35277 0.5708,0.35277 0.194,0 0.2546,-0.15875 0.1347,-0.35277 z M 177.50476,916.42791 c -0.11358,-0.18378 -0.35689,-0.24122 -0.54067,-0.12763 -0.18379,0.11358 -0.24123,0.35689 -0.12764,0.54067 0.11359,0.18379 0.35689,0.24123 0.54068,0.12764 0.18378,-0.11358 0.24122,-0.35689 0.12763,-0.54068 z m 0.46207,-2.64263 c -0.3472,-0.34719 -0.97261,0.18581 -0.97261,0.8289 0,0.53851 0.0464,0.53754 0.59636,-0.0124 0.328,-0.328 0.49731,-0.69541 0.37625,-0.81648 z m -6.26428,-2.42169 c 0,-0.0856 -0.15875,-0.25368 -0.35278,-0.3736 -0.19402,-0.11992 -0.35277,-0.0499 -0.35277,0.15557 0,0.20548 0.15875,0.3736 0.35277,0.3736 0.19403,0 0.35278,-0.07 0.35278,-0.15557 z m 14.81667,10.54169 c 0,-0.30249 0.15875,-0.45187 0.35278,-0.33196 0.19402,0.11992 0.35277,0.36741 0.35277,0.54999 0,0.18258 -0.15875,0.33196 -0.35277,0.33196 -0.19403,0 -0.35278,-0.2475 -0.35278,-0.54999 z"
       style="fill:#341a0f;stroke-width:0.35277778" />
    <path
       inkscape:connector-curvature="0"
       id="path4502"
       d="m 263.07199,1043.0992 c -3.10194,-0.3499 -16.226,-3.3414 -26.9875,-6.1516 -15.39738,-4.0207 -35.7735,-7.753 -48.15416,-8.8204 -3.58952,-0.3094 -9.86014,-0.9743 -13.93472,-1.4775 -7.19661,-0.8887 -7.56965,-0.975 -13.05278,-3.0219 -8.35869,-3.1202 -16.81806,-7.6215 -22.80551,-12.1348 -15.73479,-11.86102 -25.76086,-24.71832 -30.09264,-38.59051 -0.33323,-1.06715 -0.76985,-2.41653 -0.97026,-2.99861 -0.20041,-0.58208 -0.48456,-1.77271 -0.63145,-2.64583 -0.14689,-0.87313 -0.43872,-2.06375 -0.6485,-2.64584 -0.62218,-1.72635 -1.04075,-7.72365 -0.96023,-13.75833 0.0684,-5.12895 0.16124,-5.87995 1.01626,-8.22311 0.51752,-1.41827 0.94094,-2.94491 0.94094,-3.39254 0,-1.84557 2.91089,-7.56891 5.27626,-10.3741 0.78459,-0.93047 1.42652,-1.93306 1.42652,-2.22798 0,-0.73583 3.23568,-3.74135 4.32116,-4.01379 0.48509,-0.12175 1.05961,-0.61123 1.27672,-1.08772 0.22797,-0.50034 1.05105,-1.14769 1.94822,-1.53226 0.85441,-0.36624 2.00638,-1.06741 2.55994,-1.55816 0.55355,-0.49074 1.55778,-1.37651 2.23161,-1.96838 0.67383,-0.59187 1.58664,-1.07613 2.02847,-1.07613 0.44183,0 0.80332,-0.15316 0.80332,-0.34036 0,-0.56126 1.41171,-1.14133 2.77676,-1.14096 0.7041,1.9e-4 1.38891,-0.17502 1.5218,-0.38935 0.13289,-0.21433 1.04409,-0.40418 2.02489,-0.4219 1.32537,-0.024 1.91027,-0.2059 2.27785,-0.70859 0.4074,-0.55715 0.58904,-0.59797 1.03051,-0.23158 0.36182,0.30028 0.61021,0.3246 0.76455,0.0749 0.12574,-0.20345 0.51731,-0.36991 0.87016,-0.36991 0.35284,0 0.84456,-0.24463 1.0927,-0.54362 0.28749,-0.3464 1.03906,-0.5424 2.07167,-0.54027 0.89128,0.002 2.17613,-0.0124 2.85522,-0.0316 0.6791,-0.0192 1.98879,0.0628 2.91042,0.1824 1.07175,0.13903 1.6757,0.0841 1.6757,-0.15249 0,-0.20342 0.27781,-0.3416 0.61736,-0.30706 0.33954,0.0345 1.13329,0.0445 1.76389,0.0222 0.98587,-0.0349 1.14652,-0.16778 1.14652,-0.94817 v -0.90755 l 0.92952,0.73116 c 0.51124,0.40214 1.28555,0.73116 1.72069,0.73116 0.43515,0 0.98142,0.22923 1.21394,0.5094 0.44123,0.53165 0.54442,0.50907 3.47253,-0.75976 0.68891,-0.29852 1.58454,-0.41142 2.19693,-0.27691 1.28946,0.28321 2.46084,-0.0649 2.46084,-0.73122 0,-0.32976 0.37926,-0.5054 1.09136,-0.5054 0.80467,0 1.14119,0.19058 1.28108,0.72551 0.13294,0.50837 0.36062,0.65181 0.76072,0.47928 1.2452,-0.53697 2.51878,-0.54716 3.55851,-0.0285 0.92356,0.46074 1.259,0.47382 2.18331,0.0852 0.60588,-0.25476 1.756,-0.38436 2.58329,-0.29112 0.82016,0.0925 1.83194,-0.0143 2.2484,-0.23717 0.9919,-0.53084 0.95647,-0.17909 -0.12473,1.23844 -1.06754,1.39962 -1.09552,1.7698 -0.17115,2.2645 0.55931,0.29934 0.7553,0.26439 0.91969,-0.16398 0.11489,-0.2994 0.54909,-0.54195 0.9649,-0.53898 0.56499,0.004 0.63372,0.0829 0.27204,0.31198 -0.26619,0.16862 -0.42148,0.49405 -0.34511,0.72318 0.0916,0.27492 0.42542,0.16807 0.9815,-0.31422 1.02871,-0.8922 1.36445,-0.68206 0.65375,0.40918 -0.28827,0.44262 -0.72788,1.67789 -0.97691,2.74504 -0.24904,1.06715 -0.73695,3.01227 -1.08426,4.32249 -0.5712,2.1549 -0.58565,2.66521 -0.15133,5.3482 0.74587,4.60751 1.11181,5.6199 3.29506,9.11564 4.15686,6.65584 13.11147,13.97388 22.71906,18.56685 6.92537,3.31072 8.18229,3.79931 15.43248,5.99888 5.2622,1.59646 8.5376,2.34794 13.93472,3.19708 6.42668,1.01112 7.84166,1.11398 15.875,1.15402 13.70496,0.0683 18.13222,-0.24071 27.16174,-1.89592 8.69989,-1.59478 18.08579,-4.28733 25.20036,-7.22926 4.47538,-1.85061 11.59422,-5.5631 13.60735,-7.09626 2.2595,-1.72078 2.33157,-2.45795 0.89796,-9.18163 -1.14064,-5.34952 -1.31467,-7.29326 -0.68771,-7.68074 0.75868,-0.46891 1.32916,0.80101 2.78264,6.19454 0.81044,3.00743 1.62971,5.6268 1.82051,5.82083 0.2298,0.23365 0.7752,-0.12374 1.615,-1.05833 0.6973,-0.77611 1.9304,-2.12549 2.7401,-2.99861 0.8097,-0.87313 1.6777,-1.9716 1.9289,-2.44106 0.7448,-1.39196 2.191,-5.74689 2.3816,-7.17214 0.097,-0.7276 0.3006,-1.32291 0.4517,-1.32291 0.4286,0 0.6791,1.8672 0.3364,2.50749 -0.4056,0.75793 0,1.12643 0.6435,0.58957 0.4079,-0.33852 0.602,-0.30089 0.9578,0.18558 0.2486,0.33999 0.6845,0.5187 0.9844,0.4036 0.2961,-0.11361 0.6431,-0.037 0.7712,0.17026 0.1281,0.20726 0.6118,0.37683 1.0748,0.37683 0.5703,0 0.9922,0.31298 1.3078,0.97014 0.3739,0.77847 0.7088,0.97273 1.6954,0.98327 0.6762,0.007 1.4288,0.13635 1.6725,0.28695 0.2695,0.16659 0.5262,0.057 0.6555,-0.27988 0.1778,-0.46348 0.4465,-0.38151 1.6494,0.50312 1.2867,0.94622 1.4978,1.00182 2.0177,0.53133 0.758,-0.68597 2.1126,-0.6836 2.1126,0.004 0,0.29104 0.2381,0.52916 0.5292,0.52916 0.6407,0 0.7024,-0.57684 0.088,-0.82469 -0.2426,-0.0979 -0.093,-0.19047 0.3319,-0.20579 0.4251,-0.0153 0.8626,0.11708 0.972,0.29423 0.3219,0.52087 2.9038,0.82201 3.6452,0.42517 0.56,-0.29965 0.7627,-0.21061 1.1444,0.50262 0.4947,0.92441 1.2511,1.1461 1.4878,0.43607 0.1084,-0.32527 0.5037,-0.28928 1.6143,0.14697 0.9817,0.38563 1.5464,0.45513 1.6985,0.20904 0.1423,-0.23032 0.3454,-0.15859 0.5411,0.19115 0.1723,0.3079 0.5312,0.47621 0.7975,0.37403 0.2662,-0.10218 0.5889,-0.0162 0.717,0.19104 0.3419,0.55326 0.8968,0.459 0.8968,-0.15234 0,-0.73971 0.6011,-0.65918 1.3166,0.17639 0.3323,0.38806 0.8863,0.70556 1.2312,0.70556 0.345,0 0.6272,0.23812 0.6272,0.52916 0,0.59545 0.9326,0.72999 1.122,0.16185 0.1299,-0.38966 2.2244,0.49399 2.596,1.09521 0.1123,0.18175 0.6517,0.33044 1.1985,0.33044 0.5469,0 1.192,0.23813 1.4335,0.52917 0.2416,0.29104 0.6801,0.52917 0.9745,0.52917 0.2943,0 0.7351,0.27333 0.9794,0.6074 0.2929,0.4006 0.9668,0.6201 1.9792,0.64469 0.8528,0.0207 2.4528,0.46163 3.6003,0.99217 1.1359,0.52519 2.3265,0.87517 2.6458,0.77773 0.3454,-0.10539 1.1341,0.32014 1.9472,1.05052 0.7517,0.67522 1.7831,1.3322 2.2922,1.45996 0.509,0.12776 1.4815,0.75946 2.1611,1.40379 0.6796,0.64433 1.3839,1.17288 1.5652,1.17457 0.581,0.005 3.3027,1.43166 3.742,1.96098 0.2335,0.28134 0.6186,0.51152 0.8558,0.51152 0.6754,0 1.6576,1.27325 1.5342,1.98866 -0.085,0.49305 0.1181,0.65179 0.8553,0.66826 1.0086,0.0226 2.0012,0.99063 2.0205,1.97051 0.01,0.31376 0.6615,1.00082 1.4563,1.52678 1.0768,0.71261 1.3993,1.1311 1.2656,1.64226 -0.2255,0.86239 0.6107,2.5733 1.6617,3.40001 0.6615,0.52032 0.7846,0.91792 0.7047,2.27472 -0.082,1.39752 0.028,1.72622 0.7375,2.19091 0.6917,0.45322 0.8414,0.86509 0.8751,2.40828 0.022,1.02386 0.057,2.3378 0.078,2.91989 0.073,2.08949 -0.3547,4.49603 -1.1287,6.35 -2.2129,5.30084 -3.5325,7.79916 -6.2424,11.81806 -2.5292,3.7509 -4.1736,5.7066 -7.742,9.2073 -8.9485,8.77882 -16.011,13.97222 -28.442,20.91462 -19.7458,11.0277 -50.93559,20.5615 -72.78298,22.2477 -7.24867,0.5594 -22.01922,0.6654 -26.24875,0.1882 z m 4.03832,-68.46295 c -0.11359,-0.18379 -0.35687,-0.24122 -0.54067,-0.12764 -0.18379,0.11359 -0.24123,0.35689 -0.12763,0.54068 0.11359,0.18378 0.35687,0.24122 0.54067,0.12763 0.18379,-0.11358 0.24122,-0.35689 0.12763,-0.54067 z m -89.60555,-58.20834 c -0.11358,-0.18378 -0.35689,-0.24122 -0.54067,-0.12763 -0.18379,0.11358 -0.24123,0.35689 -0.12764,0.54067 0.11359,0.18379 0.35689,0.24123 0.54068,0.12764 0.18378,-0.11358 0.24122,-0.35689 0.12763,-0.54068 z m 0.46207,-2.64263 c -0.3472,-0.34719 -0.97261,0.18581 -0.97261,0.8289 0,0.53851 0.0464,0.53754 0.59636,-0.0124 0.328,-0.328 0.49731,-0.69541 0.37625,-0.81648 z m -6.26428,-2.42169 c 0,-0.0856 -0.15875,-0.25368 -0.35278,-0.3736 -0.19402,-0.11992 -0.35277,-0.0499 -0.35277,0.15557 0,0.20548 0.15875,0.3736 0.35277,0.3736 0.19403,0 0.35278,-0.07 0.35278,-0.15557 z m 100.38284,46.75067 c -0.45815,-0.7413 2.27316,-2.26849 2.90929,-1.62668 0.28632,0.28889 -1.66006,1.94665 -2.28868,1.94927 -0.23107,10e-4 -0.51036,-0.1442 -0.62061,-0.32259 z m 26.01655,-8.28206 c 1.66585,-1.272 2.3645,-1.37833 2.3645,-0.35988 0,0.54888 -0.81079,0.9464 -2.82223,1.38373 l -1.23472,0.26846 z m -26.2105,-0.52468 c 0,-1.08424 0.62508,-1.43784 2.55866,-1.44744 l 0.97116,-0.005 -1.3667,1.23472 c -1.66123,1.50082 -2.16312,1.55129 -2.16312,0.21753 z m 5.30909,-1.96331 c 1.48791,-0.5482 4.48984,-1.08285 4.16419,-0.74166 -0.31595,0.33105 -3.84944,1.24891 -4.71078,1.22367 -0.45498,-0.0133 -0.26088,-0.18451 0.54659,-0.48201 z m -30.88548,-1.9862 c -11.15313,-0.70401 -24.39565,-4.30717 -34.55179,-9.4012 -7.50385,-3.76372 -16.33152,-10.98153 -18.43299,-15.07147 -0.49351,-0.96047 -1.26246,-2.30984 -1.70877,-2.99861 -1.21474,-1.87459 -2.03846,-6.48484 -1.61861,-9.05907 0.18578,-1.13905 0.51271,-2.52548 0.72651,-3.08094 0.6807,-1.76851 3.98512,-6.24599 4.99501,-6.76822 1.12117,-0.57979 1.20757,-1.15867 -0.71311,4.7779 -1.11399,3.44321 -1.36359,5.29331 -0.71413,5.29331 0.70934,0 1.93096,-1.70545 2.94183,-4.10698 1.16947,-2.77828 1.68436,-3.89421 2.25572,-4.88885 0.22292,-0.38806 0.73234,-1.45962 1.13205,-2.38125 0.39971,-0.92163 0.88153,-1.6757 1.07071,-1.6757 0.18918,0 0.34396,-0.5441 0.34396,-1.20911 0,-0.87221 0.24779,-1.40403 0.8893,-1.90864 0.48962,-0.38514 1.11357,-1.44475 1.38832,-2.35768 0.27447,-0.912 0.82679,-1.88773 1.22737,-2.16831 0.40059,-0.28059 0.72834,-0.85841 0.72834,-1.28406 0,-0.42564 0.66061,-1.4882 1.46803,-2.36124 1.99086,-2.15267 3.11808,-3.83996 3.11808,-4.6673 0,-0.37864 0.52486,-1.30161 1.16634,-2.05104 0.64148,-0.74943 1.33386,-1.72717 1.5386,-2.17275 1.07254,-2.33413 1.5545,-3.3301 1.84306,-3.80875 0.17546,-0.29105 0.59743,-1.20386 0.9377,-2.02848 0.34028,-0.82461 0.8327,-1.4993 1.09427,-1.4993 0.26157,0 0.47559,-0.24371 0.47559,-0.54158 0,-0.29787 0.25638,-0.93287 0.56974,-1.41111 0.31336,-0.47824 0.46313,-0.86953 0.33283,-0.86953 -0.1303,0 -0.002,-0.43657 0.28412,-0.97014 1.16878,-2.17625 1.73904,-4.56446 1.74791,-7.32014 0.008,-2.5781 -0.10735,-6.80709 -0.64021,-23.4113 -0.10188,-3.17482 -0.29514,-5.95022 -0.42946,-6.16756 -0.38164,-0.6175 -0.12485,-5.40706 0.45685,-8.52114 1.6703,-8.94174 1.23075,-21.19703 -1.27236,-35.47541 -0.18913,-1.07883 -0.34265,-2.34883 -0.34117,-2.82222 0.001,-0.47339 -0.38538,-2.44821 -0.85971,-4.38848 -0.47432,-1.94028 -1.11511,-4.78343 -1.42398,-6.31812 -0.30886,-1.53469 -0.77813,-3.28094 -1.0428,-3.88056 -0.26468,-0.59961 -0.92358,-2.51896 -1.46423,-4.26521 -0.54065,-1.74625 -1.43077,-4.17117 -1.97804,-5.3887 -0.54728,-1.21753 -0.99505,-2.35185 -0.99505,-2.5207 0,-0.3635 -1.77596,-4.68738 -3.0544,-7.43644 -0.49627,-1.06715 -1.25424,-2.73402 -1.68439,-3.70416 -0.43014,-0.97014 -1.19724,-2.63702 -1.70466,-3.70417 -0.50743,-1.06715 -1.28359,-2.97215 -1.72481,-4.23333 -0.44122,-1.26118 -1.16511,-2.83115 -1.60864,-3.48882 -0.44354,-0.65766 -0.80643,-1.47976 -0.80643,-1.82688 0,-0.34712 -0.21754,-0.84867 -0.48342,-1.11455 -0.66714,-0.66713 -1.63325,-2.59174 -1.63325,-3.25362 0,-0.30068 -0.14805,-0.54669 -0.329,-0.54669 -0.18095,0 -0.42532,-0.30347 -0.54305,-0.67437 -0.28351,-0.89327 -2.96906,-4.94789 -4.00286,-6.04349 -0.44988,-0.47677 -0.90628,-1.30342 -1.01423,-1.837 -0.10795,-0.53358 -0.33911,-0.97014 -0.51368,-0.97014 -0.17458,0 -0.45692,-0.35719 -0.62743,-0.79375 -0.1705,-0.43656 -1.35757,-1.98437 -2.63793,-3.43958 -2.99628,-3.40546 -3.43197,-3.94725 -5.39017,-6.70278 -0.89625,-1.26118 -1.84352,-2.42001 -2.10504,-2.57517 -0.26152,-0.15516 -0.47549,-0.42272 -0.47549,-0.59458 0,-0.17186 -1.11275,-1.47366 -2.47277,-2.89289 -2.75866,-2.87876 -3.75932,-4.62028 -4.10535,-7.14482 l -0.23414,-1.70827 1.36922,0.25687 c 2.19431,0.41166 6.8534,1.94492 9.1472,3.01027 1.16417,0.54069 2.70977,1.1719 3.43467,1.40268 0.7249,0.23078 1.40896,0.56678 1.52013,0.74665 0.11116,0.17987 0.47056,0.3306 0.79866,0.33494 0.3281,0.004 1.54904,0.47704 2.71321,1.05043 1.16416,0.57339 2.25955,1.04608 2.4342,1.05043 0.17464,0.004 1.12714,0.38905 2.11666,0.8549 0.98953,0.46584 3.86289,1.71665 6.38525,2.77957 9.84542,4.14886 11.74986,4.99918 14.81667,6.61552 8.22259,4.33368 12.38459,7.3951 18.55175,13.646 6.52612,6.61474 10.36386,10.44774 15.60787,15.58857 4.01509,3.93608 5.46085,5.55577 10.10735,11.32335 1.17235,1.4552 2.94146,3.64827 3.93136,4.87348 1.68529,2.08589 2.34177,3.14615 4.40898,7.12096 1.32013,2.53829 2.95518,6.73166 2.95518,7.57904 0,0.42857 0.22423,1.24018 0.49823,1.80356 0.49347,1.01449 1.55554,8.91838 2.34192,17.42851 0.54701,5.91974 1.35279,9.68019 3.515,16.40417 0.99826,3.10444 1.96536,6.27944 2.14906,7.05555 1.00545,4.24752 4.50447,13.67484 6.48133,17.4625 4.41957,8.46775 6.34387,11.57517 9.06611,14.64028 5.13722,5.7842 9.62762,14.06894 10.89896,20.10833 0.24508,1.16417 0.55976,2.27542 0.69928,2.46945 0.31475,0.4377 0.86949,3.33925 0.77565,4.05694 -0.0381,0.29104 0.0905,0.93242 0.28561,1.42529 0.19512,0.49286 0.41797,2.08036 0.49516,3.52777 0.17646,3.3087 0.44002,6.38918 0.72803,8.50993 0.13289,0.97849 0.0637,1.94326 -0.17064,2.38125 -0.27422,0.51236 -0.28399,0.94201 -0.0321,1.41259 0.19903,0.37194 0.44203,2.31663 0.53996,4.32152 0.27912,5.71472 0.43448,7.20977 0.825,7.93948 0.19992,0.37358 0.47505,1.70333 0.6114,2.95501 0.13635,1.25167 0.35931,2.43452 0.49551,2.62855 0.13618,0.19403 0.46278,1.30528 0.72577,2.46945 0.263,1.16416 0.8453,2.70882 1.29392,3.43257 0.44867,0.72375 0.81577,1.52238 0.81577,1.77474 0,0.48693 1.93911,1.37903 2.27263,1.04553 0.38445,-0.38446 0.18753,-2.42083 -0.46892,-4.84882 -0.36614,-1.3543 -0.77628,-3.09736 -0.91136,-3.87347 l -0.24564,-1.41111 1.11488,1.05833 c 0.6132,0.58209 1.81035,2.33213 2.66037,3.889 1.33225,2.44016 1.57815,3.22255 1.78235,5.6714 0.1871,2.2433 0.1179,3.09473 -0.329,4.0485 -0.3113,0.66427 -0.8034,1.88925 -1.09362,2.72218 -0.29027,0.83292 -1.50513,2.71057 -2.69978,4.17256 -5.03689,6.16412 -13.93161,11.30324 -26.7015,15.42735 -14.6033,4.71621 -29.77758,6.52367 -46.11236,5.49259 z m 40.67968,-0.21317 c 0.25468,-0.10191 0.55895,-0.0894 0.67617,0.0278 0.11723,0.11723 -0.0912,0.20061 -0.46302,0.18529 -0.41098,-0.0169 -0.49456,-0.10052 -0.21315,-0.21314 z m 8.00365,-2.22846 c 0.97014,-0.35798 2.00201,-0.65087 2.29306,-0.65087 0.29104,0 -0.26459,0.29289 -1.23473,0.65087 -0.97014,0.35798 -2.00201,0.65087 -2.29305,0.65087 -0.29104,0 0.26458,-0.29289 1.23472,-0.65087 z m 5.08699,-1.78855 c 1.05159,-0.37326 1.971,-0.61966 2.04311,-0.54755 0.20606,0.20605 -2.66506,1.2807 -3.34486,1.25199 -0.33564,-0.0142 0.25015,-0.33118 1.30175,-0.70444 z m 3.0366,-1.13462 c 0.38273,-0.24954 2.36273,-1.21233 4.40002,-2.13953 2.03729,-0.9272 4.29126,-1.99302 5.00877,-2.3685 0.71755,-0.37548 1.39224,-0.68269 1.49931,-0.68269 0.40333,0 0.17311,1.28494 -0.36883,2.05866 -0.44669,0.63772 -0.77304,0.75851 -1.57409,0.58257 -0.73995,-0.16252 -2.10231,0.20987 -5.08748,1.39063 -4.25457,1.68285 -5.04243,1.9183 -3.8777,1.15886 z"
       style="fill:#151414;stroke-width:0.35277778" />
    <path
       inkscape:connector-curvature="0"
       id="path4500"
       d="m 268.71644,1043.1086 c -6.54682,-0.1986 -7.2371,-0.2895 -14.2875,-1.8819 -4.07459,-0.9202 -11.64899,-2.7788 -16.83201,-4.1302 -16.82745,-4.3876 -37.44679,-8.1943 -50.54855,-9.3324 -6.38575,-0.5546 -10.91104,-1.1245 -17.10972,-2.1544 -3.08086,-0.5119 -5.56276,-1.3804 -12.95558,-4.5336 -1.75749,-0.7496 -9.95767,-5.387 -10.32775,-5.8405 -0.097,-0.1189 -0.69554,-0.4262 -1.33006,-0.6829 -0.63452,-0.2567 -1.53708,-0.9224 -2.0057,-1.4793 -0.46861,-0.5569 -1.08959,-1.0126 -1.37994,-1.0126 -0.29036,0 -0.88601,-0.5159 -1.32366,-1.1465 -0.43765,-0.6306 -1.2819,-1.5975 -1.87611,-2.1487 -0.5942,-0.5513 -1.04359,-1.1379 -0.99864,-1.3035 0.045,-0.1657 -0.37204,-0.6244 -0.92665,-1.0193 -0.5546,-0.395 -1.27351,-1.2768 -1.59758,-1.9597 -0.32406,-0.683 -0.73838,-1.2417 -0.9207,-1.2417 -0.18232,0 -0.58947,-0.5953 -0.90477,-1.3229 -0.3153,-0.7276 -0.64816,-1.1245 -0.73969,-0.882 -0.23788,0.6304 -1.51872,0.5467 -1.51872,-0.099 0,-0.2972 0.21419,-0.6225 0.47597,-0.7229 0.74973,-0.28772 0.63609,-2.33842 -0.17759,-3.20452 -0.47333,-0.5038 -0.64034,-1.0079 -0.49043,-1.4803 0.20775,-0.6545 0.11471,-0.698 -1.07988,-0.5041 -0.96684,0.1569 -1.23909,0.1019 -1.04561,-0.2112 0.14389,-0.2328 0.10748,-0.6147 -0.0809,-0.8488 -0.57526,-0.7146 0.12089,-1.989 0.96583,-1.7681 0.56512,0.1478 0.72706,0.024 0.72706,-0.5565 0,-0.4286 -0.22546,-0.7467 -0.52916,-0.7467 -0.29105,0 -0.52917,-0.1651 -0.52917,-0.367 0,-0.2018 -0.67469,-1.0071 -1.49931,-1.7896 l -1.4993,-1.4227 1.19445,0.2407 c 1.13795,0.2293 1.18402,0.1992 0.97409,-0.6373 -0.14652,-0.5838 -0.003,-1.1581 0.42857,-1.71422 0.3569,-0.45996 0.57696,-1.04392 0.48901,-1.29768 -0.088,-0.25376 0.1191,-0.7697 0.46013,-1.14652 0.59238,-0.65458 0.5913,-0.68515 -0.0242,-0.68515 -0.35434,0 -0.93457,0.26273 -1.2894,0.58385 -0.61185,0.5537 -0.64515,0.5273 -0.64515,-0.51164 0,-0.67149 0.2361,-1.22761 0.61002,-1.43687 0.57322,-0.32079 0.57003,-0.38556 -0.0528,-1.07375 -0.66088,-0.73026 -0.65883,-0.73209 0.7129,-0.63737 0.75662,0.0522 1.59187,0.23039 1.85609,0.39586 0.30332,0.18996 0.59393,0.12165 0.78835,-0.1853 0.51584,-0.81441 0.36014,-1.03917 -0.55992,-0.80825 -0.63005,0.15814 -0.94131,0.0573 -1.10011,-0.35657 -0.13903,-0.36232 -0.45743,-0.5022 -0.85554,-0.37584 -0.97191,0.30847 -1.21174,-0.50277 -0.37821,-1.27932 0.74028,-0.68968 0.74308,-0.68935 0.74308,0.0885 v 0.78079 l 0.79375,-0.72207 c 0.87268,-0.79387 2.63998,-1.2496 2.94321,-0.75896 0.10579,0.17117 0.34783,0.21512 0.53788,0.0977 0.58302,-0.36033 -0.37547,-1.17681 -1.84649,-1.57292 -0.75351,-0.20289 -1.37002,-0.51851 -1.37002,-0.70136 0,-0.45238 1.57922,-0.81623 2.65235,-0.61109 0.56958,0.10888 0.87543,0.007 0.87543,-0.29208 0,-0.86344 0.7245,-0.9086 1.39592,-0.087 0.53804,0.65838 0.75932,0.73346 1.11904,0.37968 0.2466,-0.24253 0.73004,-0.44097 1.07431,-0.44097 0.68951,0 1.70239,-1.66873 1.70239,-2.8047 0,-0.39769 0.14389,-0.72308 0.31976,-0.72308 0.17586,0 0.23201,-0.33551 0.12477,-0.74559 -0.17665,-0.67552 -0.12108,-0.70604 0.59133,-0.32477 0.71013,0.38005 0.73035,0.46172 0.2088,0.84309 -0.36906,0.26986 -0.48913,0.65258 -0.33265,1.06035 0.19549,0.50943 0.4843,0.59316 1.43253,0.41526 1.08359,-0.20328 1.25238,-0.11316 1.92586,1.02832 0.7563,1.28183 1.16653,1.51952 1.55044,0.89834 0.38812,-0.628 1.64464,-0.38683 1.83806,0.35278 0.10148,0.38806 0.32474,0.70556 0.49614,0.70556 0.17139,0 0.62913,0.3175 1.01719,0.70555 l 0.70555,0.70556 v -0.82315 c 0,-0.45273 0.10446,-0.9276 0.23213,-1.05527 0.41037,-0.41037 1.17898,0.52557 1.17898,1.43564 0,0.70592 0.0963,0.80205 0.48236,0.48162 0.36612,-0.30385 0.58535,-0.27623 0.90974,0.11463 0.72021,0.8678 3.51188,1.78644 3.9865,1.31182 0.6646,-0.66459 1.24661,-0.47075 1.89813,0.63219 0.33761,0.57153 0.73616,0.96355 0.88567,0.87115 0.1495,-0.0924 0.676,-0.0666 1.16999,0.0574 0.64288,0.16135 0.89817,0.46052 0.89817,1.05253 0,0.90465 0.68436,2.62419 1.0444,2.62419 0.12408,0 0.37641,-0.14172 0.56074,-0.31494 0.4867,-0.45738 2.62819,-0.0414 2.62819,0.51054 0,0.82545 0.65875,0.90953 1.39076,0.17753 l 0.71094,-0.71095 1.24168,0.73261 c 1.45098,0.8561 1.2906,1.52048 -0.29697,1.23022 -0.60837,-0.11123 -1.32152,-0.066 -1.58477,0.10061 -0.78592,0.49728 0.16851,0.84461 2.32091,0.84461 1.67772,0 1.97126,0.10605 2.30182,0.83155 0.20839,0.45736 0.6709,0.83155 1.02781,0.83155 0.35691,0 0.64893,0.2212 0.64893,0.4914 0,0.5234 0.73595,0.9197 1.70788,0.9197 0.32552,0 0.81201,0.3526 1.0811,0.7834 l 0.48924,0.7834 0.2898,-0.7834 c 0.3837,-1.0372 0.95609,-0.9924 1.37431,0.1076 0.40456,1.0641 1.36081,1.5195 1.77687,0.8463 0.1639,-0.2652 0.40862,-0.3715 0.54384,-0.2363 0.13521,0.1352 0.0508,0.4809 -0.18758,0.7681 -0.44389,0.5349 -0.24049,1.2587 0.3537,1.2587 0.18257,0 0.33195,-0.2381 0.33195,-0.5292 0,-0.7752 0.59277,-0.6458 0.80778,0.1764 0.11039,0.4222 0.48119,0.7056 0.92308,0.7056 0.40622,0 1.05609,0.3175 1.44414,0.7055 0.56721,0.5672 1.17593,0.7056 3.10445,0.7056 1.31939,0 2.57736,0.1785 2.79549,0.3966 0.29075,0.2907 0.69326,0.2932 1.50805,0.01 0.88248,-0.3076 1.27655,-0.2792 1.91291,0.1377 0.73148,0.4793 0.88756,0.4574 1.78726,-0.2503 0.81476,-0.6409 1.43623,-0.7743 3.58188,-0.7693 1.42784,0 2.59607,-0.1263 2.59607,-0.288 0,-0.1618 0.37042,-0.2942 0.82315,-0.2942 0.45273,0 0.92758,-0.1044 1.05521,-0.232 0.12764,-0.1277 1.54316,-0.2876 3.1456,-0.3554 4.676,-0.198 7.32327,-0.5034 7.32327,-0.845 0,-0.1749 0.68542,-0.224 1.52316,-0.1092 1.19333,0.1636 1.66206,0.07 2.16453,-0.4325 0.43688,-0.4369 1.10125,-0.6231 2.08388,-0.5839 1.9906,0.079 4.45898,0.8546 4.45898,1.4004 0,0.2486 0.14938,0.4521 0.33196,0.4521 0.61479,0 0.70737,-0.5969 0.19713,-1.2709 -0.74929,-0.9899 -0.64301,-1.2037 0.48614,-0.9779 0.55839,0.1117 1.36918,0.014 1.80177,-0.2178 0.56881,-0.3045 0.89322,-0.3143 1.17199,-0.035 0.212,0.212 1.18819,0.3854 2.16931,0.3854 0.98112,0 2.33843,0.1614 3.01625,0.3586 1.07708,0.3134 1.31045,0.2637 1.85175,-0.3943 0.50439,-0.6132 0.71636,-0.6724 1.14203,-0.3191 0.28748,0.2386 0.76283,0.3416 1.05635,0.229 0.38836,-0.149 0.53365,0.034 0.53365,0.6742 0,0.8565 0.0225,0.8642 0.88195,0.3011 0.48507,-0.3178 0.88194,-0.8171 0.88194,-1.1096 0,-0.4442 0.0917,-0.4557 0.55606,-0.07 0.45848,0.3805 0.60683,0.3793 0.84546,-0.01 0.20052,-0.3245 0.77748,-0.4133 1.87831,-0.2892 1.41507,0.1595 1.63051,0.088 1.96919,-0.6556 0.46395,-1.0182 1.10098,-1.0929 1.10098,-0.1291 0,0.9045 0.49908,0.8977 1.35256,-0.018 0.63424,-0.6808 0.68899,-0.6862 0.91757,-0.091 0.22091,0.5757 0.30245,0.5548 0.89349,-0.2288 0.5003,-0.6632 0.75985,-0.7715 1.12464,-0.4692 0.26083,0.2161 1.34737,0.367 2.41452,0.3354 1.97605,-0.059 2.99861,-0.6197 2.99861,-1.64515 0,-0.38191 0.30932,-0.49825 1.11143,-0.41806 0.79184,0.0791 1.3215,-0.11436 1.84185,-0.6729 0.60184,-0.64597 0.7663,-0.69044 0.93433,-0.25259 0.15589,0.40624 0.6743,0.50531 2.20091,0.42061 1.48802,-0.0825 2.16323,0.0396 2.64919,0.47944 0.44393,0.40176 0.79879,0.48232 1.11125,0.25228 2.14164,-1.57671 2.32568,-1.65591 2.84543,-1.22454 0.39173,0.3251 0.79301,0.33643 1.62627,0.0459 0.6084,-0.21209 1.28189,-0.27705 1.49659,-0.14436 0.65186,0.40286 3.43055,0.32593 3.78809,-0.10486 0.35578,-0.42868 2.19495,-0.42075 4.16303,0.0179 0.84141,0.18756 1.27483,0.12912 1.47778,-0.19926 0.22878,-0.37019 0.43046,-0.33497 0.99201,0.17324 0.74669,0.67573 1.4549,0.51315 1.4549,-0.33399 0,-0.55713 0.55252,-0.68858 0.85269,-0.20288 0.25503,0.41262 2.0193,0.0479 2.6059,-0.53866 0.61221,-0.61223 1.10081,-0.59968 1.34416,0.0345 0.23608,0.61521 1.19447,0.31975 1.19447,-0.36825 0,-0.63296 0.27266,-0.62192 0.93235,0.0377 0.70909,0.7091 0.92495,0.67404 2.00336,-0.3254 1.23927,-1.14851 2.15536,-1.3997 2.70213,-0.7409 0.57182,0.689 1.41771,0.69375 1.41771,0.008 0,-0.29104 0.23813,-0.52916 0.52917,-0.52916 0.29397,0 0.52917,0.31358 0.52917,0.70555 0,0.89306 0.0538,0.88721 1.62104,-0.17639 1.43362,-0.97287 1.92882,-1.07152 2.5019,-0.49843 0.24511,0.2451 0.4608,0.25847 0.59768,0.037 0.28815,-0.46627 3.02091,0.15794 3.80735,0.86967 0.54251,0.49093 0.74027,0.48234 2.0337,-0.0883 0.78803,-0.34767 1.43277,-0.83034 1.43277,-1.07258 0,-0.78511 0.57411,-0.82583 1.92603,-0.13659 1.30841,0.66708 1.32704,0.66694 1.50442,-0.0114 0.20316,-0.77692 0.63574,-0.88993 1.0209,-0.26671 0.14284,0.23108 0.0728,0.48244 -0.15554,0.55857 -0.68855,0.22951 -0.46856,0.9902 0.42464,1.46823 1.05339,0.56375 2.2002,0.22364 2.44859,-0.72616 0.15177,-0.58033 0.31627,-0.65445 0.82303,-0.37084 0.34834,0.19494 0.63733,0.72502 0.64217,1.17794 0.008,0.75686 0.1373,0.81416 1.59632,0.70816 0.87312,-0.0634 1.74684,-0.31815 1.94161,-0.56602 0.19477,-0.24788 0.70941,-0.56346 1.14371,-0.70128 0.627,-0.19902 0.8716,-0.0706 1.1882,0.62432 0.4439,0.97434 1.2021,1.30092 3.3617,1.44794 0.8039,0.0547 1.8314,0.35852 2.2834,0.67508 1.0629,0.74449 1.9204,0.73014 2.4968,-0.0418 0.2856,-0.38256 0.9306,-0.61736 1.6957,-0.61736 1.0536,0 1.2306,0.11646 1.2067,0.79375 -0.021,0.59587 0.1695,0.79375 0.7644,0.79375 0.4358,0 0.8617,0.19844 0.9466,0.44097 0.2165,0.61892 1.4821,-0.55055 2.0317,-1.87758 0.2353,-0.56806 0.5673,-1.03283 0.7378,-1.03283 0.425,0 0.3914,0.61363 -0.048,0.8855 -0.1972,0.12187 -0.2672,0.36936 -0.1556,0.54999 0.2928,0.47369 1.7087,0.40384 2.2222,-0.10963 0.4326,-0.43262 0.8502,-0.10652 1.2216,0.95396 0.065,0.18675 0.7083,-0.24981 1.4286,-0.97013 1.3089,-1.30886 1.9918,-1.63268 1.9918,-0.9445 0,0.24383 0.2419,0.23569 0.7281,-0.0245 0.5328,-0.28517 0.8555,-0.2839 1.2033,0.005 0.3515,0.29177 0.5413,0.28732 0.7295,-0.0171 0.167,-0.27029 0.7971,-0.33708 1.8361,-0.19467 1.4563,0.19961 1.5672,0.1609 1.3977,-0.48759 -0.1475,-0.56374 -0.01,-0.70441 0.6879,-0.70441 0.4796,0 1.1633,0.15585 1.5192,0.34632 0.4805,0.25718 0.6987,0.21178 0.8477,-0.17639 0.2262,-0.58963 2.175,-0.72126 2.5157,-0.16993 0.4089,0.66157 1.1774,0.38609 0.9842,-0.35277 -0.1429,-0.54639 -0.011,-0.70556 0.5854,-0.70556 0.4234,0 1.0372,-0.13698 1.364,-0.30441 0.3268,-0.16743 1.2573,-0.40556 2.0677,-0.5292 1.2103,-0.18465 1.4937,-0.11905 1.5875,0.36742 0.099,0.5149 0.1831,0.52641 0.6432,0.0882 0.291,-0.27718 1.2435,-0.54599 2.1166,-0.59735 0.8732,-0.0514 2.0454,-0.27787 2.605,-0.50337 0.8438,-0.34001 1.0869,-0.31501 1.4243,0.14646 0.4616,0.63126 2.0771,0.61791 3.2824,-0.0271 0.4305,-0.23042 1.5015,-0.45023 2.38,-0.48846 0.944,-0.0411 1.5972,-0.23819 1.5972,-0.48192 0,-0.22682 0.4366,-0.50018 0.9702,-0.60745 0.5335,-0.10728 1.4103,-0.30326 1.9484,-0.43551 0.7825,-0.19232 1.1499,-0.0554 1.8353,0.68418 1.0231,1.10398 1.7533,1.21106 1.4939,0.21908 -0.3035,-1.1605 0.5825,-0.75423 1.9476,0.89306 0.527,0.63586 0.5397,0.8743 0.1134,2.11441 -0.3387,0.98538 -0.3753,1.59439 -0.1237,2.06436 0.1962,0.36665 0.2556,1.29911 0.132,2.07215 -0.1774,1.10909 -0.092,1.50839 0.4034,1.89319 0.5903,0.4583 0.5696,0.5321 -0.342,1.2228 -1.2057,0.9135 -1.2356,1.3817 -0.088,1.3817 0.6468,0 0.882,0.1881 0.882,0.7055 0,0.4073 -0.2352,0.7056 -0.5562,0.7056 -0.4173,0 -0.5305,0.2986 -0.4533,1.1953 0.057,0.6573 -0.1015,1.4416 -0.3515,1.7428 -0.2499,0.3012 -0.4176,0.8349 -0.3726,1.186 0.099,0.772 -0.2981,2.5203 -0.7692,3.3868 -0.1888,0.3474 -0.2486,0.7851 -0.1327,0.9726 0.1159,0.1875 -0.027,0.4323 -0.3185,0.544 -0.3032,0.11642 -0.4402,0.43532 -0.3207,0.74672 0.1197,0.3118 -0.04,0.683 -0.375,0.8703 -0.321,0.1797 -0.5837,0.5569 -0.5837,0.8383 0,0.2814 -0.3119,0.5116 -0.6931,0.5116 -0.3813,0 -0.8816,0.3572 -1.112,0.7938 -0.2304,0.4366 -0.7916,1.1433 -1.2472,1.5706 -0.4555,0.4273 -0.8282,1.106 -0.8282,1.5082 0,0.5377 -0.2936,0.7899 -1.1095,0.9531 -0.7919,0.1584 -1.2181,0.5096 -1.4888,1.2268 -0.2086,0.5527 -0.6222,1.082 -0.919,1.1764 -0.2968,0.094 -1.1747,0.7858 -1.9508,1.5366 -2.1772,2.1062 -9.6673,7.027 -15.1694,9.9658 -0.7761,0.4145 -1.6739,0.9843 -1.995,1.2661 -1.0248,0.8995 -13.635,6.3887 -20.9614,9.1246 -8.539,3.1887 -18.51383,5.9341 -30.1367,8.2946 -7.24154,1.4707 -10.07314,1.8685 -17.46249,2.4529 -4.8507,0.3836 -9.6132,0.6663 -10.58334,0.6283 -0.97014,-0.038 -4.85951,-0.1631 -8.64305,-0.2778 z m 23.63611,-60.32833 c 0,-0.19403 -0.23813,-0.35278 -0.52917,-0.35278 -0.29104,0 -0.52917,0.15875 -0.52917,0.35278 0,0.19403 0.23813,0.35278 0.52917,0.35278 0.29104,0 0.52917,-0.15875 0.52917,-0.35278 z m 8.11389,-1.03751 c 0,-0.41623 -0.68806,-0.86149 -0.94076,-0.60879 -0.25269,0.2527 0.19258,0.94074 0.60879,0.94074 0.1826,0 0.33197,-0.14938 0.33197,-0.33195 z m 61.2069,-1.02036 c 0,-0.63806 -0.6904,-0.52157 -0.8274,0.13959 -0.076,0.36784 0.056,0.52911 0.3528,0.4302 0.261,-0.087 0.4746,-0.34343 0.4746,-0.56979 z m 1.5214,-0.0367 c 0.088,-0.26458 -0.044,-0.39688 -0.3087,-0.30868 -0.2547,0.0849 -0.5325,0.3627 -0.6173,0.61736 -0.088,0.26458 0.044,0.39688 0.3086,0.30868 0.2547,-0.0849 0.5325,-0.3627 0.6174,-0.61736 z m 3.5939,-0.0221 c 0,-0.19403 -0.1587,-0.35278 -0.3528,-0.35278 -0.194,0 -0.3527,0.15875 -0.3527,0.35278 0,0.19403 0.1587,0.35278 0.3527,0.35278 0.1941,0 0.3528,-0.15875 0.3528,-0.35278 z m -231.53399,-3.59392 c -0.11261,-0.28142 -0.19621,-0.19783 -0.21313,0.21314 -0.0153,0.37188 0.0681,0.58024 0.18528,0.46302 0.11723,-0.11723 0.12976,-0.4215 0.0278,-0.67616 z m 21.98401,0.28028 c 0,-0.0763 -0.23812,-0.23003 -0.52916,-0.34171 -0.29105,-0.11168 -0.52917,-0.0493 -0.52917,0.13864 0,0.18794 0.23812,0.34171 0.52917,0.34171 0.29104,0 0.52916,-0.0624 0.52916,-0.13864 z m -17.63889,-4.09469 c 0.32011,-0.59813 0.26829,-0.70556 -0.34036,-0.70556 -0.48278,0 -0.71797,0.23112 -0.71797,0.70556 0,0.38805 0.15317,0.70555 0.34037,0.70555 0.1872,0 0.51028,-0.3175 0.71796,-0.70555 z m -9.45444,26.03501 c -0.73539,-0.7354 -0.51495,-1.4163 0.37042,-1.1441 1.04272,0.3205 1.09418,0.3825 0.8484,1.023 -0.25078,0.6536 -0.64699,0.6929 -1.21882,0.1211 z m -3.24555,-14.04057 c 0,-0.19403 0.16811,-0.35278 0.37359,-0.35278 0.20548,0 0.27549,0.15875 0.15557,0.35278 -0.11991,0.19403 -0.28803,0.35277 -0.3736,0.35277 -0.0856,0 -0.15556,-0.15874 -0.15556,-0.35277 z m 203.37636,-2.82222 c -0.1199,-0.19403 -0.05,-0.35278 0.1556,-0.35278 0.2054,0 0.3736,0.15875 0.3736,0.35278 0,0.19403 -0.07,0.35278 -0.1556,0.35278 -0.086,0 -0.2537,-0.15875 -0.3736,-0.35278 z m -11.92602,-0.57837 c -0.28187,-0.28185 0.0367,-0.83274 0.48157,-0.83274 0.1826,0 0.33197,0.23812 0.33197,0.52917 0,0.54553 -0.41628,0.70086 -0.81354,0.30357 z m 7.51632,-0.65635 c 0,-0.29104 0.3081,-0.52917 0.6847,-0.52917 0.8873,0 1.2372,0.56946 0.5191,0.84498 -0.8807,0.33796 -1.2038,0.25319 -1.2038,-0.31581 z m 61.7361,-0.17639 c 0,-0.65852 0.094,-0.75259 0.4233,-0.42333 0.3293,0.32925 0.3293,0.5174 0,0.84666 -0.3292,0.32926 -0.4233,0.23519 -0.4233,-0.42333 z m -225.77777,-1.41111 c 0,-0.19403 0.15875,-0.35278 0.35278,-0.35278 0.19403,0 0.35278,0.15875 0.35278,0.35278 0,0.19403 -0.15875,0.35278 -0.35278,0.35278 -0.19403,0 -0.35278,-0.15875 -0.35278,-0.35278 z m -34.74861,-4.58611 c 0.11992,-0.19403 0.28804,-0.35278 0.3736,-0.35278 0.0856,0 0.15557,0.15875 0.15557,0.35278 0,0.19402 -0.16812,0.35277 -0.3736,0.35277 -0.20548,0 -0.27548,-0.15875 -0.15557,-0.35277 z m 28.75139,-0.17639 c 0,-0.32338 0.15875,-0.53505 0.35278,-0.47037 0.19403,0.0647 0.35278,0.27634 0.35278,0.47037 0,0.19403 -0.15875,0.40569 -0.35278,0.47037 -0.19403,0.0647 -0.35278,-0.14699 -0.35278,-0.47037 z m -26.61965,-0.50479 c -0.35346,-0.57191 0.41461,-0.74571 0.8701,-0.19688 0.35446,0.42709 0.33285,0.52528 -0.1156,0.52528 -0.30335,0 -0.64287,-0.14778 -0.7545,-0.3284 z m 7.56965,-3.55216 c 0,-0.442 0.37438,-0.442 1.05834,0 0.4279,0.27654 0.37727,0.34301 -0.26459,0.34738 -0.43656,0.003 -0.79375,-0.15335 -0.79375,-0.34738 z m 138.09733,-1.3838 -2.13184,-0.2037 1.71831,-1.16784 c 1.61812,-1.09973 1.72904,-1.12687 1.90204,-0.46538 0.20994,0.80289 0.92946,1.17517 1.69989,0.87953 0.39938,-0.15325 0.47407,-0.53598 0.3077,-1.57643 -0.19019,-1.1893 -0.13064,-1.37253 0.44273,-1.36282 0.77597,0.0131 1.89717,0.789 1.89717,1.31284 0,0.34698 0.75241,0.79692 1.65128,0.98747 0.59482,0.1261 0.12069,-0.94689 -0.75219,-1.7022 -0.70859,-0.61316 -0.69765,-0.62116 0.55982,-0.40929 0.77453,0.13051 1.37661,0.0638 1.52012,-0.16836 0.32847,-0.53147 1.6515,-0.46204 2.42937,0.12749 0.45307,0.34337 1.2132,0.43096 2.54607,0.2934 1.42056,-0.14662 2.12256,-0.0504 2.78126,0.38121 1.16234,0.76158 2.02135,0.72885 2.92326,-0.11138 0.56991,-0.53095 1.03766,-0.64027 2.04209,-0.47728 0.89546,0.14531 1.39379,0.0643 1.59364,-0.25906 0.2256,-0.36504 0.47466,-0.38202 1.11121,-0.0758 0.72218,0.34744 0.73872,0.39758 0.13808,0.4186 -0.37528,0.0131 -1.32778,0.33578 -2.11667,0.71698 -0.78884,0.38122 -2.38678,0.78964 -3.55095,0.90762 -1.16417,0.11798 -2.67229,0.42991 -3.35139,0.69318 -1.12779,0.43721 -6.55288,1.23387 -8.40235,1.23387 -0.44916,0 -0.76987,-0.22045 -0.76987,-0.52916 0,-0.32926 -0.33316,-0.52917 -0.88195,-0.52917 -0.64674,0 -0.88194,0.18815 -0.88194,0.70555 0,0.76859 -0.18895,0.78483 -4.42489,0.38009 z m 14.65544,-2.23217 c 0,-0.41313 -0.51392,-0.31035 -0.66145,0.13229 -0.0727,0.21828 0.0463,0.33735 0.26458,0.26459 0.2183,-0.0728 0.39687,-0.25136 0.39687,-0.39688 z m -3.71923,-0.24021 c 0.11162,-0.18062 0.0416,-0.42811 -0.15557,-0.54998 -0.1972,-0.12187 -0.35853,0.0259 -0.35853,0.3284 0,0.61966 0.2117,0.7109 0.5141,0.22158 z m -147.95041,2.02492 c -0.037,-0.89033 -0.77674,-1.18169 -1.27391,-0.50177 -0.40138,0.54893 -0.48229,0.55124 -1.00482,0.0287 -0.62664,-0.62663 -0.77214,-1.92899 -0.21551,-1.92899 0.19403,0 0.35278,0.23813 0.35278,0.52917 0,0.36785 0.37006,0.52916 1.2139,0.52916 1.39145,0 1.63504,0.2433 1.23619,1.23473 -0.22921,0.56977 -0.28861,0.59075 -0.30863,0.10901 z m -6.55118,-2.75485 c -0.11992,-0.19403 -0.0499,-0.35278 0.15557,-0.35278 0.20547,0 0.37359,0.15875 0.37359,0.35278 0,0.19403 -0.07,0.35278 -0.15556,0.35278 -0.0856,0 -0.25369,-0.15875 -0.3736,-0.35278 z m 2.99861,-0.35278 c 0,-0.19402 0.15875,-0.35277 0.35278,-0.35277 0.19402,0 0.35277,0.15875 0.35277,0.35277 0,0.19403 -0.15875,0.35278 -0.35277,0.35278 -0.19403,0 -0.35278,-0.15875 -0.35278,-0.35278 z m 128.4111,-1.96481 c 0,-0.36771 0.25736,-0.51583 0.76613,-0.44097 1.12942,0.16619 1.25035,0.99467 0.14521,0.99467 -0.59285,0 -0.91134,-0.19351 -0.91134,-0.5537 z m 3.43289,0.3223 c 0.23883,-0.0966 0.71508,-0.10251 1.05833,-0.0131 0.34322,0.0894 0.14781,0.16851 -0.43427,0.1757 -0.58208,0.007 -0.86293,-0.066 -0.62406,-0.16263 z m 3.20375,-0.36236 c 0.25467,-0.10191 0.55894,-0.0894 0.67617,0.0278 0.11722,0.11723 -0.0912,0.20061 -0.46303,0.18529 -0.41098,-0.0169 -0.49455,-0.10052 -0.21314,-0.21313 z m 3.52777,-0.35278 c 0.25467,-0.10191 0.55895,-0.0894 0.67617,0.0278 0.11723,0.11722 -0.0912,0.2006 -0.46302,0.18528 -0.41098,-0.0169 -0.49456,-0.10052 -0.21315,-0.21313 z m 7.47448,-1.36205 c 3.20146,-0.65617 5.85555,-1.19891 5.89795,-1.2061 0.0424,-0.007 -0.0138,0.22413 -0.12516,0.51406 -0.11123,0.28992 -0.32794,0.44946 -0.48158,0.35452 -0.63761,-0.39407 -3.63114,0.31761 -4.28413,1.0185 -0.50024,0.53698 -0.7577,0.62001 -0.95127,0.30681 -0.19978,-0.32328 -0.7844,-0.34441 -2.36544,-0.0855 -4.5235,0.74073 -3.21758,0.23056 2.30963,-0.90228 z m 7.34219,-1.46017 c 0.25467,-0.10191 0.55894,-0.0894 0.67617,0.0278 0.11723,0.11723 -0.0912,0.20061 -0.46302,0.18529 -0.41099,-0.0169 -0.49456,-0.10052 -0.21315,-0.21313 z m 2.82222,-0.70556 c 0.25467,-0.1019 0.55894,-0.0894 0.67617,0.0278 0.11723,0.11722 -0.0912,0.2006 -0.46302,0.18528 -0.41099,-0.0169 -0.49456,-0.10052 -0.21315,-0.21313 z m -156.74357,-2.22845 c 0.11992,-0.19403 0.28804,-0.35278 0.3736,-0.35278 0.0856,0 0.15557,0.15875 0.15557,0.35278 0,0.19402 -0.16812,0.35277 -0.3736,0.35277 -0.20548,0 -0.27548,-0.15875 -0.15557,-0.35277 z m -7.34962,-5.44227 c -0.10624,-0.27685 0.0355,-0.69316 0.31504,-0.92514 0.72443,-0.60123 0.62975,-1.78075 -0.15952,-1.98715 -0.38317,-0.1002 -0.75282,-0.60019 -0.86745,-1.17332 -0.11656,-0.58281 -0.49959,-1.09388 -0.91979,-1.22725 -0.39602,-0.12569 -0.72005,-0.36169 -0.72005,-0.52443 0,-0.16275 -0.78576,-0.40397 -1.74614,-0.53606 -2.20156,-0.30279 -2.8543,-0.95664 -1.54882,-1.55146 0.65031,-0.2963 1.04482,-0.31307 1.30252,-0.0554 0.54259,0.54259 1.28689,0.45034 1.28689,-0.1595 0,-0.29104 -0.23625,-0.52917 -0.52501,-0.52917 -0.33417,0 -0.49446,-0.28853 -0.44097,-0.79375 0.0691,-0.65241 -0.073,-0.77861 -0.79791,-0.70876 -1.12039,0.10796 -1.99427,-1.3949 -1.19623,-2.05721 0.38475,-0.31932 0.49067,-0.28367 0.49067,0.16514 0,0.3148 0.15875,0.57236 0.35278,0.57236 0.19403,0 0.35278,-0.3175 0.35278,-0.70555 0,-0.38806 0.11906,-0.70799 0.26458,-0.71096 0.14552,-0.003 0.47941,-0.14153 0.74198,-0.30791 0.38742,-0.2455 0.39504,-0.46056 0.0404,-1.14113 -0.62239,-1.19441 -0.61836,-1.19298 -1.39023,-0.49445 -0.65381,0.59169 -0.71569,0.59388 -0.93095,0.0329 -0.31805,-0.82882 0.33268,-1.37311 1.59862,-1.33711 0.95568,0.0272 1.0209,-0.0369 0.64712,-0.63536 -0.53054,-0.84954 -0.0764,-1.3221 0.76531,-0.79643 1.02879,0.64249 2.53345,-1.13859 2.55955,-3.02976 0.0232,-1.6799 0.17198,-1.81321 0.6425,-0.57564 0.38114,1.00247 1.5687,1.19387 1.90878,0.30763 0.22398,-0.58368 0.61646,-0.57653 3.64747,0.0665 0.92293,0.1958 1.14652,0.13144 1.14652,-0.33003 0,-0.90479 0.66842,-0.66767 0.91771,0.32556 0.18991,0.75666 0.40022,0.88221 1.32964,0.79375 0.98067,-0.0933 1.09358,-0.0103 1.01037,0.74305 -0.11071,1.00245 0.81598,2.15049 1.73585,2.15049 0.35798,0 0.65088,0.15875 0.65088,0.35278 0,0.19403 -0.23813,0.35278 -0.52917,0.35278 -0.29104,0 -0.52916,0.23812 -0.52916,0.52916 0,0.29104 -0.15875,0.52917 -0.35278,0.52917 -0.19403,0 -0.35278,0.30696 -0.35278,0.68212 0,0.47634 0.28447,0.7158 0.94293,0.79375 1.14592,0.13566 1.51821,0.96955 0.54633,1.2237 -0.45445,0.11884 -0.64538,0.39903 -0.5418,0.79509 0.088,0.33636 -0.0821,0.81246 -0.37797,1.05798 -0.42331,0.35132 -0.45184,0.58421 -0.13394,1.09324 0.54177,0.86752 -0.26599,1.88908 -1.28336,1.62304 -0.45552,-0.11913 -1.02777,0.099 -1.55521,0.59283 l -0.8345,0.78131 -0.80623,-1.00838 c -0.78914,-0.987 -1.51707,-0.86811 -0.87726,0.14328 0.17825,0.28177 0.32653,1.26638 0.3295,2.18801 0.005,1.43234 -0.0953,1.6757 -0.68775,1.6757 -0.38122,0 -0.86306,0.3175 -1.07074,0.70555 -0.31839,0.59492 -0.26828,0.70556 0.31955,0.70556 0.79416,0 1.27478,0.55068 0.75889,0.86952 -0.1893,0.11699 -0.66092,0.0149 -1.04804,-0.22686 -0.8761,-0.54712 -1.20632,-0.24019 -1.20632,1.12123 0,1.21543 -0.11788,1.27385 -0.98569,0.48849 -0.57967,-0.5246 -0.6749,-0.5246 -1.1995,0 -0.69532,0.69532 -0.74725,0.6988 -0.9899,0.0665 z m 2.56105,-2.87942 c -0.3097,-0.37318 -0.31247,-0.61901 -0.011,-0.98221 0.4243,-0.51125 0.18159,-1.63222 -0.35341,-1.63222 -0.17327,0 -0.33529,0.19844 -0.36006,0.44098 -0.0248,0.24253 -0.0867,0.83784 -0.13764,1.32291 -0.10307,0.98145 0.43618,1.86688 0.94533,1.55221 0.1948,-0.12039 0.16074,-0.40777 -0.0832,-0.70167 z m 7.02142,-12.61649 c 0.0897,-0.46604 -0.055,-0.61081 -0.52107,-0.52106 -0.35494,0.0684 -0.70127,0.41469 -0.76963,0.76963 -0.0897,0.46605 0.055,0.61082 0.52107,0.52106 0.35494,-0.0684 0.70127,-0.41469 0.76963,-0.76963 z m -14.03849,12.84748 c -0.52413,-0.97934 -0.45001,-1.78708 0.16398,-1.78708 0.36957,0 0.52916,0.37238 0.52916,1.23472 0,1.40065 -0.16765,1.53425 -0.69314,0.55236 z m 177.25841,-0.0232 c 0.11991,-0.19403 0.37677,-0.35278 0.5708,-0.35278 0.19403,0 0.25467,0.15875 0.13476,0.35278 -0.11991,0.19402 -0.37677,0.35277 -0.5708,0.35277 -0.19402,0 -0.25467,-0.15875 -0.13476,-0.35277 z m -25.99531,-0.94654 c 0.25467,-0.10191 0.55894,-0.0894 0.67617,0.0278 0.11723,0.11722 -0.0912,0.2006 -0.46302,0.18529 -0.41099,-0.0169 -0.49456,-0.10053 -0.21315,-0.21314 z m -149.65875,-0.77 c -0.15197,-0.24588 -0.18103,-0.54233 -0.0646,-0.65878 0.31572,-0.31572 0.65997,0.14863 0.48944,0.66021 -0.11949,0.35848 -0.20259,0.3582 -0.42485,-10e-4 z m -2.79269,-0.28253 c -0.12935,-0.12935 -0.23036,-0.48654 -0.22446,-0.79375 0.009,-0.45872 0.0777,-0.44348 0.38512,0.0853 0.37986,0.65323 0.26973,1.13889 -0.16066,0.70849 z m 13.74389,-1.3553 c -1.00885,-0.41883 -1.00978,-0.42206 -0.18248,-0.6384 0.85917,-0.22468 1.5486,0.15603 1.32434,0.73131 -0.0744,0.19089 -0.55182,0.15204 -1.14186,-0.0929 z m 186.04592,-1.74094 c 0,-0.66812 -0.55563,-3.4776 -1.23472,-6.24328 -1.25568,-5.11391 -1.52242,-7.35863 -0.8744,-7.35863 0.50906,0 0.79957,0.823 2.66841,7.55888 l 1.65678,5.97138 -0.79434,0.64321 c -1.13616,0.91997 -1.42173,0.80516 -1.42173,-0.57156 z m -74.25972,0.46731 c -5.84492,-0.34774 -14.14381,-1.90749 -20.28472,-3.81246 -5.72328,-1.77542 -7.50984,-2.46903 -13.09134,-5.08261 -3.08177,-1.44306 -4.57558,-2.3365 -10.01561,-5.99029 -2.70264,-1.81524 -7.50686,-6.50209 -8.5267,-8.31838 -0.50188,-0.89386 -1.43813,-2.50665 -2.08054,-3.58399 -1.32893,-2.22862 -1.88118,-5.07888 -1.22253,-6.30959 0.23035,-0.43042 0.30325,-1.04799 0.16199,-1.37238 -0.47812,-1.09793 -0.4608,-1.53101 0.0533,-1.33372 0.27608,0.10594 0.50196,0.0558 0.50196,-0.11135 0,-0.16718 -0.25496,-0.4018 -0.56658,-0.52138 -0.65562,-0.25158 -0.42021,-1.77788 0.41768,-2.70807 0.27593,-0.30632 0.50168,-0.75452 0.50168,-0.996 0,-0.24149 0.27781,-0.38198 0.61736,-0.31221 0.64742,0.13302 0.66741,1.32801 0.0289,1.72447 -0.18788,0.11666 -0.36535,2.02166 -0.39438,4.23334 -0.0428,3.25791 0.0668,4.24438 0.57729,5.19674 0.74243,1.38511 3.68277,4.29255 4.34114,4.29255 0.25185,0 0.71796,0.39688 1.03579,0.88195 0.31783,0.48507 0.82234,0.88194 1.12114,0.88194 0.45933,0 0.44565,-0.10787 -0.0886,-0.6982 -0.60762,-0.67141 -0.60714,-0.70768 0.0123,-0.94541 0.3549,-0.13619 0.69904,-0.0827 0.76629,0.11901 0.0671,0.20141 0.33852,0.66222 0.60306,1.024 0.43964,0.60124 0.56743,0.61312 1.48658,0.13822 1.60731,-0.83044 1.98145,-1.3321 1.7327,-2.32322 -0.17965,-0.7158 -0.0783,-0.93952 0.49354,-1.08905 0.75611,-0.19773 0.96731,-0.96953 0.36686,-1.34063 -0.60195,-0.37203 -0.38948,-0.82765 0.44098,-0.9456 0.6751,-0.0959 0.83952,-0.41752 1.09994,-2.15177 0.26618,-1.77253 0.39298,-2.01149 0.97014,-1.82831 0.73943,0.23469 0.92118,-0.4968 0.2822,-1.13578 -0.39037,-0.39037 0.25134,-1.87604 0.81032,-1.87604 0.35756,0 1.33531,-1.9518 1.33531,-2.66558 0,-0.32117 0.39688,-1.05561 0.88195,-1.63208 0.48507,-0.57648 0.88194,-1.34193 0.88194,-1.70102 0,-0.35909 0.40353,-0.9703 0.89672,-1.35825 0.82998,-0.65285 0.84967,-0.73177 0.26459,-1.06021 -0.59838,-0.3359 -0.59917,-0.36755 -0.0148,-0.59271 0.33954,-0.13082 0.61736,-0.52673 0.61736,-0.8798 0,-0.35307 0.25456,-0.69327 0.56569,-0.75601 0.39482,-0.0796 0.60089,-0.58985 0.68222,-1.68923 0.0749,-1.01266 0.34532,-1.74289 0.75722,-2.04485 0.35239,-0.25833 0.66208,-0.66075 0.6882,-0.89428 0.0261,-0.23352 0.0658,-0.63372 0.0882,-0.88933 0.027,-0.30853 0.30749,-0.3897 0.83444,-0.24148 0.4429,0.12459 0.61733,0.0961 0.39462,-0.0644 -0.4396,-0.31686 -0.55969,-2.31712 -0.1229,-2.04717 0.14944,0.0924 0.36274,-0.0693 0.47399,-0.35921 0.11127,-0.28993 0.4454,-0.52714 0.74254,-0.52714 0.35007,0 0.54023,-0.33115 0.54023,-0.94075 0,-0.5174 0.10045,-0.84028 0.22322,-0.71751 0.12278,0.12277 0.54008,-0.1796 0.92735,-0.67192 0.52292,-0.6648 0.60165,-0.9976 0.30594,-1.29332 -0.6563,-0.65629 -0.46338,-1.2181 0.85943,-2.5028 1.11853,-1.0863 1.19032,-1.25902 0.64914,-1.56188 -0.55425,-0.31017 -0.53798,-0.37822 0.18264,-0.76389 0.75561,-0.40439 0.76212,-0.44457 0.14503,-0.8958 -0.60475,-0.44221 -0.58406,-0.48797 0.32365,-0.71579 0.95711,-0.24022 1.1062,-0.48548 0.99354,-1.63444 -0.0316,-0.32208 0.28282,-0.8239 0.69866,-1.11517 0.53519,-0.37486 0.68892,-0.74115 0.52621,-1.25381 -0.17041,-0.53694 0.0566,-0.98019 0.87773,-1.71388 1.02324,-0.91426 1.07405,-1.06327 0.66709,-1.95644 -0.38865,-0.85298 -0.35059,-1.06252 0.32327,-1.7798 0.42007,-0.44715 0.76377,-1.09192 0.76377,-1.43282 0,-0.34091 0.23812,-0.85795 0.52916,-1.14899 0.29105,-0.29104 0.52917,-0.81589 0.52917,-1.16633 0,-0.35044 0.23813,-0.83479 0.52917,-1.07633 0.59354,-0.49259 0.72067,-1.76389 0.17639,-1.76389 -0.55317,0 -0.41264,-1.62781 0.18321,-2.12232 0.56053,-0.46521 0.41304,-2.6372 -0.226,-3.3281 -0.1705,-0.18432 -0.30999,-0.84964 -0.30999,-1.47848 0,-0.62884 -0.16521,-1.24545 -0.36713,-1.37025 -0.20192,-0.12479 -0.279,-0.50456 -0.17128,-0.84394 0.10771,-0.33937 -0.042,-1.2913 -0.3328,-2.11538 -0.46459,-1.31679 -0.46627,-1.61895 -0.0138,-2.49387 0.45941,-0.8884 0.45417,-1.0188 -0.0486,-1.21175 -0.41683,-0.15995 -0.50796,-0.4937 -0.35019,-1.28255 0.15266,-0.76328 0.0646,-1.12336 -0.30977,-1.26703 -0.69943,-0.2684 -0.66744,-0.83077 0.0473,-0.83077 0.44814,0 0.51622,-0.20778 0.31785,-0.97014 -0.13884,-0.53358 -0.24785,-1.44639 -0.24223,-2.02847 0.006,-0.58209 -0.22182,-1.78915 -0.50542,-2.68235 -0.33854,-1.0662 -0.45629,-2.44682 -0.34284,-4.01954 0.095,-1.31753 0.0171,-2.6865 -0.17327,-3.04216 -0.2381,-0.44491 -0.21087,-0.86315 0.0873,-1.3406 0.35984,-0.57619 0.32378,-0.81504 -0.21251,-1.40763 -0.4009,-0.44299 -0.57029,-1.00273 -0.4466,-1.47575 0.10961,-0.41912 -0.0289,-1.11023 -0.30769,-1.53579 -0.28105,-0.42893 -0.57705,-1.98162 -0.66421,-3.48411 -0.0865,-1.4907 -0.26772,-2.88913 -0.40275,-3.10762 -0.13503,-0.21848 -0.29035,-6.29012 -0.34515,-13.49251 -0.0548,-7.2024 -0.12131,-13.09528 -0.14779,-13.09528 -0.0265,0 -0.11372,-1.5875 -0.19386,-3.52778 -0.14319,-3.46652 -0.25193,-4.77351 -0.71912,-8.64305 -0.12884,-1.06715 -0.36484,-3.05153 -0.52445,-4.40972 -0.4057,-3.45225 -0.84658,-5.92927 -1.1398,-6.40371 -0.1371,-0.22184 -0.42248,-1.64989 -0.63417,-3.17343 -0.21169,-1.52355 -0.55731,-2.97819 -0.76805,-3.23254 -0.21073,-0.25435 -0.41587,-1.0481 -0.45587,-1.76389 -0.0598,-1.07095 -0.74573,-3.4036 -2.19794,-7.47504 -0.10382,-0.29105 -0.15739,-0.6667 -0.11906,-0.8348 0.0383,-0.16809 -0.15008,-0.64434 -0.41868,-1.05833 -0.2686,-0.41399 -0.57925,-1.14958 -0.69032,-1.63465 -0.40839,-1.78338 -1.31877,-3.79079 -3.35975,-7.40834 -1.14943,-2.03729 -2.37766,-4.25979 -2.72941,-4.93888 -0.97884,-1.88978 -1.1236,-2.14585 -2.43448,-4.30668 -0.67187,-1.10749 -1.49615,-2.85374 -1.83174,-3.88055 -0.3356,-1.02682 -0.9224,-2.74007 -1.30401,-3.80722 -0.38162,-1.06715 -0.68004,-2.2366 -0.66317,-2.59878 0.0169,-0.36218 -0.22258,-1.04502 -0.53211,-1.51742 -0.42374,-0.64672 -0.46266,-0.95903 -0.15756,-1.26414 0.22287,-0.22287 0.40522,-1.22715 0.40522,-2.23174 0,-1.19537 0.18334,-1.97869 0.53058,-2.26687 0.29181,-0.24218 0.66091,-0.93631 0.82021,-1.5425 0.25443,-0.96816 0.43654,-1.10028 1.4979,-1.08666 0.66454,0.009 1.367,-0.185 1.56103,-0.43006 0.48152,-0.60816 2.80885,-0.71126 3.48011,-0.15417 0.30656,0.25442 0.74394,0.3307 0.99753,0.17398 0.73701,-0.4555 4.25423,-0.536 5.25772,-0.12034 0.51131,0.21179 1.73273,0.41856 2.71427,0.45951 1.10658,0.0462 2.03986,0.30541 2.45639,0.68237 0.36947,0.33436 0.90913,0.60793 1.19925,0.60793 0.87193,0 5.37084,3.549 7.60244,5.99722 0.44214,0.48507 1.5927,1.7359 2.55677,2.77962 0.96408,1.04372 2.11648,2.4317 2.56087,3.08439 0.44439,0.6527 0.9758,1.18781 1.18092,1.18914 0.20511,10e-4 1.13059,1.03429 2.05661,2.29547 0.92602,1.26118 1.83732,2.29305 2.02511,2.29305 0.27977,0 2.3343,1.83668 4.31607,3.85842 0.22082,0.22527 0.79837,0.75897 1.28344,1.186 0.48507,0.42703 1.51695,1.42293 2.29306,2.21312 0.77611,0.79019 1.68892,1.53927 2.02847,1.66462 0.33955,0.12536 0.61736,0.46524 0.61736,0.7553 0,0.29005 0.99219,1.34045 2.20486,2.3342 1.21267,0.99376 2.55993,2.30924 2.99392,2.92328 0.43399,0.61405 1.30711,1.72382 1.94028,2.46615 0.63316,0.74234 1.78622,2.35152 2.56233,3.57596 0.77611,1.22443 1.91092,2.94272 2.52183,3.81842 0.61091,0.87569 1.2125,2.124 1.33685,2.77404 0.12436,0.65004 0.68122,2.21376 1.23748,3.47494 1.31709,2.98617 2.53068,9.9547 2.51463,14.43931 -0.004,1.05364 0.14856,2.10295 0.33846,2.3318 0.31273,0.37683 0.64618,2.89601 0.81523,6.15944 0.0353,0.6791 0.26917,1.59791 0.51999,2.0418 0.25079,0.44389 0.36139,1.10522 0.24571,1.46962 -0.11564,0.36439 -0.0451,0.76464 0.15685,0.88943 0.20193,0.1248 0.36713,0.52369 0.36713,0.88644 0,0.36274 0.25757,0.91712 0.57239,1.23194 0.40361,0.40358 0.5141,0.93177 0.37468,1.79093 -0.11991,0.73894 0,1.59964 0.30738,2.18683 0.27781,0.53256 0.50609,1.46724 0.50726,2.07707 0,0.65857 0.21706,1.19124 0.53135,1.31185 0.36004,0.13816 0.52917,0.70192 0.52917,1.76389 0,1.06197 0.16912,1.62573 0.52916,1.76389 0.29104,0.11168 0.52917,0.6128 0.52917,1.11359 0,0.5008 0.21608,1.33921 0.4802,1.86316 0.26409,0.52394 0.58011,2.07544 0.70221,3.44778 0.15984,1.79623 0.51244,3.02625 1.25885,4.39115 0.74446,1.36138 0.94654,2.06467 0.71667,2.49422 -0.22691,0.42398 -0.11692,0.85662 0.37761,1.48533 0.38379,0.4879 0.69779,1.29861 0.69779,1.80159 0,0.50297 0.14154,0.91449 0.31454,0.91449 0.35694,0 0.82268,1.45563 0.93846,2.93315 0.0428,0.54608 0.38093,1.33983 0.75142,1.76389 0.83322,0.95378 1.44638,2.34201 3.63625,8.2327 0.2273,0.61142 0.80021,1.47518 1.27311,1.91945 0.81823,0.7687 2.61122,4.11014 2.61122,4.86634 0,0.5155 1.59251,2.15669 2.09272,2.15669 0.26373,0 0.33954,0.26696 0.20034,0.70556 -0.12845,0.40474 -0.0634,0.70555 0.15261,0.70555 0.20712,0 0.37655,0.2607 0.37655,0.57933 0,0.31863 0.71438,1.41551 1.5875,2.43752 0.87313,1.022 1.5875,2.10509 1.5875,2.40687 0,0.30178 0.3175,0.7186 0.70556,0.92628 0.72588,0.38849 0.98153,1.41112 0.35278,1.41112 -0.64467,0 -0.36622,0.58348 0.90127,1.88857 0.68972,0.71019 1.14724,1.46406 1.01671,1.67526 -0.21601,0.34951 0.0303,1.08769 0.97144,2.91127 0.22296,0.432 0.21724,0.57986 -0.0169,0.43522 -0.19494,-0.12048 -0.45417,-0.0577 -0.57601,0.13948 -0.12189,0.19719 -0.0123,0.35853 0.24352,0.35853 0.68668,0 1.40755,1.34936 1.15164,2.15566 -0.12227,0.38523 -0.0236,0.93975 0.21911,1.23227 0.24275,0.29252 0.5146,1.79639 0.60406,3.34192 0.0895,1.54554 0.30085,2.89546 0.46969,2.99982 0.5206,0.32175 0.34664,2.27172 -0.22214,2.48998 -0.79068,0.30341 -0.63835,1.07506 0.25851,1.3096 0.57926,0.15148 0.68358,0.31004 0.3943,0.59934 -0.28931,0.2893 -0.25234,0.67606 0.1397,1.46196 0.38054,0.7628 0.42034,1.13828 0.13903,1.31213 -0.46253,0.28585 -0.77184,5.62314 -0.34131,5.88922 0.41222,0.25478 0.0392,5.2205 -0.40323,5.36799 -0.48993,0.16331 -0.46101,1.23471 0.047,1.74276 0.22574,0.22573 0.38996,0.95476 0.36495,1.62008 -0.0251,0.66531 0.25753,1.82206 0.62787,2.57055 0.60738,1.22751 0.61913,1.40244 0.11998,1.78491 -0.64862,0.49699 -0.37571,1.51625 0.40598,1.51625 0.74919,0 0.67543,0.58015 -0.23971,1.88582 -0.55404,0.79042 -0.60265,0.97048 -0.16789,0.62155 0.8473,-0.68 1.19708,-0.1925 0.45233,0.63045 -0.41547,0.45908 -0.48489,0.74925 -0.21869,0.91379 0.21456,0.13261 0.28731,0.56506 0.16165,0.96101 -0.13956,0.43966 -0.0422,0.83591 0.25022,1.01788 0.37723,0.23481 0.3906,0.44022 0.063,0.96902 -0.46154,0.74505 -0.0261,1.46715 0.88491,1.46715 0.387,0 0.46401,0.35899 0.33069,1.54164 -0.17578,1.55958 0.17085,2.64196 1.00623,3.142 0.25167,0.15065 0.36784,0.50783 0.25813,0.79375 -0.10971,0.28591 -0.0634,0.5202 0.10283,0.52064 0.1663,3.5e-4 0.32064,0.50466 0.34305,1.12048 0.0373,1.02526 0,1.06454 -0.43734,0.46592 -0.59098,-0.80824 -0.98616,-0.49284 -0.66206,0.52839 0.14354,0.45218 0.43723,0.68215 0.72845,0.5704 0.34181,-0.13116 0.64929,0.35592 1.02648,1.62601 0.29615,0.9973 0.53848,2.07007 0.53848,2.38393 0,0.32345 0.49667,0.75055 1.14653,0.98593 0.7216,0.26136 1.32355,0.8166 1.62422,1.49814 0.32657,0.74028 0.80091,1.14752 1.49931,1.2872 1.11608,0.22322 1.24364,0.45854 0.59827,1.1039 -1.1945,1.19452 2.53848,-0.74004 4.72987,-2.45116 2.27503,-1.77645 3.11817,-2.18915 3.5632,-1.74411 0.26909,0.26909 0.21974,0.71051 -0.17107,1.53001 -0.87852,1.84231 -4.38192,5.90317 -6.28533,7.28549 -0.9627,0.69914 -2.6923,1.94889 -3.84359,2.77723 -3.21511,2.31322 -11.89221,6.22126 -18.56002,8.35914 -14.69944,4.71303 -29.18474,6.43086 -45.86111,5.43873 z m 71.79027,-22.71227 c 0,-0.29104 -0.14936,-0.52917 -0.33196,-0.52917 -0.44485,0 -0.76345,0.5509 -0.48158,0.83274 0.39727,0.39729 0.81354,0.24197 0.81354,-0.30357 z m -12.7,-6.7236 c 0,-0.30249 -0.15875,-0.45187 -0.35277,-0.33196 -0.19403,0.11992 -0.35278,0.36741 -0.35278,0.54999 0,0.18258 0.15875,0.33196 0.35278,0.33196 0.19402,0 0.35277,-0.2475 0.35277,-0.54999 z m -75.49444,-53.07223 c 0,-0.19403 -0.15875,-0.35278 -0.35278,-0.35278 -0.19402,0 -0.35277,0.15875 -0.35277,0.35278 0,0.19402 0.15875,0.35277 0.35277,0.35277 0.19403,0 0.35278,-0.15875 0.35278,-0.35277 z m -90.48749,80.78611 c 0.11991,-0.19403 0.28803,-0.35278 0.37359,-0.35278 0.0856,0 0.15557,0.15875 0.15557,0.35278 0,0.19402 -0.16812,0.35277 -0.3736,0.35277 -0.20548,0 -0.27548,-0.15875 -0.15556,-0.35277 z m 1.23472,-4.40973 c 0,-0.29104 0.15875,-0.52916 0.35278,-0.52916 0.19402,0 0.35277,0.23812 0.35277,0.52916 0,0.29105 -0.15875,0.52917 -0.35277,0.52917 -0.19403,0 -0.35278,-0.23812 -0.35278,-0.52917 z m 171.80277,-2.46944 c 0,-0.29104 0.25756,-0.52917 0.57235,-0.52917 0.46877,0 0.4929,0.0958 0.13321,0.52917 -0.24155,0.29104 -0.49911,0.52917 -0.57235,0.52917 -0.0733,0 -0.13321,-0.23813 -0.13321,-0.52917 z m -174.43162,-3.19859 -0.59333,-0.90553 0.90554,0.59333 c 0.89329,0.58531 1.20143,1.21773 0.59332,1.21773 -0.17171,0 -0.5792,-0.40749 -0.90553,-0.90553 z M 321.8611,914.7512 c -0.32494,-0.35906 -0.82275,-1.51097 -1.1062,-2.5598 -0.28346,-1.04883 -0.61722,-2.26415 -0.74168,-2.70072 -0.18373,-0.64441 -0.0858,-0.79375 0.52041,-0.79375 0.63253,0 0.74669,0.20996 0.74669,1.37337 0,0.83962 0.18846,1.44569 0.4849,1.55945 0.44742,0.17169 1.16472,3.29624 0.83292,3.62807 -0.08,0.0804 -0.4121,-0.14756 -0.73704,-0.50662 z"
       style="fill:#050505;stroke-width:0.35277778" />
  </g>
</svg>
