<?xml version="1.0" encoding="UTF-8" standalone="no"?>
<!-- Created with Inkscape (http://www.inkscape.org/) -->

<svg
   xmlns:dc="http://purl.org/dc/elements/1.1/"
   xmlns:cc="http://creativecommons.org/ns#"
   xmlns:rdf="http://www.w3.org/1999/02/22-rdf-syntax-ns#"
   xmlns:svg="http://www.w3.org/2000/svg"
   xmlns="http://www.w3.org/2000/svg"
   xmlns:sodipodi="http://sodipodi.sourceforge.net/DTD/sodipodi-0.dtd"
   xmlns:inkscape="http://www.inkscape.org/namespaces/inkscape"
   width="512"
   height="512"
   viewBox="0 0 512 512.00002"
   version="1.1"
   id="svg8"
   sodipodi:docname="MajHatWithBuckleNotSelected.svg"
   inkscape:export-filename="C:\Users\velcr\Desktop\MajHatBlackWithBuckle.png"
   inkscape:export-xdpi="96"
   inkscape:export-ydpi="96"
   inkscape:version="0.92.1 r15371">
  <defs
     id="defs2" />
  <sodipodi:namedview
     id="base"
     pagecolor="#ffffff"
     bordercolor="#666666"
     borderopacity="1.0"
     inkscape:pageopacity="0.0"
     inkscape:pageshadow="2"
     inkscape:zoom="0.48675823"
     inkscape:cx="726.582"
     inkscape:cy="62.204497"
     inkscape:document-units="px"
     inkscape:current-layer="layer1"
     showgrid="false"
     units="px"
     inkscape:window-width="1920"
     inkscape:window-height="1001"
     inkscape:window-x="-9"
     inkscape:window-y="-9"
     inkscape:window-maximized="1" />
  <metadata
     id="metadata5">
    <rdf:RDF>
      <cc:Work
         rdf:about="">
        <dc:format>image/svg+xml</dc:format>
        <dc:type
           rdf:resource="http://purl.org/dc/dcmitype/StillImage" />
        <dc:title></dc:title>
      </cc:Work>
    </rdf:RDF>
  </metadata>
  <g
     inkscape:label="Layer 1"
     inkscape:groupmode="layer"
     id="layer1"
     transform="translate(0,-610.51965)">
    <path
       inkscape:connector-curvature="0"
       id="path4512"
       d="m 264.4831,1044.1488 c -4.16161,-0.2865 -14.41715,-2.5198 -28.22222,-6.1459 -15.44451,-4.0567 -35.6886,-7.7776 -47.97777,-8.8185 -3.58952,-0.304 -10.01889,-0.9724 -14.2875,-1.4852 -7.76074,-0.9325 -7.7614,-0.9327 -13.75834,-3.1941 -8.79528,-3.3166 -16.47977,-7.4199 -22.93055,-12.2443 -10.43049,-7.8008 -16.8621,-14.33262 -23.27528,-23.63792 -3.64674,-5.29137 -6.66463,-11.77237 -8.7825,-18.86071 -1.36234,-4.55962 -1.59087,-5.839 -1.99366,-11.16093 -0.27469,-3.62945 -0.37123,-8.24183 -0.24366,-11.64167 0.19066,-5.08131 0.3362,-6.05876 1.49157,-10.01811 0.70836,-2.42749 2.26796,-6.4561 3.49126,-9.01828 1.97375,-4.134 2.60966,-5.08323 5.92679,-8.84705 3.44337,-3.90705 6.09959,-6.22984 13.02561,-11.39052 2.24288,-1.6712 8.37749,-3.89265 18.12098,-6.56195 3.10444,-0.85048 9.37507,-2.84469 13.93472,-4.43158 17.55826,-6.11076 27.03295,-9.1982 34.62812,-11.284 4.33488,-1.19044 8.27848,-2.28115 8.76355,-2.42378 0.62791,-0.18465 1.92518,-1.82819 4.50381,-5.70599 7.76622,-11.67902 10.51313,-16.82944 10.96133,-20.55232 0.15507,-1.28811 0.14695,-8.81442 -0.0181,-16.72512 -0.32692,-15.67429 -0.31776,-15.87709 1.0081,-22.3206 0.83738,-4.06949 0.89218,-4.88605 0.71036,-10.58334 -0.33639,-10.54087 -2.56635,-24.93422 -5.54761,-35.80717 -1.68815,-6.15695 -3.89409,-12.31318 -8.78537,-24.51783 -6.36559,-15.88334 -8.30774,-19.27062 -17.79423,-31.03479 -8.84681,-10.9709 -13.26687,-18.05144 -14.43487,-23.12336 -0.52312,-2.27162 -0.30386,-3.55843 0.67003,-3.93215 1.1375,-0.4365 5.65845,0.71833 14.74495,3.76644 21.15894,7.09788 34.44429,13.38008 42.55657,20.1236 2.48699,2.06737 15.56264,14.50911 22.41032,21.32388 10.24063,10.1914 17.01753,19.46284 20.8324,28.50074 2.88029,6.82383 3.8874,11.38805 4.72581,21.41731 0.62442,7.46945 1.55533,11.93212 4.57902,21.95103 4.76208,15.779 7.92755,22.12703 16.5119,33.11312 1.73027,2.21437 3.89894,5.12662 4.81923,6.47167 5.15673,7.53676 8.48893,17.85781 9.17642,28.42251 0.11994,1.84327 0.30875,4.41462 0.41959,5.71411 l 0.20151,2.36271 4.1112,2.00266 c 2.26117,1.10147 9.01605,4.29555 15.01095,7.09796 19.5477,9.13799 24.643,11.87872 34.8209,18.73024 12.2804,8.26689 24.4001,20.3413 31.8864,31.76701 3.0031,4.58348 5.8843,11.01251 7.4569,16.6392 1.1922,4.26539 1.2252,4.54829 1.0094,8.64306 -0.3385,6.42073 -1.5478,11.10644 -4.1429,16.05139 -7.8292,14.91881 -21.597,27.50143 -42.9485,39.25093 -10.3506,5.6959 -27.9019,12.5762 -40.74584,15.9727 -12.5302,3.3136 -21.76137,5.0443 -31.04444,5.8203 -8.25161,0.6899 -18.39965,0.8186 -25.57639,0.3246 z"
       style="fill:#a0a0a0;stroke-width:0.35277778" />
    <path
       inkscape:connector-curvature="0"
       id="path4510"
       d="m 266.59977,1043.7943 c -4.79242,-0.212 -6.43957,-0.4636 -13.33066,-2.0364 -4.32443,-0.9869 -11.83974,-2.8403 -16.70068,-4.1187 -16.1266,-4.2408 -35.4597,-7.7639 -49.37732,-8.998 -4.34711,-0.3855 -10.92009,-1.089 -14.60661,-1.5632 -6.5978,-0.8489 -6.80224,-0.901 -13.05278,-3.326 -3.4925,-1.355 -8.70973,-3.7064 -11.59385,-5.2253 -9.14701,-4.8173 -20.84647,-14.2575 -27.46893,-22.16452 -7.34285,-8.7671 -11.35037,-15.94011 -14.5356,-26.01703 -1.39267,-4.4059 -1.6568,-5.76829 -2.13661,-11.02091 -0.37682,-4.12514 -0.48121,-7.75424 -0.33489,-11.64166 0.18629,-4.94891 0.36488,-6.20986 1.44258,-10.18549 0.79109,-2.91835 2.01711,-6.1939 3.43597,-9.17993 1.94589,-4.09515 2.62754,-5.12528 5.78098,-8.73632 3.36305,-3.85107 6.16797,-6.32685 12.42563,-10.96754 2.2137,-1.64169 3.50229,-2.25662 7.88977,-3.76514 2.88417,-0.99164 7.72605,-2.45289 10.75973,-3.24722 3.03368,-0.79433 11.7864,-3.62879 19.4505,-6.29879 18.42965,-6.4205 20.25322,-7.00788 30.16249,-9.71544 5.09718,-1.39272 8.68801,-2.55438 9.02284,-2.91894 1.06667,-1.16141 9.08913,-13.68984 11.22132,-17.52402 1.18169,-2.12494 2.42829,-4.66446 2.77024,-5.64337 0.69383,-1.98628 0.70534,-2.54195 0.49368,-23.82845 l -0.12804,-12.87638 0.97626,-4.23334 c 1.54462,-6.69787 1.38696,-12.84483 -0.71493,-27.87405 -2.11936,-15.15421 -5.09074,-25.26964 -13.4653,-45.83986 -5.86323,-14.40172 -7.78619,-17.689 -17.24117,-29.47359 -9.06459,-11.29803 -13.4533,-18.39908 -14.34943,-23.21776 -0.35096,-1.88718 -0.33185,-2.28287 0.13266,-2.74739 0.84842,-0.84842 3.8419,-0.15353 14.04993,3.26147 22.08033,7.38677 36.10011,14.11457 44.13816,21.18098 4.94535,4.34755 22.91837,21.82893 26.32405,25.60394 8.29342,9.19286 13.06862,16.36808 16.25557,24.42571 2.55327,6.45536 3.19854,9.56245 4.13407,19.90614 0.56903,6.29124 1.20607,10.35056 2.16326,13.78413 1.75186,6.28433 5.28373,17.56396 6.35152,20.28473 2.67483,6.81555 6.96158,14.0166 12.71796,21.36411 4.37321,5.58203 6.20564,8.36728 8.22554,12.50255 3.38885,6.93798 4.99854,13.40001 5.63855,22.63599 0.60675,8.75597 -0.2027,7.44354 6.6251,10.74217 3.24031,1.56545 8.66961,4.11785 12.06511,5.672 26.878,12.30231 38.6414,19.64157 52.7991,32.94156 4.6981,4.41354 11.4322,12.46999 15.0376,17.99055 2.8852,4.41768 5.906,11.0627 7.3422,16.15103 0.9665,3.42375 1.1037,4.43615 1.0595,7.81393 -0.058,4.42778 -0.1407,5.04064 -1.334,9.87777 -2.9534,11.97176 -16.6078,27.92458 -33.1297,38.70618 -15.1552,9.8898 -33.8879,18.1799 -52.18165,23.0929 -21.09533,5.6654 -35.32279,7.3268 -55.20972,6.4469 z"
       style="fill:#999999;stroke-width:0.35277778;fill-opacity:0.60000002"
       inkscape:export-xdpi="96"
       inkscape:export-ydpi="96" />
    <path
       inkscape:connector-curvature="0"
       id="path4508"
       d="m 265.71783,1043.4434 c -5.14594,-0.2766 -13.99007,-2.126 -28.575,-5.9754 -16.39237,-4.3264 -36.05787,-7.9208 -50.11829,-9.1606 -4.44953,-0.3923 -11.02692,-1.1017 -14.61643,-1.5764 -6.17631,-0.8168 -6.82917,-0.9791 -12.17084,-3.0247 -8.62575,-3.3032 -16.26498,-7.4152 -22.57777,-12.1529 -10.43324,-7.8301 -16.97111,-14.52922 -23.2332,-23.80602 -3.24171,-4.80231 -6.25346,-11.34357 -8.29681,-18.01989 -1.88588,-6.16185 -2.55952,-13.21411 -2.15665,-22.57778 0.2334,-5.4247 0.40222,-6.64435 1.39165,-10.05416 0.63272,-2.18049 2.1789,-6.04428 3.52931,-8.81945 2.19449,-4.50982 2.72327,-5.29134 6.08658,-8.99583 3.38889,-3.73267 8.13105,-7.79435 12.8442,-11.00111 2.2894,-1.55767 9.38564,-4.07033 17.77242,-6.29291 3.58951,-0.95126 7.47889,-2.06533 8.64305,-2.47571 18.32143,-6.45857 23.10748,-8.11237 28.04583,-9.69117 3.20146,-1.02351 8.51959,-2.60107 11.81806,-3.5057 3.29847,-0.90463 6.83146,-1.87876 7.85108,-2.16474 l 1.85386,-0.51996 3.84144,-5.74688 c 4.52791,-6.77386 9.23121,-14.71952 10.35136,-17.48737 0.79522,-1.96495 0.79652,-2.00145 0.69807,-19.60751 -0.0985,-17.60868 -0.0971,-17.64614 0.77912,-21.87222 1.21369,-5.85359 1.417,-9.10065 0.92849,-14.82914 -1.31662,-15.4394 -3.87553,-28.83901 -7.64405,-40.0278 -2.35916,-7.00439 -9.36845,-24.4767 -12.10574,-30.1764 -3.22078,-6.70648 -5.03159,-9.35563 -14.31009,-20.9353 -4.46677,-5.57457 -7.23059,-9.51474 -9.67955,-13.79942 -2.69585,-4.71662 -3.96032,-9.25595 -2.71179,-9.73506 0.65953,-0.25308 5.52264,0.93927 10.27002,2.51804 23.53087,7.82531 38.95247,15.0717 46.91944,22.04677 4.18595,3.66478 21.60298,20.58064 25.52552,24.79104 9.79481,10.51353 15.37995,19.22624 18.5728,28.97317 1.40356,4.28466 2.07352,8.09009 2.64336,15.01438 0.43099,5.23668 1.48294,12.24498 2.25055,14.99305 1.43115,5.12386 5.35128,17.63067 6.28519,20.05242 2.63532,6.83356 7.13141,14.4271 12.90789,21.8004 9.66993,12.34299 12.83748,20.51583 13.85482,35.74786 0.20772,3.11018 0.44694,5.99938 0.5316,6.42044 0.18708,0.93026 4.08651,2.96448 18.40811,9.60293 19.299,8.94563 25.881,12.47899 36.2507,19.46001 8.9744,6.04165 18.4556,14.63842 24.7756,22.46453 7.9929,9.89751 11.8349,16.98569 14.2276,26.24872 0.6519,2.52381 0.7352,3.58688 0.5767,7.35964 -0.374,8.90169 -2.5771,14.5821 -9.4409,24.34171 -5.3233,7.5692 -15.3292,16.72712 -25.2001,23.06442 -19.7317,12.6682 -41.4858,21.1933 -67.73333,26.5436 -12.25864,2.4987 -25.51602,3.3596 -39.86388,2.5884 z"
       style="fill:none;stroke-width:6.42519685;stroke-miterlimit:4;stroke-dasharray:none;stroke:#000000;stroke-opacity:1" />
  </g>
</svg>
