<?xml version="1.0" encoding="UTF-8" standalone="no"?>
<!-- Created with Inkscape (http://www.inkscape.org/) -->

<svg
   xmlns:dc="http://purl.org/dc/elements/1.1/"
   xmlns:cc="http://creativecommons.org/ns#"
   xmlns:rdf="http://www.w3.org/1999/02/22-rdf-syntax-ns#"
   xmlns:svg="http://www.w3.org/2000/svg"
   xmlns="http://www.w3.org/2000/svg"
   xmlns:sodipodi="http://sodipodi.sourceforge.net/DTD/sodipodi-0.dtd"
   xmlns:inkscape="http://www.inkscape.org/namespaces/inkscape"
   width="512"
   height="512"
   viewBox="0 0 512 512"
   version="1.1"
   id="svg8"
   inkscape:version="0.92.1 r15371"
   sodipodi:docname="FireSelectedNot.svg"
   inkscape:export-filename="D:\Documents\Repo\Inkscape\Elements\FireSelectedNot.png"
   inkscape:export-xdpi="96"
   inkscape:export-ydpi="96">
  <sodipodi:namedview
     id="base"
     pagecolor="#ffffff"
     bordercolor="#666666"
     borderopacity="1.0"
     inkscape:pageopacity="0.0"
     inkscape:pageshadow="2"
     inkscape:zoom="1.2548868"
     inkscape:cx="-35.778556"
     inkscape:cy="274.78188"
     inkscape:document-units="px"
     inkscape:current-layer="layer4"
     showgrid="false"
     inkscape:window-width="1920"
     inkscape:window-height="1001"
     inkscape:window-x="-9"
     inkscape:window-y="-9"
     inkscape:window-maximized="1"
     units="px"
     inkscape:measure-start="41.4814,460.062"
     inkscape:measure-end="246.273,39.3112"
     inkscape:object-nodes="false" />
  <defs
     id="defs2" />
  <metadata
     id="metadata5">
    <rdf:RDF>
      <cc:Work
         rdf:about="">
        <dc:format>image/svg+xml</dc:format>
        <dc:type
           rdf:resource="http://purl.org/dc/dcmitype/StillImage" />
        <dc:title />
      </cc:Work>
    </rdf:RDF>
  </metadata>
  <g
     style="display:inline;opacity:0.5"
     transform="translate(0,-376.53336)"
     inkscape:label="Background"
     id="layer2"
     inkscape:groupmode="layer">
    <rect
       inkscape:export-ydpi="96"
       inkscape:export-xdpi="96"
       ry="79.149185"
       y="377.83093"
       x="1.2975587"
       height="509.40488"
       width="509.40488"
       id="rect4500"
       style="opacity:1;fill:#0a0a0a;fill-opacity:1;stroke:#ffffff;stroke-width:2.59511733;stroke-linecap:round;stroke-linejoin:round;stroke-miterlimit:4;stroke-dasharray:none;stroke-dashoffset:0;stroke-opacity:1" />
  </g>
  <g
     style="display:inline;opacity:0.2"
     transform="translate(0,-376.53336)"
     inkscape:label="PrismBack"
     id="layer3"
     inkscape:groupmode="layer">
    <rect
       inkscape:export-ydpi="96"
       inkscape:export-xdpi="96"
       inkscape:transform-center-y="73.538243"
       transform="matrix(0.82612791,0.56348263,-0.57783048,0.81615681,0,0)"
       inkscape:transform-center-x="-107.81525"
       y="318.64392"
       x="271.54233"
       height="4.9174652"
       width="266.80469"
       id="rect4550"
       style="display:inline;opacity:1;fill:#fb9a21;fill-opacity:1;stroke:#ffffff;stroke-width:0;stroke-linecap:round;stroke-linejoin:round;stroke-miterlimit:4;stroke-dasharray:none;stroke-dashoffset:0;stroke-opacity:1;paint-order:normal" />
    <rect
       inkscape:export-ydpi="96"
       inkscape:export-xdpi="96"
       y="563.17523"
       x="256.22287"
       height="283.78674"
       width="6.5103903"
       id="rect4554"
       style="display:inline;opacity:1;fill:#fb9a21;fill-opacity:1;stroke:#ffffff;stroke-width:0;stroke-linecap:round;stroke-linejoin:round;stroke-miterlimit:4;stroke-dasharray:none;stroke-dashoffset:0;stroke-opacity:1;paint-order:normal" />
    <rect
       inkscape:export-ydpi="96"
       inkscape:export-xdpi="96"
       style="display:inline;opacity:1;fill:#fb9a21;fill-opacity:1;stroke:#ffffff;stroke-width:0;stroke-linecap:round;stroke-linejoin:round;stroke-miterlimit:4;stroke-dasharray:none;stroke-dashoffset:0;stroke-opacity:1;paint-order:normal"
       id="rect4556"
       width="266.92798"
       height="4.9877"
       x="-160.24727"
       y="608.62726"
       inkscape:transform-center-x="106.48974"
       transform="matrix(-0.81559431,0.57862416,0.56268967,0.82666821,0,0)"
       inkscape:transform-center-y="75.549183" />
  </g>
  <g
     style="display:inline;opacity:0.4"
     transform="translate(0,-376.53336)"
     inkscape:label="Element"
     id="layer5"
     inkscape:groupmode="layer">
    <g
       transform="matrix(1.0850651,0,0,1.0622602,49.129913,-56.071627)"
       id="g4511"
       style="">
      <path
         inkscape:connector-curvature="0"
         id="path4525"
         d="m 170.08759,448.27965 c -9.85315,13.51063 -8.78925,32.39937 -7.01445,48.66463 -1.30641,14.62457 -8.13815,-5.42683 -8.56626,-11.13727 -7.48399,-12.21776 -8.66858,13.17023 -5.41001,18.7965 0.60004,7.65083 8.79715,21.62673 3.66663,25.82073 -1.25985,-6.14013 -15.40366,-21.25907 -13.39023,-6.61972 -1.00006,15.18767 5.9325,31.11604 5.57386,44.64626 -5.99318,0.41377 -17.92543,-15.83015 -15.0373,0.44604 -0.54226,15.33205 12.80831,23.13135 17.4307,34.98834 0.75447,14.14103 -11.05882,4.00818 -10.56022,-4.73887 -0.48617,-7.87471 -10.92234,-12.84842 -8.82194,-1.41279 -0.80272,12.4418 -3.70258,25.28411 2.26204,36.82313 1.5959,6.90309 9.45765,25.12137 -0.8798,25.187 -7.7056,-9.31766 -1.91783,-23.90625 -8.07814,-33.37488 -5.94234,7.71792 -7.39125,19.75806 -6.4973,29.9554 1.73868,18.07111 11.34765,33.44458 16.30061,50.45967 6.50134,19.18188 17.77238,40.37648 37.61472,44.10683 14.66285,2.78809 30.11567,0.45486 43.96855,-5.27402 19.9218,-10.58222 28.64637,-35.40128 32.26418,-58.09773 3.09636,-16.63418 10.40899,-32.8663 8.87657,-50.14748 -0.55949,-8.00038 -6.73609,-23.31864 -12.22215,-22.45281 -0.98314,9.3058 3.28284,29.18825 -5.05576,30.78618 -2.19487,-12.82789 3.0222,-25.69479 1.04439,-38.69299 -0.19252,-11.63733 -1.20884,-24.84672 -9.52319,-33.14085 -5.34603,9.02545 0.74505,30.88658 -9.37763,32.31659 -3.99711,-11.42724 0.66088,-23.75464 -0.69055,-35.61231 -0.0582,-15.02552 -0.25153,-31.09384 -7.64225,-44.28054 -8.57594,4.57354 -0.32541,20.6688 -7.08118,28.44171 -3.69913,-9.83945 -0.28894,-23.84597 -1.56559,-35.19825 -0.37204,-15.09757 -3.54195,-31.59181 -13.8211,-42.27264 -7.48545,2.58686 3.49315,16.43333 -0.33971,24.05434 -3.08362,15.73218 -6.34857,-4.36885 -8.66052,-10.0464 -4.69765,-12.01489 -7.8992,-24.81983 -7.38309,-38.00761 -0.094,-1.74705 -0.30652,-3.57371 -1.38388,-4.98619 z M 151.57615,658.9757 c 22.83246,-2.41102 45.62547,-5.32264 68.50708,-7.12968 7.85266,9.94202 15.59399,21.44594 14.74719,35.38333 1.77259,31.30822 -24.02983,61.21601 -52.66964,58.68041 -20.05698,-0.83346 -39.3048,-18.11213 -41.20321,-40.86614 -2.77526,-16.02328 0.041,-34.07645 10.61858,-46.06792 z"
         style="opacity:1;fill:#ffffb6;stroke-width:1.14168119" />
      <path
         inkscape:connector-curvature="0"
         id="path4523"
         d="m 168.8685,453.00267 c -5.45751,9.33383 -6.10825,21.68725 -5.48644,32.69083 0.17062,6.41881 3.47731,30.47506 -4.97572,15.31865 -3.22437,-5.27705 -8.10844,-27.03338 -9.54557,-10.30569 -0.97391,14.06631 7.31521,26.52443 6.92202,40.41496 -6.56828,7.49672 -7.91709,-15.96061 -14.8754,-12.19729 0.0543,12.59854 0.33744,25.73604 3.94688,37.78613 8.01181,8.53948 -1.45412,18.73931 -8.89262,9.61497 -9.55737,-9.62579 -2.90968,15.7642 1.03854,20.08852 4.304,7.56507 18.16015,16.98467 9.34835,26.41799 -11.53209,4.60847 -8.09412,-20.00153 -16.34061,-20.34871 -2.33144,15.89348 -2.66294,32.75109 3.32327,47.77857 3.59461,6.26628 4.16953,28.56261 -5.86556,19.90025 -4.90855,-9.03584 -3.21523,-22.63217 -6.84731,-30.60959 -6.47106,14.15434 -6.24066,31.13641 -0.0141,45.37582 7.12537,15.99489 11.91133,33.14503 19.34814,48.95101 9.39929,20.30182 31.20474,31.18385 51.24818,27.07613 18.26846,-1.19094 35.06597,-13.69273 43.09182,-31.90151 8.54635,-20.03708 10.79736,-42.41965 16.76756,-63.43347 3.52611,-13.03171 2.11537,-28.29404 -6.89889,-38.2435 -2.46258,8.57661 1.37935,23.12583 -5.91504,31.62665 -7.89243,-1.92481 -1.38508,-19.99026 -2.38338,-28.05773 1.27939,-15.16182 1.57754,-32.07719 -7.2288,-44.75004 -3.12333,8.53606 0.83032,25.39598 -8.57124,32.76147 -7.56215,-3.84548 -2.46572,-19.29751 -3.64812,-27.91263 0.60138,-16.38099 0.76517,-33.54334 -4.70497,-49.01139 -5.20666,-9.5367 -2.75244,11.35582 -4.60514,15.03643 0.33909,8.13778 -7.60831,13.91937 -6.59239,2.2476 -0.88146,-20.1538 2.67028,-41.57096 -6.42854,-60.17475 -1.4397,-5.54551 -10.05662,-14.67391 -6.33516,-2.4072 1.49038,9.26123 1.68217,19.86337 -2.71942,28.11351 -4.11127,-8.42276 -5.33788,-20.10179 -9.67484,-29.30341 -4.27577,-10.04285 -4.41125,-21.22769 -6.04245,-31.94511 z m 12.47935,155.20128 c 8.474,3.5787 5.75108,18.97789 12.22234,23.15239 3.97467,-6.05349 3.78805,-14.1965 5.1294,-21.36986 2.46826,7.16546 2.82526,16.21703 8.33148,21.24187 6.32862,-7.95187 4.94073,4.40982 9.30923,5.54247 4.06654,-4.56055 9.91836,-11.98282 6.64614,-0.62724 -2.49774,10.43177 2.37123,20.52238 8.17173,28.36385 8.96444,17.00469 6.46697,39.64276 -2.71445,55.93808 -10.25283,18.26835 -29.85361,29.18657 -49.26895,26.50551 -20.52918,-1.60833 -39.6425,-21.06694 -39.63998,-44.52196 -2.21001,-13.7539 -0.34249,-28.09937 6.29837,-40.10073 4.51166,-6.7733 3.44179,-16.9102 5.40924,-23.18218 7.00973,5.50709 4.90301,-20.81754 8.79164,-4.71145 7.31714,13.63527 11.54098,-10.40329 9.87872,-17.09543 4.20826,-5.78531 3.64461,26.28176 9.20675,11.62415 1.9867,-6.64732 -0.47156,-14.77763 2.22834,-20.75947 z"
         style="opacity:1;fill:#ffff65;stroke-width:1.14168119" />
      <path
         inkscape:connector-curvature="0"
         id="path4521"
         d="m 168.25844,454.73206 c -5.76385,11.92998 -5.11433,26.74427 -4.34704,40.01959 1.84462,6.01195 1.24747,17.50547 -5.07967,7.71968 -3.64085,-4.41845 -8.66099,-27.51304 -9.51226,-10.66242 -0.061,13.877 7.19822,26.54369 6.24387,40.42754 -4.83027,6.54235 -14.02584,-25.30856 -14.17642,-6.88324 0.39943,12.5265 0.66295,25.43207 5.96582,36.82922 4.40836,15.46589 -12.36825,3.39142 -15.93609,3.93445 0.30512,12.355 7.09453,22.87945 14.89725,31.07967 10.39887,7.87102 -3.42871,26.17698 -8.84779,11.50005 -0.69439,-5.67577 -7.28317,-23.66235 -7.60946,-8.73144 -0.17511,7.33545 -1.95495,14.9582 -1.22468,22.19913 3.38192,11.86565 8.92279,23.6633 7.90673,36.3896 -8.47685,15.0885 -15.18807,-10.13205 -14.48714,-19.09404 -2.02918,-15.97726 -7.384,12.6074 -4.83641,18.90168 3.05978,17.03162 11.86632,31.85759 16.72646,48.26129 4.44035,10.3592 8.44255,21.94572 16.5048,29.42935 -7.65742,-10.69849 -13.41623,-23.48271 -13.67321,-37.44354 -1.06235,-14.21584 2.77319,-28.08631 8.16281,-40.80221 3.8445,-7.66686 -3.20556,-25.86693 8.21048,-23.02735 -0.76646,-7.68343 9.52612,-20.09547 8.88516,-5.3686 2.36558,14.67272 6.88837,-2.71429 4.93003,-8.94793 -0.41218,-5.90746 -3.50484,-27.78171 4.08437,-13.21532 3.10588,2.98596 4.47695,19.99667 6.50805,15.39233 -0.3293,-12.79784 -4.42609,-25.61262 -2.85037,-38.33892 6.46435,9.53546 11.25437,22.36309 15.87381,33.73272 0.7368,7.07252 3.75658,9.84944 3.96676,0.9333 -0.77079,-6.60603 6.40972,-28.92656 7.89624,-12.18755 1.55375,7.0463 0.71221,26.38379 9.96778,17.96848 6.93521,-2.04606 0.46384,14.92382 6.17218,4.28543 2.89591,-8.15776 11.25901,-7.36791 8.07754,2.23897 -5.20223,12.74743 2.8523,24.4382 7.85707,35.26668 5.88726,15.89777 4.38804,33.93354 -1.41935,49.56262 4.70662,-4.51228 7.49003,-22.14839 9.94399,-31.90186 2.77358,-16.57709 10.86963,-32.72562 8.23797,-49.90466 -0.628,-2.89073 -6.80721,-19.15403 -6.87627,-13.43663 0.19447,9.79767 0.10694,20.68278 -5.52413,28.75321 -10.44787,0.007 -2.52316,-19.8845 -3.72339,-27.99897 0.22653,-13.6713 1.53279,-28.64467 -4.63104,-41.03957 -5.80727,-4.32996 -0.52672,13.16218 -3.69927,16.73449 0.19347,11.24419 -14.00898,18.53602 -11.64012,2.41552 0.77181,-21.71518 2.61334,-44.06121 -2.81299,-65.25171 -6.26086,-11.50175 -2.45765,15.51459 -7.17623,20.33524 -7.70782,9.36871 -4.89627,-12.49497 -5.16313,-18.03525 0.21227,-19.52109 0.6066,-42.13252 -12.48566,-57.17536 0.89033,11.92222 3.43231,25.13919 -2.6424,35.83223 -4.02641,-8.23257 -5.64519,-21.12508 -10.20843,-30.5774 -4.35761,-9.40084 -3.08075,-20.70489 -6.43619,-30.1185 z m 63.77284,264.62069 c -3.72419,3.47986 -3.75394,9.4054 -0.49132,1.90945 z m -79.6577,18.59247 c 5.11026,6.87913 6.4132,3.0398 0,0 z m 38.1037,11.72381 c -6.58914,0.48699 -10.86954,1.79925 -1.77051,0.79453 4.75841,-0.22903 14.96478,-2.31366 4.34353,-1.07552 l -1.23353,0.13315 z"
         style="opacity:1;fill:#ffe830;stroke-width:1.14168119" />
      <path
         inkscape:connector-curvature="0"
         id="path4519"
         d="m 168.25844,454.73206 c -5.76385,11.92998 -5.11433,26.74427 -4.34704,40.01959 1.84462,6.01195 1.24747,17.50547 -5.07967,7.71968 -3.64085,-4.41845 -8.66099,-27.51304 -9.51226,-10.66242 -0.061,13.877 7.19822,26.54369 6.24387,40.42754 -4.83027,6.54235 -14.02584,-25.30856 -14.17642,-6.88324 0.39943,12.5265 0.66295,25.43207 5.96582,36.82922 4.40836,15.46589 -12.36825,3.39142 -15.93609,3.93445 0.27253,12.78453 7.53548,23.44391 15.70459,31.72117 9.2869,8.86568 -5.68323,26.10912 -10.1374,9.92033 0.0397,-4.9458 -6.81162,-21.87296 -6.90773,-7.98093 -1.07227,11.48957 -2.82181,23.09841 2.61271,33.68402 3.44233,9.5944 5.86611,19.70264 5.56894,30.08771 3.96403,-8.95228 5.04197,-19.56832 0.86775,-28.73741 -2.54839,-6.30829 -5.86198,-18.92547 3.75822,-12.9284 14.08569,0.2395 18.31404,-23.3285 7.36594,-31.32985 -5.8182,-4.25713 -6.85489,-10.03018 2.05851,-7.22886 5.86784,3.15774 15.28726,3.30517 10.97572,-6.97222 -7.35462,-12.99705 9.41022,-4.92321 14.8534,-10.08938 4.78736,-0.60938 10.64273,4.00031 13.09333,-3.16716 3.01808,5.89495 -0.2786,24.99811 6.60464,22.83252 2.68778,-3.11195 7.5696,-13.6469 9.8547,-12.67472 1.73609,10.31382 -4.05646,20.60772 -0.65569,30.93887 -0.12317,16.34434 17.41473,16.38169 22.52068,3.38005 6.32846,2.24916 -0.16846,20.34505 0.0753,27.9674 -3.07092,4.76038 3.79004,21.73543 2.90222,8.33659 1.1074,-20.63338 6.83703,-42.69186 -1.41937,-62.37649 -5.57022,-4.37928 -1.60535,15.65312 -5.44963,20.45315 -0.98089,9.65149 -12.48972,11.61069 -10.47349,-0.28389 0.41,-22.36799 2.90037,-45.35992 -2.81942,-67.19828 -6.26086,-11.50175 -2.45765,15.51459 -7.17623,20.33524 -7.70783,9.36871 -4.89627,-12.49497 -5.16314,-18.03525 0.21228,-19.52109 0.60661,-42.13252 -12.48565,-57.17536 0.89033,11.92222 3.4323,25.13919 -2.6424,35.83223 -4.02641,-8.23257 -5.64519,-21.12508 -10.20844,-30.5774 -4.3576,-9.40084 -3.08074,-20.70489 -6.43618,-30.1185 z m -48.18141,180.08998 c -2.43338,8.25043 -6.57862,27.68381 3.37395,29.73184 8.27193,3.32034 -3.77515,-12.49647 -1.17697,-17.41003 -0.74735,-4.00428 -0.22278,-8.78784 -2.19698,-12.32181 z m 124.90994,-13.74321 c -1.36424,8.51306 1.38034,20.66056 -2.24023,27.02146 2.7191,10.64683 11.54594,-7.21516 7.91336,-13.30839 -1.3963,-4.68157 -2.58789,-10.07719 -5.67313,-13.71307 z"
         style="opacity:1;fill:#ffb61e;stroke-width:1.14168119" />
      <path
         inkscape:connector-curvature="0"
         id="path4517"
         d="m 167.97812,456.89846 c -6.00643,14.20559 -3.25545,30.93381 -2.517,46.16729 -0.95438,12.57376 -11.30239,-5.72862 -12.25627,-11.33399 -4.91971,-15.50872 -3.81584,13.03609 -0.4077,18.09911 1.25507,6.4345 9.14052,25.41089 -0.71918,24.39804 -3.42151,-3.81961 -11.25459,-23.45768 -9.98863,-8.1656 0.66299,12.18161 1.00809,24.82005 6.42544,35.78662 5.58632,14.33483 -11.58265,9.37292 -15.87529,6.25013 -0.33047,5.26003 7.67032,22.16396 8.83423,18.52283 -2.95972,-6.53818 1.15424,-14.66247 7.04145,-7.34747 5.39926,-0.19905 16.53846,4.90047 9.54742,-5.7367 -2.09143,-6.04314 -7.05168,-19.70748 -1.57146,-22.8772 0.79299,2.66583 11.40375,15.74544 8.35373,7.74289 -4.33035,-5.44996 -3.23731,-27.65836 3.87268,-12.79315 10.59871,7.09332 6.90884,-15.36125 7.23232,-22.39832 7.34973,4.01524 6.39574,19.95854 8.08645,29.26607 -0.65716,6.71598 3.69513,14.63547 5.14475,3.60473 -0.21967,-5.2847 1.90909,-14.10806 4.10302,-3.82551 2.82268,8.09321 1.40267,20.83847 4.4736,26.5483 4.469,-3.97834 10.8162,-22.45707 14.24293,-7.93197 0.19243,5.2915 2.2435,10.80391 2.55384,2.00724 0.75702,-13.20194 1.4703,-27.59335 -4.11813,-39.65291 -3.13388,6.98085 0.62921,25.85291 -10.22928,25.086 -3.27545,-10.17603 -0.34744,-21.64353 -0.80343,-32.32517 0.60972,-15.09571 -1.47228,-31.68055 -10.46813,-43.52393 -0.1719,11.73436 2.48577,24.73702 -4.08777,35.14123 -4.1684,-9.10406 -5.29381,-20.57186 -9.74933,-30.04035 -4.0292,-9.7248 -4.39912,-20.67649 -7.12026,-30.66821 z"
         style="opacity:1;fill:#ff670c;stroke-width:1.14168119" />
      <ellipse
         ry="58.831554"
         rx="50.628326"
         cy="708.92877"
         cx="120.78855"
         id="path4800"
         style="opacity:0.99823531;fill:#ffffb6;fill-opacity:1;stroke:#ffffff;stroke-width:0;stroke-linecap:round;stroke-linejoin:round;stroke-miterlimit:4;stroke-dasharray:none;stroke-dashoffset:0;stroke-opacity:1;paint-order:normal"
         transform="matrix(0.99371892,-0.11190487,0.09139854,0.99581439,0,0)" />
    </g>
  </g>
  <g
     style="display:inline;opacity:0.2"
     transform="translate(0,-376.53336)"
     inkscape:label="PrismFront"
     id="layer4"
     inkscape:groupmode="layer">
    <g
       inkscape:export-ydpi="96"
       inkscape:export-xdpi="96"
       style="opacity:1;fill:#ffa824;fill-opacity:1"
       id="g4548"
       transform="matrix(1.0850651,0,0,1.0622602,-11.507362,-50.135343)">
      <rect
         style="display:inline;opacity:1;fill:#ffa824;fill-opacity:1;stroke:#ffffff;stroke-width:0;stroke-linecap:round;stroke-linejoin:round;stroke-miterlimit:4;stroke-dasharray:none;stroke-dashoffset:0;stroke-opacity:1;paint-order:normal"
         id="rect4496"
         width="412.18948"
         height="8"
         x="40.440994"
         y="431.46902" />
      <rect
         style="display:inline;opacity:1;fill:#ffa824;fill-opacity:1;stroke:#ffffff;stroke-width:0;stroke-linecap:round;stroke-linejoin:round;stroke-miterlimit:4;stroke-dasharray:none;stroke-dashoffset:0;stroke-opacity:1;paint-order:normal"
         id="rect4498"
         width="462.3302"
         height="7.9836164"
         x="414.70532"
         y="150.69946"
         inkscape:transform-center-x="-99.368462"
         transform="matrix(0.44349686,0.89627593,-0.90418912,0.42713234,0,0)"
         inkscape:transform-center-y="200.81666" />
      <rect
         inkscape:transform-center-y="199.16406"
         transform="matrix(-0.43747572,0.89923022,0.90135669,0.4330775,0,0)"
         inkscape:transform-center-x="96.893346"
         y="591.47406"
         x="200.09669"
         height="7.8092213"
         width="457.01907"
         id="rect4501"
         style="display:inline;opacity:1;fill:#ffa824;fill-opacity:1;stroke:#ffffff;stroke-width:0;stroke-linecap:round;stroke-linejoin:round;stroke-miterlimit:4;stroke-dasharray:none;stroke-dashoffset:0;stroke-opacity:1;paint-order:normal" />
    </g>
  </g>
</svg>
